<?xml version="1.0" encoding="UTF-8" standalone="no"?>
<!DOCTYPE svg PUBLIC "-//W3C//DTD SVG 1.1//EN"
 "http://www.w3.org/Graphics/SVG/1.1/DTD/svg11.dtd">
<!-- Generated by graphviz version 12.1.2 (20240928.0832)
 -->
<!-- Title: public.recurring_cost Pages: 1 -->
<svg width="828pt" height="1064pt"
 viewBox="0.00 0.00 827.87 1064.00" xmlns="http://www.w3.org/2000/svg" xmlns:xlink="http://www.w3.org/1999/xlink">
<g id="graph0" class="graph" transform="scale(1 1) rotate(0) translate(4 1060)">
<title>public.recurring_cost</title>
<polygon fill="white" stroke="none" points="-4,4 -4,-1060 823.87,-1060 823.87,4 -4,4"/>
<!-- public.recurring_cost -->
<g id="node1" class="node">
<title>public.recurring_cost</title>
<polygon fill="#efefef" stroke="none" points="255.62,-974.2 255.62,-1009.8 547.56,-1009.8 547.56,-974.2 255.62,-974.2"/>
<polygon fill="none" stroke="black" points="255.62,-974.2 255.62,-1009.8 547.56,-1009.8 547.56,-974.2 255.62,-974.2"/>
<text text-anchor="start" x="262.62" y="-987.6" font-family="Arial Bold" font-size="18.00">public.recurring_cost</text>
<text text-anchor="start" x="416.07" y="-987.6" font-family="Arial" font-size="14.00">    </text>
<text text-anchor="start" x="447.19" y="-987.6" font-family="Arial" font-size="14.00" fill="#666666">[BASE TABLE]</text>
<polygon fill="none" stroke="black" points="255.62,-943.4 255.62,-974.2 547.56,-974.2 547.56,-943.4 255.62,-943.4"/>
<text text-anchor="start" x="262.62" y="-955.6" font-family="Arial" font-size="14.00">id </text>
<text text-anchor="start" x="277.41" y="-955.6" font-family="Arial" font-size="14.00" fill="#666666">[integer]</text>
<polygon fill="none" stroke="black" points="255.62,-912.6 255.62,-943.4 547.56,-943.4 547.56,-912.6 255.62,-912.6"/>
<text text-anchor="start" x="262.62" y="-924.8" font-family="Arial" font-size="14.00">item_type </text>
<text text-anchor="start" x="327.21" y="-924.8" font-family="Arial" font-size="14.00" fill="#666666">[varchar]</text>
<polygon fill="none" stroke="black" points="255.62,-881.8 255.62,-912.6 547.56,-912.6 547.56,-881.8 255.62,-881.8"/>
<text text-anchor="start" x="262.62" y="-894" font-family="Arial" font-size="14.00">item_id </text>
<text text-anchor="start" x="311.65" y="-894" font-family="Arial" font-size="14.00" fill="#666666">[integer]</text>
<polygon fill="none" stroke="black" points="255.62,-851 255.62,-881.8 547.56,-881.8 547.56,-851 255.62,-851"/>
<text text-anchor="start" x="262.62" y="-863.2" font-family="Arial" font-size="14.00">cost_type </text>
<text text-anchor="start" x="326.44" y="-863.2" font-family="Arial" font-size="14.00" fill="#666666">[varchar]</text>
<polygon fill="none" stroke="black" points="255.62,-820.2 255.62,-851 547.56,-851 547.56,-820.2 255.62,-820.2"/>
<text text-anchor="start" x="262.62" y="-832.4" font-family="Arial" font-size="14.00">vendor_id </text>
<text text-anchor="start" x="328" y="-832.4" font-family="Arial" font-size="14.00" fill="#666666">[integer]</text>
<polygon fill="none" stroke="black" points="255.62,-789.4 255.62,-820.2 547.56,-820.2 547.56,-789.4 255.62,-789.4"/>
<text text-anchor="start" x="262.62" y="-801.6" font-family="Arial" font-size="14.00">amount </text>
<text text-anchor="start" x="313.21" y="-801.6" font-family="Arial" font-size="14.00" fill="#666666">[bigint]</text>
<polygon fill="none" stroke="black" points="255.62,-758.6 255.62,-789.4 547.56,-789.4 547.56,-758.6 255.62,-758.6"/>
<text text-anchor="start" x="262.62" y="-770.8" font-family="Arial" font-size="14.00">billing_cycle </text>
<text text-anchor="start" x="342" y="-770.8" font-family="Arial" font-size="14.00" fill="#666666">[varchar]</text>
<polygon fill="none" stroke="black" points="255.62,-727.8 255.62,-758.6 547.56,-758.6 547.56,-727.8 255.62,-727.8"/>
<text text-anchor="start" x="262.62" y="-740" font-family="Arial" font-size="14.00">start_date </text>
<text text-anchor="start" x="328.78" y="-740" font-family="Arial" font-size="14.00" fill="#666666">[date]</text>
<polygon fill="none" stroke="black" points="255.62,-697 255.62,-727.8 547.56,-727.8 547.56,-697 255.62,-697"/>
<text text-anchor="start" x="262.62" y="-709.2" font-family="Arial" font-size="14.00">end_date </text>
<text text-anchor="start" x="324.91" y="-709.2" font-family="Arial" font-size="14.00" fill="#666666">[date]</text>
<polygon fill="none" stroke="black" points="255.62,-666.2 255.62,-697 547.56,-697 547.56,-666.2 255.62,-666.2"/>
<text text-anchor="start" x="262.62" y="-678.4" font-family="Arial" font-size="14.00">created_by </text>
<text text-anchor="start" x="335.78" y="-678.4" font-family="Arial" font-size="14.00" fill="#666666">[integer]</text>
<polygon fill="none" stroke="black" points="255.62,-635.4 255.62,-666.2 547.56,-666.2 547.56,-635.4 255.62,-635.4"/>
<text text-anchor="start" x="262.62" y="-647.6" font-family="Arial" font-size="14.00">created_at </text>
<text text-anchor="start" x="332.67" y="-647.6" font-family="Arial" font-size="14.00" fill="#666666">[timestamp with time zone]</text>
<polygon fill="none" stroke="black" points="255.62,-604.6 255.62,-635.4 547.56,-635.4 547.56,-604.6 255.62,-604.6"/>
<text text-anchor="start" x="262.62" y="-616.8" font-family="Arial" font-size="14.00">updated_at </text>
<text text-anchor="start" x="336.58" y="-616.8" font-family="Arial" font-size="14.00" fill="#666666">[timestamp with time zone]</text>
<polygon fill="none" stroke="black" stroke-width="3" points="254.12,-603.1 254.12,-1011.3 549.06,-1011.3 549.06,-603.1 254.12,-603.1"/>
</g>
<!-- public.vendor -->
<g id="node2" class="node">
<title>public.vendor</title>
<polygon fill="#efefef" stroke="none" points="93.75,-366.6 93.75,-402.2 347.43,-402.2 347.43,-366.6 93.75,-366.6"/>
<polygon fill="none" stroke="black" points="93.75,-366.6 93.75,-402.2 347.43,-402.2 347.43,-366.6 93.75,-366.6"/>
<text text-anchor="start" x="108.61" y="-380" font-family="Arial Bold" font-size="18.00">public.vendor</text>
<text text-anchor="start" x="208.09" y="-380" font-family="Arial" font-size="14.00">    </text>
<text text-anchor="start" x="239.2" y="-380" font-family="Arial" font-size="14.00" fill="#666666">[BASE TABLE]</text>
<polygon fill="none" stroke="black" points="93.75,-335.8 93.75,-366.6 347.43,-366.6 347.43,-335.8 93.75,-335.8"/>
<text text-anchor="start" x="100.75" y="-348" font-family="Arial" font-size="14.00">id </text>
<text text-anchor="start" x="115.54" y="-348" font-family="Arial" font-size="14.00" fill="#666666">[integer]</text>
<polygon fill="none" stroke="black" points="93.75,-305 93.75,-335.8 347.43,-335.8 347.43,-305 93.75,-305"/>
<text text-anchor="start" x="100.75" y="-317.2" font-family="Arial" font-size="14.00">name </text>
<text text-anchor="start" x="139.66" y="-317.2" font-family="Arial" font-size="14.00" fill="#666666">[varchar]</text>
<polygon fill="none" stroke="black" points="93.75,-274.2 93.75,-305 347.43,-305 347.43,-274.2 93.75,-274.2"/>
<text text-anchor="start" x="100.75" y="-286.4" font-family="Arial" font-size="14.00">created_by </text>
<text text-anchor="start" x="173.91" y="-286.4" font-family="Arial" font-size="14.00" fill="#666666">[integer]</text>
<polygon fill="none" stroke="black" points="93.75,-243.4 93.75,-274.2 347.43,-274.2 347.43,-243.4 93.75,-243.4"/>
<text text-anchor="start" x="100.75" y="-255.6" font-family="Arial" font-size="14.00">created_at </text>
<text text-anchor="start" x="170.8" y="-255.6" font-family="Arial" font-size="14.00" fill="#666666">[timestamp with time zone]</text>
<polygon fill="none" stroke="black" points="93.75,-212.6 93.75,-243.4 347.43,-243.4 347.43,-212.6 93.75,-212.6"/>
<text text-anchor="start" x="100.75" y="-224.8" font-family="Arial" font-size="14.00">updated_at </text>
<text text-anchor="start" x="174.71" y="-224.8" font-family="Arial" font-size="14.00" fill="#666666">[timestamp with time zone]</text>
<polygon fill="none" stroke="black" points="93.75,-181.8 93.75,-212.6 347.43,-212.6 347.43,-181.8 93.75,-181.8"/>
<text text-anchor="start" x="100.75" y="-194" font-family="Arial" font-size="14.00">retired_at </text>
<text text-anchor="start" x="163.79" y="-194" font-family="Arial" font-size="14.00" fill="#666666">[timestamp with time zone]</text>
<polygon fill="none" stroke="black" points="93.75,-151 93.75,-181.8 347.43,-181.8 347.43,-151 93.75,-151"/>
<text text-anchor="start" x="100.75" y="-163.2" font-family="Arial" font-size="14.00">merged_into_vendor_id </text>
<text text-anchor="start" x="251.75" y="-163.2" font-family="Arial" font-size="14.00" fill="#666666">[integer]</text>
<polygon fill="none" stroke="black" points="93.75,-120.2 93.75,-151 347.43,-151 347.43,-120.2 93.75,-120.2"/>
<text text-anchor="start" x="100.75" y="-132.4" font-family="Arial" font-size="14.00">merged_at </text>
<text text-anchor="start" x="171.57" y="-132.4" font-family="Arial" font-size="14.00" fill="#666666">[timestamp with time zone]</text>
</g>
<!-- public.recurring_cost&#45;&gt;public.vendor -->
<g id="edge1" class="edge">
<title>public.recurring_cost:vendor_id&#45;&gt;public.vendor:id</title>
<path fill="none" stroke="black" d="M244.32,-835.19C136.24,-826.19 215.41,-671.03 255.62,-558.4 277.38,-497.46 325.46,-506.26 347.43,-445.4 361.65,-406.02 390.3,-351.2 348.43,-351.2"/>
<polygon fill="black" stroke="black" points="244.3,-835.19 254.11,-840.08 249.63,-835.4 253.96,-835.57 253.96,-835.57 253.96,-835.57 249.63,-835.4 254.47,-831.09 244.3,-835.19"/>
<text text-anchor="start" x="7" y="-845.6" font-family="Arial" font-size="10.00">FOREIGN KEY (vendor_id) REFERENCES vendor(id)</text>
</g>
<!-- public.app_user -->
<g id="node3" class="node">
<title>public.app_user</title>
<polygon fill="#efefef" stroke="none" points="451.48,-443.6 451.48,-479.2 713.71,-479.2 713.71,-443.6 451.48,-443.6"/>
<polygon fill="none" stroke="black" points="451.48,-443.6 451.48,-479.2 713.71,-479.2 713.71,-443.6 451.48,-443.6"/>
<text text-anchor="start" x="463.11" y="-457" font-family="Arial Bold" font-size="18.00">public.app_user</text>
<text text-anchor="start" x="577.58" y="-457" font-family="Arial" font-size="14.00">    </text>
<text text-anchor="start" x="608.7" y="-457" font-family="Arial" font-size="14.00" fill="#666666">[BASE TABLE]</text>
<polygon fill="none" stroke="black" points="451.48,-412.8 451.48,-443.6 713.71,-443.6 713.71,-412.8 451.48,-412.8"/>
<text text-anchor="start" x="458.48" y="-425" font-family="Arial" font-size="14.00">id </text>
<text text-anchor="start" x="473.27" y="-425" font-family="Arial" font-size="14.00" fill="#666666">[integer]</text>
<polygon fill="none" stroke="black" points="451.48,-382 451.48,-412.8 713.71,-412.8 713.71,-382 451.48,-382"/>
<text text-anchor="start" x="458.48" y="-394.2" font-family="Arial" font-size="14.00">name </text>
<text text-anchor="start" x="497.39" y="-394.2" font-family="Arial" font-size="14.00" fill="#666666">[varchar]</text>
<polygon fill="none" stroke="black" points="451.48,-351.2 451.48,-382 713.71,-382 713.71,-351.2 451.48,-351.2"/>
<text text-anchor="start" x="458.48" y="-363.4" font-family="Arial" font-size="14.00">username </text>
<text text-anchor="start" x="524.62" y="-363.4" font-family="Arial" font-size="14.00" fill="#666666">[varchar]</text>
<polygon fill="none" stroke="black" points="451.48,-320.4 451.48,-351.2 713.71,-351.2 713.71,-320.4 451.48,-320.4"/>
<text text-anchor="start" x="458.48" y="-332.6" font-family="Arial" font-size="14.00">email </text>
<text text-anchor="start" x="495.83" y="-332.6" font-family="Arial" font-size="14.00" fill="#666666">[varchar]</text>
<polygon fill="none" stroke="black" points="451.48,-289.6 451.48,-320.4 713.71,-320.4 713.71,-289.6 451.48,-289.6"/>
<text text-anchor="start" x="458.48" y="-301.8" font-family="Arial" font-size="14.00">password_hash </text>
<text text-anchor="start" x="560.43" y="-301.8" font-family="Arial" font-size="14.00" fill="#666666">[varchar]</text>
<polygon fill="none" stroke="black" points="451.48,-258.8 451.48,-289.6 713.71,-289.6 713.71,-258.8 451.48,-258.8"/>
<text text-anchor="start" x="458.48" y="-271" font-family="Arial" font-size="14.00">must_change_password </text>
<text text-anchor="start" x="614.13" y="-271" font-family="Arial" font-size="14.00" fill="#666666">[boolean]</text>
<polygon fill="none" stroke="black" points="451.48,-228 451.48,-258.8 713.71,-258.8 713.71,-228 451.48,-228"/>
<text text-anchor="start" x="458.48" y="-240.2" font-family="Arial" font-size="14.00">is_system_admin </text>
<text text-anchor="start" x="570.52" y="-240.2" font-family="Arial" font-size="14.00" fill="#666666">[boolean]</text>
<polygon fill="none" stroke="black" points="451.48,-197.2 451.48,-228 713.71,-228 713.71,-197.2 451.48,-197.2"/>
<text text-anchor="start" x="458.48" y="-209.4" font-family="Arial" font-size="14.00">locale </text>
<text text-anchor="start" x="498.95" y="-209.4" font-family="Arial" font-size="14.00" fill="#666666">[varchar]</text>
<polygon fill="none" stroke="black" points="451.48,-166.4 451.48,-197.2 713.71,-197.2 713.71,-166.4 451.48,-166.4"/>
<text text-anchor="start" x="458.48" y="-178.6" font-family="Arial" font-size="14.00">last_login_at </text>
<text text-anchor="start" x="540.98" y="-178.6" font-family="Arial" font-size="14.00" fill="#666666">[timestamp with time zone]</text>
<polygon fill="none" stroke="black" points="451.48,-135.6 451.48,-166.4 713.71,-166.4 713.71,-135.6 451.48,-135.6"/>
<text text-anchor="start" x="458.48" y="-147.8" font-family="Arial" font-size="14.00">disabled_at </text>
<text text-anchor="start" x="533.98" y="-147.8" font-family="Arial" font-size="14.00" fill="#666666">[timestamp with time zone]</text>
<polygon fill="none" stroke="black" points="451.48,-104.8 451.48,-135.6 713.71,-135.6 713.71,-104.8 451.48,-104.8"/>
<text text-anchor="start" x="458.48" y="-117" font-family="Arial" font-size="14.00">created_at </text>
<text text-anchor="start" x="528.53" y="-117" font-family="Arial" font-size="14.00" fill="#666666">[timestamp with time zone]</text>
<polygon fill="none" stroke="black" points="451.48,-74 451.48,-104.8 713.71,-104.8 713.71,-74 451.48,-74"/>
<text text-anchor="start" x="458.48" y="-86.2" font-family="Arial" font-size="14.00">updated_at </text>
<text text-anchor="start" x="532.44" y="-86.2" font-family="Arial" font-size="14.00" fill="#666666">[timestamp with time zone]</text>
<polygon fill="none" stroke="black" points="451.48,-43.2 451.48,-74 713.71,-74 713.71,-43.2 451.48,-43.2"/>
<text text-anchor="start" x="458.48" y="-55.4" font-family="Arial" font-size="14.00">theme </text>
<text text-anchor="start" x="501.28" y="-55.4" font-family="Arial" font-size="14.00" fill="#666666">[varchar]</text>
</g>
<!-- public.recurring_cost&#45;&gt;public.app_user -->
<g id="edge2" class="edge">
<title>public.recurring_cost:created_by&#45;&gt;public.app_user:id</title>
<path fill="none" stroke="black" d="M558.71,-680.54C599.95,-671.05 576.8,-600.21 547.56,-558.4 521.43,-521.03 477.66,-559.74 451.48,-522.4 427.44,-488.12 408.61,-428.2 450.48,-428.2"/>
<polygon fill="black" stroke="black" points="558.84,-680.52 548.43,-677.09 553.54,-681.08 549.23,-681.53 549.23,-681.53 549.23,-681.53 553.54,-681.08 549.36,-686.04 558.84,-680.52"/>
<text text-anchor="start" x="555.56" y="-691.6" font-family="Arial" font-size="10.00">FOREIGN KEY (created_by) REFERENCES app_user(id)</text>
</g>
</g>
</svg>
