<?xml version="1.0" encoding="UTF-8" standalone="no"?>
<!DOCTYPE svg PUBLIC "-//W3C//DTD SVG 1.1//EN"
 "http://www.w3.org/Graphics/SVG/1.1/DTD/svg11.dtd">
<!-- Generated by graphviz version 12.1.2 (20240928.0832)
 -->
<!-- Title: public.purchase_order Pages: 1 -->
<svg width="884pt" height="1160pt"
 viewBox="0.00 0.00 884.31 1160.40" xmlns="http://www.w3.org/2000/svg" xmlns:xlink="http://www.w3.org/1999/xlink">
<g id="graph0" class="graph" transform="scale(1 1) rotate(0) translate(4 1156.4)">
<title>public.purchase_order</title>
<polygon fill="white" stroke="none" points="-4,4 -4,-1156.4 880.31,-1156.4 880.31,4 -4,4"/>
<!-- public.purchase_order -->
<g id="node1" class="node">
<title>public.purchase_order</title>
<polygon fill="#efefef" stroke="none" points="286.7,-573.8 286.7,-609.4 585.62,-609.4 585.62,-573.8 286.7,-573.8"/>
<polygon fill="none" stroke="black" points="286.7,-573.8 286.7,-609.4 585.62,-609.4 585.62,-573.8 286.7,-573.8"/>
<text text-anchor="start" x="293.7" y="-587.2" font-family="Arial Bold" font-size="18.00">public.purchase_order</text>
<text text-anchor="start" x="454.13" y="-587.2" font-family="Arial" font-size="14.00">    </text>
<text text-anchor="start" x="485.25" y="-587.2" font-family="Arial" font-size="14.00" fill="#666666">[BASE TABLE]</text>
<polygon fill="none" stroke="black" points="286.7,-543 286.7,-573.8 585.62,-573.8 585.62,-543 286.7,-543"/>
<text text-anchor="start" x="293.7" y="-555.2" font-family="Arial" font-size="14.00">id </text>
<text text-anchor="start" x="308.48" y="-555.2" font-family="Arial" font-size="14.00" fill="#666666">[integer]</text>
<polygon fill="none" stroke="black" points="286.7,-512.2 286.7,-543 585.62,-543 585.62,-512.2 286.7,-512.2"/>
<text text-anchor="start" x="293.7" y="-524.4" font-family="Arial" font-size="14.00">order_number </text>
<text text-anchor="start" x="385.52" y="-524.4" font-family="Arial" font-size="14.00" fill="#666666">[varchar]</text>
<polygon fill="none" stroke="black" points="286.7,-481.4 286.7,-512.2 585.62,-512.2 585.62,-481.4 286.7,-481.4"/>
<text text-anchor="start" x="293.7" y="-493.6" font-family="Arial" font-size="14.00">order_date </text>
<text text-anchor="start" x="365.3" y="-493.6" font-family="Arial" font-size="14.00" fill="#666666">[date]</text>
<polygon fill="none" stroke="black" points="286.7,-450.6 286.7,-481.4 585.62,-481.4 585.62,-450.6 286.7,-450.6"/>
<text text-anchor="start" x="293.7" y="-462.8" font-family="Arial" font-size="14.00">vendor_id </text>
<text text-anchor="start" x="359.07" y="-462.8" font-family="Arial" font-size="14.00" fill="#666666">[integer]</text>
<polygon fill="none" stroke="black" points="286.7,-419.8 286.7,-450.6 585.62,-450.6 585.62,-419.8 286.7,-419.8"/>
<text text-anchor="start" x="293.7" y="-432" font-family="Arial" font-size="14.00">currency </text>
<text text-anchor="start" x="351.27" y="-432" font-family="Arial" font-size="14.00" fill="#666666">[varchar]</text>
<polygon fill="none" stroke="black" points="286.7,-389 286.7,-419.8 585.62,-419.8 585.62,-389 286.7,-389"/>
<text text-anchor="start" x="293.7" y="-401.2" font-family="Arial" font-size="14.00">created_at </text>
<text text-anchor="start" x="363.74" y="-401.2" font-family="Arial" font-size="14.00" fill="#666666">[timestamp with time zone]</text>
<polygon fill="none" stroke="black" points="286.7,-358.2 286.7,-389 585.62,-389 585.62,-358.2 286.7,-358.2"/>
<text text-anchor="start" x="293.7" y="-370.4" font-family="Arial" font-size="14.00">updated_at </text>
<text text-anchor="start" x="367.65" y="-370.4" font-family="Arial" font-size="14.00" fill="#666666">[timestamp with time zone]</text>
<polygon fill="none" stroke="black" stroke-width="3" points="285.2,-356.7 285.2,-610.9 587.12,-610.9 587.12,-356.7 285.2,-356.7"/>
</g>
<!-- public.vendor -->
<g id="node4" class="node">
<title>public.vendor</title>
<polygon fill="#efefef" stroke="none" points="309.32,-197.2 309.32,-232.8 563,-232.8 563,-197.2 309.32,-197.2"/>
<polygon fill="none" stroke="black" points="309.32,-197.2 309.32,-232.8 563,-232.8 563,-197.2 309.32,-197.2"/>
<text text-anchor="start" x="324.18" y="-210.6" font-family="Arial Bold" font-size="18.00">public.vendor</text>
<text text-anchor="start" x="423.65" y="-210.6" font-family="Arial" font-size="14.00">    </text>
<text text-anchor="start" x="454.77" y="-210.6" font-family="Arial" font-size="14.00" fill="#666666">[BASE TABLE]</text>
<polygon fill="none" stroke="black" points="309.32,-166.4 309.32,-197.2 563,-197.2 563,-166.4 309.32,-166.4"/>
<text text-anchor="start" x="316.32" y="-178.6" font-family="Arial" font-size="14.00">id </text>
<text text-anchor="start" x="331.1" y="-178.6" font-family="Arial" font-size="14.00" fill="#666666">[integer]</text>
<polygon fill="none" stroke="black" points="309.32,-135.6 309.32,-166.4 563,-166.4 563,-135.6 309.32,-135.6"/>
<text text-anchor="start" x="316.32" y="-147.8" font-family="Arial" font-size="14.00">name </text>
<text text-anchor="start" x="355.23" y="-147.8" font-family="Arial" font-size="14.00" fill="#666666">[varchar]</text>
<polygon fill="none" stroke="black" points="309.32,-104.8 309.32,-135.6 563,-135.6 563,-104.8 309.32,-104.8"/>
<text text-anchor="start" x="316.32" y="-117" font-family="Arial" font-size="14.00">created_by </text>
<text text-anchor="start" x="389.48" y="-117" font-family="Arial" font-size="14.00" fill="#666666">[integer]</text>
<polygon fill="none" stroke="black" points="309.32,-74 309.32,-104.8 563,-104.8 563,-74 309.32,-74"/>
<text text-anchor="start" x="316.32" y="-86.2" font-family="Arial" font-size="14.00">created_at </text>
<text text-anchor="start" x="386.37" y="-86.2" font-family="Arial" font-size="14.00" fill="#666666">[timestamp with time zone]</text>
<polygon fill="none" stroke="black" points="309.32,-43.2 309.32,-74 563,-74 563,-43.2 309.32,-43.2"/>
<text text-anchor="start" x="316.32" y="-55.4" font-family="Arial" font-size="14.00">updated_at </text>
<text text-anchor="start" x="390.28" y="-55.4" font-family="Arial" font-size="14.00" fill="#666666">[timestamp with time zone]</text>
</g>
<!-- public.purchase_order&#45;&gt;public.vendor -->
<g id="edge3" class="edge">
<title>public.purchase_order:vendor_id&#45;&gt;public.vendor:id</title>
<path fill="none" stroke="black" d="M597.03,-465.33C711.97,-450.13 687.12,-181.8 564,-181.8"/>
<polygon fill="black" stroke="black" points="596.93,-465.34 586.67,-461.49 591.61,-465.68 587.29,-465.96 587.29,-465.96 587.29,-465.96 591.61,-465.68 587.24,-470.47 596.93,-465.34"/>
<text text-anchor="start" x="593.62" y="-476" font-family="Arial" font-size="10.00">FOREIGN KEY (vendor_id) REFERENCES vendor(id)</text>
</g>
<!-- public.purchase_order_item -->
<g id="node2" class="node">
<title>public.purchase_order_item</title>
<polygon fill="#efefef" stroke="none" points="43.2,-1027.4 43.2,-1063 383.12,-1063 383.12,-1027.4 43.2,-1027.4"/>
<polygon fill="none" stroke="black" points="43.2,-1027.4 43.2,-1063 383.12,-1063 383.12,-1027.4 43.2,-1027.4"/>
<text text-anchor="start" x="50.2" y="-1040.8" font-family="Arial Bold" font-size="18.00">public.purchase_order_item</text>
<text text-anchor="start" x="251.63" y="-1040.8" font-family="Arial" font-size="14.00">    </text>
<text text-anchor="start" x="282.74" y="-1040.8" font-family="Arial" font-size="14.00" fill="#666666">[BASE TABLE]</text>
<polygon fill="none" stroke="black" points="43.2,-996.6 43.2,-1027.4 383.12,-1027.4 383.12,-996.6 43.2,-996.6"/>
<text text-anchor="start" x="50.2" y="-1008.8" font-family="Arial" font-size="14.00">id </text>
<text text-anchor="start" x="64.99" y="-1008.8" font-family="Arial" font-size="14.00" fill="#666666">[integer]</text>
<polygon fill="none" stroke="black" points="43.2,-965.8 43.2,-996.6 383.12,-996.6 383.12,-965.8 43.2,-965.8"/>
<text text-anchor="start" x="50.2" y="-978" font-family="Arial" font-size="14.00">purchase_order_id </text>
<text text-anchor="start" x="170.83" y="-978" font-family="Arial" font-size="14.00" fill="#666666">[integer]</text>
<polygon fill="none" stroke="black" points="43.2,-935 43.2,-965.8 383.12,-965.8 383.12,-935 43.2,-935"/>
<text text-anchor="start" x="50.2" y="-947.2" font-family="Arial" font-size="14.00">item_type </text>
<text text-anchor="start" x="114.79" y="-947.2" font-family="Arial" font-size="14.00" fill="#666666">[varchar]</text>
<polygon fill="none" stroke="black" points="43.2,-904.2 43.2,-935 383.12,-935 383.12,-904.2 43.2,-904.2"/>
<text text-anchor="start" x="50.2" y="-916.4" font-family="Arial" font-size="14.00">item_id </text>
<text text-anchor="start" x="99.22" y="-916.4" font-family="Arial" font-size="14.00" fill="#666666">[integer]</text>
<polygon fill="none" stroke="black" points="43.2,-873.4 43.2,-904.2 383.12,-904.2 383.12,-873.4 43.2,-873.4"/>
<text text-anchor="start" x="50.2" y="-885.6" font-family="Arial" font-size="14.00">quantity </text>
<text text-anchor="start" x="103.12" y="-885.6" font-family="Arial" font-size="14.00" fill="#666666">[integer]</text>
<polygon fill="none" stroke="black" points="43.2,-842.6 43.2,-873.4 383.12,-873.4 383.12,-842.6 43.2,-842.6"/>
<text text-anchor="start" x="50.2" y="-854.8" font-family="Arial" font-size="14.00">unit_price </text>
<text text-anchor="start" x="114.79" y="-854.8" font-family="Arial" font-size="14.00" fill="#666666">[bigint]</text>
<polygon fill="none" stroke="black" points="43.2,-811.8 43.2,-842.6 383.12,-842.6 383.12,-811.8 43.2,-811.8"/>
<text text-anchor="start" x="50.2" y="-824" font-family="Arial" font-size="14.00">created_at </text>
<text text-anchor="start" x="120.25" y="-824" font-family="Arial" font-size="14.00" fill="#666666">[timestamp with time zone]</text>
<polygon fill="none" stroke="black" points="43.2,-781 43.2,-811.8 383.12,-811.8 383.12,-781 43.2,-781"/>
<text text-anchor="start" x="50.2" y="-793.2" font-family="Arial" font-size="14.00">updated_at </text>
<text text-anchor="start" x="124.16" y="-793.2" font-family="Arial" font-size="14.00" fill="#666666">[timestamp with time zone]</text>
</g>
<!-- public.purchase_order_item&#45;&gt;public.purchase_order -->
<g id="edge1" class="edge">
<title>public.purchase_order_item:purchase_order_id&#45;&gt;public.purchase_order:id</title>
<path fill="none" stroke="black" d="M394.03,-978.58C433.83,-955.31 404.33,-783.51 383.12,-737.8 359.41,-686.72 310.56,-706.61 286.7,-655.6 268.39,-616.47 242.49,-558.4 285.7,-558.4"/>
<polygon fill="black" stroke="black" points="394.11,-978.56 383.29,-976.76 388.95,-979.92 384.76,-981.03 384.76,-981.03 384.76,-981.03 388.95,-979.92 385.59,-985.47 394.11,-978.56"/>
<text text-anchor="start" x="391.12" y="-991.2" font-family="Arial" font-size="10.00">FOREIGN KEY (purchase_order_id) REFERENCES purchase_order(id)</text>
</g>
<!-- public.maintenance_contract -->
<g id="node3" class="node">
<title>public.maintenance_contract</title>
<polygon fill="#efefef" stroke="none" points="487.21,-1073.6 487.21,-1109.2 833.11,-1109.2 833.11,-1073.6 487.21,-1073.6"/>
<polygon fill="none" stroke="black" points="487.21,-1073.6 487.21,-1109.2 833.11,-1109.2 833.11,-1073.6 487.21,-1073.6"/>
<text text-anchor="start" x="494.21" y="-1087" font-family="Arial Bold" font-size="18.00">public.maintenance_contract</text>
<text text-anchor="start" x="701.62" y="-1087" font-family="Arial" font-size="14.00">    </text>
<text text-anchor="start" x="732.73" y="-1087" font-family="Arial" font-size="14.00" fill="#666666">[BASE TABLE]</text>
<polygon fill="none" stroke="black" points="487.21,-1042.8 487.21,-1073.6 833.11,-1073.6 833.11,-1042.8 487.21,-1042.8"/>
<text text-anchor="start" x="494.21" y="-1055" font-family="Arial" font-size="14.00">id </text>
<text text-anchor="start" x="509" y="-1055" font-family="Arial" font-size="14.00" fill="#666666">[integer]</text>
<polygon fill="none" stroke="black" points="487.21,-1012 487.21,-1042.8 833.11,-1042.8 833.11,-1012 487.21,-1012"/>
<text text-anchor="start" x="494.21" y="-1024.2" font-family="Arial" font-size="14.00">contract_number </text>
<text text-anchor="start" x="603.16" y="-1024.2" font-family="Arial" font-size="14.00" fill="#666666">[varchar]</text>
<polygon fill="none" stroke="black" points="487.21,-981.2 487.21,-1012 833.11,-1012 833.11,-981.2 487.21,-981.2"/>
<text text-anchor="start" x="494.21" y="-993.4" font-family="Arial" font-size="14.00">vendor_id </text>
<text text-anchor="start" x="559.59" y="-993.4" font-family="Arial" font-size="14.00" fill="#666666">[integer]</text>
<polygon fill="none" stroke="black" points="487.21,-950.4 487.21,-981.2 833.11,-981.2 833.11,-950.4 487.21,-950.4"/>
<text text-anchor="start" x="494.21" y="-962.6" font-family="Arial" font-size="14.00">start_date </text>
<text text-anchor="start" x="560.36" y="-962.6" font-family="Arial" font-size="14.00" fill="#666666">[date]</text>
<polygon fill="none" stroke="black" points="487.21,-919.6 487.21,-950.4 833.11,-950.4 833.11,-919.6 487.21,-919.6"/>
<text text-anchor="start" x="494.21" y="-931.8" font-family="Arial" font-size="14.00">end_date </text>
<text text-anchor="start" x="556.49" y="-931.8" font-family="Arial" font-size="14.00" fill="#666666">[date]</text>
<polygon fill="none" stroke="black" points="487.21,-888.8 487.21,-919.6 833.11,-919.6 833.11,-888.8 487.21,-888.8"/>
<text text-anchor="start" x="494.21" y="-901" font-family="Arial" font-size="14.00">amount </text>
<text text-anchor="start" x="544.8" y="-901" font-family="Arial" font-size="14.00" fill="#666666">[bigint]</text>
<polygon fill="none" stroke="black" points="487.21,-858 487.21,-888.8 833.11,-888.8 833.11,-858 487.21,-858"/>
<text text-anchor="start" x="494.21" y="-870.2" font-family="Arial" font-size="14.00">quote_contact </text>
<text text-anchor="start" x="586.06" y="-870.2" font-family="Arial" font-size="14.00" fill="#666666">[varchar]</text>
<polygon fill="none" stroke="black" points="487.21,-827.2 487.21,-858 833.11,-858 833.11,-827.2 487.21,-827.2"/>
<text text-anchor="start" x="494.21" y="-839.4" font-family="Arial" font-size="14.00">failure_contact </text>
<text text-anchor="start" x="589.16" y="-839.4" font-family="Arial" font-size="14.00" fill="#666666">[varchar]</text>
<polygon fill="none" stroke="black" points="487.21,-796.4 487.21,-827.2 833.11,-827.2 833.11,-796.4 487.21,-796.4"/>
<text text-anchor="start" x="494.21" y="-808.6" font-family="Arial" font-size="14.00">purchase_order_id </text>
<text text-anchor="start" x="614.85" y="-808.6" font-family="Arial" font-size="14.00" fill="#666666">[integer]</text>
<polygon fill="none" stroke="black" points="487.21,-765.6 487.21,-796.4 833.11,-796.4 833.11,-765.6 487.21,-765.6"/>
<text text-anchor="start" x="494.21" y="-777.8" font-family="Arial" font-size="14.00">created_at </text>
<text text-anchor="start" x="564.26" y="-777.8" font-family="Arial" font-size="14.00" fill="#666666">[timestamp with time zone]</text>
<polygon fill="none" stroke="black" points="487.21,-734.8 487.21,-765.6 833.11,-765.6 833.11,-734.8 487.21,-734.8"/>
<text text-anchor="start" x="494.21" y="-747" font-family="Arial" font-size="14.00">updated_at </text>
<text text-anchor="start" x="568.17" y="-747" font-family="Arial" font-size="14.00" fill="#666666">[timestamp with time zone]</text>
</g>
<!-- public.maintenance_contract&#45;&gt;public.purchase_order -->
<g id="edge2" class="edge">
<title>public.maintenance_contract:purchase_order_id&#45;&gt;public.purchase_order:id</title>
<path fill="none" stroke="black" d="M476.06,-810.7C436.15,-801.2 458.59,-732.19 487.21,-691.6 514.05,-653.54 558.74,-693.63 585.62,-655.6 610.55,-620.32 629.82,-558.4 586.62,-558.4"/>
<polygon fill="black" stroke="black" points="475.94,-810.69 485.4,-816.24 481.24,-811.26 485.55,-811.73 485.55,-811.73 485.55,-811.73 481.24,-811.26 486.36,-807.29 475.94,-810.69"/>
<text text-anchor="start" x="493.21" y="-821.8" font-family="Arial" font-size="10.00">FOREIGN KEY (purchase_order_id) REFERENCES purchase_order(id)</text>
</g>
</g>
</svg>
