<?xml version="1.0" encoding="UTF-8" standalone="no"?>
<!DOCTYPE svg PUBLIC "-//W3C//DTD SVG 1.1//EN"
 "http://www.w3.org/Graphics/SVG/1.1/DTD/svg11.dtd">
<!-- Generated by graphviz version 12.1.2 (20240928.0832)
 -->
<!-- Title: public.part_instance Pages: 1 -->
<svg width="1620pt" height="1561pt"
 viewBox="0.00 0.00 1619.84 1560.80" xmlns="http://www.w3.org/2000/svg" xmlns:xlink="http://www.w3.org/1999/xlink">
<g id="graph0" class="graph" transform="scale(1 1) rotate(0) translate(4 1556.8)">
<title>public.part_instance</title>
<polygon fill="white" stroke="none" points="-4,4 -4,-1556.8 1615.84,-1556.8 1615.84,4 -4,4"/>
<!-- public.part_instance -->
<g id="node1" class="node">
<title>public.part_instance</title>
<polygon fill="#efefef" stroke="none" points="693.69,-727.8 693.69,-763.4 977.63,-763.4 977.63,-727.8 693.69,-727.8"/>
<polygon fill="none" stroke="black" points="693.69,-727.8 693.69,-763.4 977.63,-763.4 977.63,-727.8 693.69,-727.8"/>
<text text-anchor="start" x="700.69" y="-741.2" font-family="Arial Bold" font-size="18.00">public.part_instance</text>
<text text-anchor="start" x="846.14" y="-741.2" font-family="Arial" font-size="14.00">    </text>
<text text-anchor="start" x="877.26" y="-741.2" font-family="Arial" font-size="14.00" fill="#666666">[BASE TABLE]</text>
<polygon fill="none" stroke="black" points="693.69,-697 693.69,-727.8 977.63,-727.8 977.63,-697 693.69,-697"/>
<text text-anchor="start" x="700.69" y="-709.2" font-family="Arial" font-size="14.00">id </text>
<text text-anchor="start" x="715.48" y="-709.2" font-family="Arial" font-size="14.00" fill="#666666">[integer]</text>
<polygon fill="none" stroke="black" points="693.69,-666.2 693.69,-697 977.63,-697 977.63,-666.2 693.69,-666.2"/>
<text text-anchor="start" x="700.69" y="-678.4" font-family="Arial" font-size="14.00">part_catalog_id </text>
<text text-anchor="start" x="800.32" y="-678.4" font-family="Arial" font-size="14.00" fill="#666666">[integer]</text>
<polygon fill="none" stroke="black" points="693.69,-635.4 693.69,-666.2 977.63,-666.2 977.63,-635.4 693.69,-635.4"/>
<text text-anchor="start" x="700.69" y="-647.6" font-family="Arial" font-size="14.00">serial_number </text>
<text text-anchor="start" x="793.29" y="-647.6" font-family="Arial" font-size="14.00" fill="#666666">[varchar]</text>
<polygon fill="none" stroke="black" points="693.69,-604.6 693.69,-635.4 977.63,-635.4 977.63,-604.6 693.69,-604.6"/>
<text text-anchor="start" x="700.69" y="-616.8" font-family="Arial" font-size="14.00">status </text>
<text text-anchor="start" x="741.93" y="-616.8" font-family="Arial" font-size="14.00" fill="#666666">[varchar]</text>
<polygon fill="none" stroke="black" points="693.69,-573.8 693.69,-604.6 977.63,-604.6 977.63,-573.8 693.69,-573.8"/>
<text text-anchor="start" x="700.69" y="-586" font-family="Arial" font-size="14.00">created_at </text>
<text text-anchor="start" x="770.74" y="-586" font-family="Arial" font-size="14.00" fill="#666666">[timestamp with time zone]</text>
<polygon fill="none" stroke="black" points="693.69,-543 693.69,-573.8 977.63,-573.8 977.63,-543 693.69,-543"/>
<text text-anchor="start" x="700.69" y="-555.2" font-family="Arial" font-size="14.00">updated_at </text>
<text text-anchor="start" x="774.65" y="-555.2" font-family="Arial" font-size="14.00" fill="#666666">[timestamp with time zone]</text>
<polygon fill="none" stroke="black" stroke-width="3" points="692.19,-541.5 692.19,-764.9 979.13,-764.9 979.13,-541.5 692.19,-541.5"/>
</g>
<!-- public.part_catalog -->
<g id="node6" class="node">
<title>public.part_catalog</title>
<polygon fill="#efefef" stroke="none" points="697.19,-382 697.19,-417.6 974.13,-417.6 974.13,-382 697.19,-382"/>
<polygon fill="none" stroke="black" points="697.19,-382 697.19,-417.6 974.13,-417.6 974.13,-382 697.19,-382"/>
<text text-anchor="start" x="704.19" y="-395.4" font-family="Arial Bold" font-size="18.00">public.part_catalog</text>
<text text-anchor="start" x="842.64" y="-395.4" font-family="Arial" font-size="14.00">    </text>
<text text-anchor="start" x="873.76" y="-395.4" font-family="Arial" font-size="14.00" fill="#666666">[BASE TABLE]</text>
<polygon fill="none" stroke="black" points="697.19,-351.2 697.19,-382 974.13,-382 974.13,-351.2 697.19,-351.2"/>
<text text-anchor="start" x="704.19" y="-363.4" font-family="Arial" font-size="14.00">id </text>
<text text-anchor="start" x="718.98" y="-363.4" font-family="Arial" font-size="14.00" fill="#666666">[integer]</text>
<polygon fill="none" stroke="black" points="697.19,-320.4 697.19,-351.2 974.13,-351.2 974.13,-320.4 697.19,-320.4"/>
<text text-anchor="start" x="704.19" y="-332.6" font-family="Arial" font-size="14.00">category </text>
<text text-anchor="start" x="761.78" y="-332.6" font-family="Arial" font-size="14.00" fill="#666666">[varchar]</text>
<polygon fill="none" stroke="black" points="697.19,-289.6 697.19,-320.4 974.13,-320.4 974.13,-289.6 697.19,-289.6"/>
<text text-anchor="start" x="704.19" y="-301.8" font-family="Arial" font-size="14.00">vendor_id </text>
<text text-anchor="start" x="769.57" y="-301.8" font-family="Arial" font-size="14.00" fill="#666666">[integer]</text>
<polygon fill="none" stroke="black" points="697.19,-258.8 697.19,-289.6 974.13,-289.6 974.13,-258.8 697.19,-258.8"/>
<text text-anchor="start" x="704.19" y="-271" font-family="Arial" font-size="14.00">part_number </text>
<text text-anchor="start" x="787.46" y="-271" font-family="Arial" font-size="14.00" fill="#666666">[varchar]</text>
<polygon fill="none" stroke="black" points="697.19,-228 697.19,-258.8 974.13,-258.8 974.13,-228 697.19,-228"/>
<text text-anchor="start" x="704.19" y="-240.2" font-family="Arial" font-size="14.00">core_count </text>
<text text-anchor="start" x="777.35" y="-240.2" font-family="Arial" font-size="14.00" fill="#666666">[integer]</text>
<polygon fill="none" stroke="black" points="697.19,-197.2 697.19,-228 974.13,-228 974.13,-197.2 697.19,-197.2"/>
<text text-anchor="start" x="704.19" y="-209.4" font-family="Arial" font-size="14.00">capacity_gb </text>
<text text-anchor="start" x="782.8" y="-209.4" font-family="Arial" font-size="14.00" fill="#666666">[integer]</text>
<polygon fill="none" stroke="black" points="697.19,-166.4 697.19,-197.2 974.13,-197.2 974.13,-166.4 697.19,-166.4"/>
<text text-anchor="start" x="704.19" y="-178.6" font-family="Arial" font-size="14.00">spec_json </text>
<text text-anchor="start" x="771.12" y="-178.6" font-family="Arial" font-size="14.00" fill="#666666">[text]</text>
<polygon fill="none" stroke="black" points="697.19,-135.6 697.19,-166.4 974.13,-166.4 974.13,-135.6 697.19,-135.6"/>
<text text-anchor="start" x="704.19" y="-147.8" font-family="Arial" font-size="14.00">created_by </text>
<text text-anchor="start" x="777.35" y="-147.8" font-family="Arial" font-size="14.00" fill="#666666">[integer]</text>
<polygon fill="none" stroke="black" points="697.19,-104.8 697.19,-135.6 974.13,-135.6 974.13,-104.8 697.19,-104.8"/>
<text text-anchor="start" x="704.19" y="-117" font-family="Arial" font-size="14.00">created_at </text>
<text text-anchor="start" x="774.24" y="-117" font-family="Arial" font-size="14.00" fill="#666666">[timestamp with time zone]</text>
<polygon fill="none" stroke="black" points="697.19,-74 697.19,-104.8 974.13,-104.8 974.13,-74 697.19,-74"/>
<text text-anchor="start" x="704.19" y="-86.2" font-family="Arial" font-size="14.00">updated_at </text>
<text text-anchor="start" x="778.15" y="-86.2" font-family="Arial" font-size="14.00" fill="#666666">[timestamp with time zone]</text>
<polygon fill="none" stroke="black" points="697.19,-43.2 697.19,-74 974.13,-74 974.13,-43.2 697.19,-43.2"/>
<text text-anchor="start" x="704.19" y="-55.4" font-family="Arial" font-size="14.00">retired_at </text>
<text text-anchor="start" x="767.23" y="-55.4" font-family="Arial" font-size="14.00" fill="#666666">[timestamp with time zone]</text>
</g>
<!-- public.part_instance&#45;&gt;public.part_catalog -->
<g id="edge5" class="edge">
<title>public.part_instance:part_catalog_id&#45;&gt;public.part_catalog:id</title>
<path fill="none" stroke="black" d="M989.02,-681C1118.37,-665.81 1111.58,-366.6 975.13,-366.6"/>
<polygon fill="black" stroke="black" points="988.95,-681.01 978.71,-677.09 983.62,-681.31 979.3,-681.56 979.3,-681.56 979.3,-681.56 983.62,-681.31 979.22,-686.07 988.95,-681.01"/>
<text text-anchor="start" x="985.63" y="-691.6" font-family="Arial" font-size="10.00">FOREIGN KEY (part_catalog_id) REFERENCES part_catalog(id)</text>
</g>
<!-- public.part_instance_location -->
<g id="node2" class="node">
<title>public.part_instance_location</title>
<polygon fill="#efefef" stroke="none" points="43.2,-1304.6 43.2,-1340.2 394.12,-1340.2 394.12,-1304.6 43.2,-1304.6"/>
<polygon fill="none" stroke="black" points="43.2,-1304.6 43.2,-1340.2 394.12,-1340.2 394.12,-1304.6 43.2,-1304.6"/>
<text text-anchor="start" x="50.2" y="-1318" font-family="Arial Bold" font-size="18.00">public.part_instance_location</text>
<text text-anchor="start" x="262.63" y="-1318" font-family="Arial" font-size="14.00">    </text>
<text text-anchor="start" x="293.75" y="-1318" font-family="Arial" font-size="14.00" fill="#666666">[BASE TABLE]</text>
<polygon fill="none" stroke="black" points="43.2,-1273.8 43.2,-1304.6 394.12,-1304.6 394.12,-1273.8 43.2,-1273.8"/>
<text text-anchor="start" x="50.2" y="-1286" font-family="Arial" font-size="14.00">id </text>
<text text-anchor="start" x="64.99" y="-1286" font-family="Arial" font-size="14.00" fill="#666666">[integer]</text>
<polygon fill="none" stroke="black" points="43.2,-1243 43.2,-1273.8 394.12,-1273.8 394.12,-1243 43.2,-1243"/>
<text text-anchor="start" x="50.2" y="-1255.2" font-family="Arial" font-size="14.00">part_instance_id </text>
<text text-anchor="start" x="156.83" y="-1255.2" font-family="Arial" font-size="14.00" fill="#666666">[integer]</text>
<polygon fill="none" stroke="black" points="43.2,-1212.2 43.2,-1243 394.12,-1243 394.12,-1212.2 43.2,-1212.2"/>
<text text-anchor="start" x="50.2" y="-1224.4" font-family="Arial" font-size="14.00">location_type </text>
<text text-anchor="start" x="136.59" y="-1224.4" font-family="Arial" font-size="14.00" fill="#666666">[varchar]</text>
<polygon fill="none" stroke="black" points="43.2,-1181.4 43.2,-1212.2 394.12,-1212.2 394.12,-1181.4 43.2,-1181.4"/>
<text text-anchor="start" x="50.2" y="-1193.6" font-family="Arial" font-size="14.00">location_id </text>
<text text-anchor="start" x="121.03" y="-1193.6" font-family="Arial" font-size="14.00" fill="#666666">[integer]</text>
<polygon fill="none" stroke="black" points="43.2,-1150.6 43.2,-1181.4 394.12,-1181.4 394.12,-1150.6 43.2,-1150.6"/>
<text text-anchor="start" x="50.2" y="-1162.8" font-family="Arial" font-size="14.00">chassis_slot_id </text>
<text text-anchor="start" x="149.03" y="-1162.8" font-family="Arial" font-size="14.00" fill="#666666">[integer]</text>
<polygon fill="none" stroke="black" points="43.2,-1119.8 43.2,-1150.6 394.12,-1150.6 394.12,-1119.8 43.2,-1119.8"/>
<text text-anchor="start" x="50.2" y="-1132" font-family="Arial" font-size="14.00">work_order_id </text>
<text text-anchor="start" x="142.8" y="-1132" font-family="Arial" font-size="14.00" fill="#666666">[integer]</text>
<polygon fill="none" stroke="black" points="43.2,-1089 43.2,-1119.8 394.12,-1119.8 394.12,-1089 43.2,-1089"/>
<text text-anchor="start" x="50.2" y="-1101.2" font-family="Arial" font-size="14.00">from_date </text>
<text text-anchor="start" x="117.12" y="-1101.2" font-family="Arial" font-size="14.00" fill="#666666">[timestamp with time zone]</text>
<polygon fill="none" stroke="black" points="43.2,-1058.2 43.2,-1089 394.12,-1089 394.12,-1058.2 43.2,-1058.2"/>
<text text-anchor="start" x="50.2" y="-1070.4" font-family="Arial" font-size="14.00">to_date </text>
<text text-anchor="start" x="100.8" y="-1070.4" font-family="Arial" font-size="14.00" fill="#666666">[timestamp with time zone]</text>
</g>
<!-- public.part_instance_location&#45;&gt;public.part_instance -->
<g id="edge1" class="edge">
<title>public.part_instance_location:part_instance_id&#45;&gt;public.part_instance:id</title>
<path fill="none" stroke="black" d="M405.12,-1256.9C480.52,-1232.51 396.55,-918.95 446.66,-845.6 516.81,-742.93 568.35,-712.4 692.69,-712.4"/>
<polygon fill="black" stroke="black" points="405.34,-1256.86 394.78,-1253.9 400.07,-1257.66 395.78,-1258.3 395.78,-1258.3 395.78,-1258.3 400.07,-1257.66 396.12,-1262.8 405.34,-1256.86"/>
<text text-anchor="start" x="245.35" y="-1242.4" font-family="Arial" font-size="10.00">FOREIGN KEY (part_instance_id) REFERENCES part_instance(id)</text>
</g>
<!-- public.os_interface -->
<g id="node3" class="node">
<title>public.os_interface</title>
<polygon fill="#efefef" stroke="none" points="498.69,-1335.4 498.69,-1371 774.63,-1371 774.63,-1335.4 498.69,-1335.4"/>
<polygon fill="none" stroke="black" points="498.69,-1335.4 498.69,-1371 774.63,-1371 774.63,-1335.4 498.69,-1335.4"/>
<text text-anchor="start" x="505.69" y="-1348.8" font-family="Arial Bold" font-size="18.00">public.os_interface</text>
<text text-anchor="start" x="643.14" y="-1348.8" font-family="Arial" font-size="14.00">    </text>
<text text-anchor="start" x="674.25" y="-1348.8" font-family="Arial" font-size="14.00" fill="#666666">[BASE TABLE]</text>
<polygon fill="none" stroke="black" points="498.69,-1304.6 498.69,-1335.4 774.63,-1335.4 774.63,-1304.6 498.69,-1304.6"/>
<text text-anchor="start" x="505.69" y="-1316.8" font-family="Arial" font-size="14.00">id </text>
<text text-anchor="start" x="520.48" y="-1316.8" font-family="Arial" font-size="14.00" fill="#666666">[integer]</text>
<polygon fill="none" stroke="black" points="498.69,-1273.8 498.69,-1304.6 774.63,-1304.6 774.63,-1273.8 498.69,-1273.8"/>
<text text-anchor="start" x="505.69" y="-1286" font-family="Arial" font-size="14.00">device_id </text>
<text text-anchor="start" x="568.74" y="-1286" font-family="Arial" font-size="14.00" fill="#666666">[integer]</text>
<polygon fill="none" stroke="black" points="498.69,-1243 498.69,-1273.8 774.63,-1273.8 774.63,-1243 498.69,-1243"/>
<text text-anchor="start" x="505.69" y="-1255.2" font-family="Arial" font-size="14.00">interface_type </text>
<text text-anchor="start" x="597.53" y="-1255.2" font-family="Arial" font-size="14.00" fill="#666666">[varchar]</text>
<polygon fill="none" stroke="black" points="498.69,-1212.2 498.69,-1243 774.63,-1243 774.63,-1212.2 498.69,-1212.2"/>
<text text-anchor="start" x="505.69" y="-1224.4" font-family="Arial" font-size="14.00">part_instance_id </text>
<text text-anchor="start" x="612.32" y="-1224.4" font-family="Arial" font-size="14.00" fill="#666666">[integer]</text>
<polygon fill="none" stroke="black" points="498.69,-1181.4 498.69,-1212.2 774.63,-1212.2 774.63,-1181.4 498.69,-1181.4"/>
<text text-anchor="start" x="505.69" y="-1193.6" font-family="Arial" font-size="14.00">port_slot_id </text>
<text text-anchor="start" x="581.96" y="-1193.6" font-family="Arial" font-size="14.00" fill="#666666">[integer]</text>
<polygon fill="none" stroke="black" points="498.69,-1150.6 498.69,-1181.4 774.63,-1181.4 774.63,-1150.6 498.69,-1150.6"/>
<text text-anchor="start" x="505.69" y="-1162.8" font-family="Arial" font-size="14.00">os_interface_name </text>
<text text-anchor="start" x="628.66" y="-1162.8" font-family="Arial" font-size="14.00" fill="#666666">[varchar]</text>
<polygon fill="none" stroke="black" points="498.69,-1119.8 498.69,-1150.6 774.63,-1150.6 774.63,-1119.8 498.69,-1119.8"/>
<text text-anchor="start" x="505.69" y="-1132" font-family="Arial" font-size="14.00">aggregation_mode </text>
<text text-anchor="start" x="626.34" y="-1132" font-family="Arial" font-size="14.00" fill="#666666">[varchar]</text>
<polygon fill="none" stroke="black" points="498.69,-1089 498.69,-1119.8 774.63,-1119.8 774.63,-1089 498.69,-1089"/>
<text text-anchor="start" x="505.69" y="-1101.2" font-family="Arial" font-size="14.00">work_order_id </text>
<text text-anchor="start" x="598.29" y="-1101.2" font-family="Arial" font-size="14.00" fill="#666666">[integer]</text>
<polygon fill="none" stroke="black" points="498.69,-1058.2 498.69,-1089 774.63,-1089 774.63,-1058.2 498.69,-1058.2"/>
<text text-anchor="start" x="505.69" y="-1070.4" font-family="Arial" font-size="14.00">from_date </text>
<text text-anchor="start" x="572.62" y="-1070.4" font-family="Arial" font-size="14.00" fill="#666666">[timestamp with time zone]</text>
<polygon fill="none" stroke="black" points="498.69,-1027.4 498.69,-1058.2 774.63,-1058.2 774.63,-1027.4 498.69,-1027.4"/>
<text text-anchor="start" x="505.69" y="-1039.6" font-family="Arial" font-size="14.00">to_date </text>
<text text-anchor="start" x="556.29" y="-1039.6" font-family="Arial" font-size="14.00" fill="#666666">[timestamp with time zone]</text>
</g>
<!-- public.os_interface&#45;&gt;public.part_instance -->
<g id="edge2" class="edge">
<title>public.os_interface:part_instance_id&#45;&gt;public.part_instance:id</title>
<path fill="none" stroke="black" d="M785.64,-1224.89C823.78,-1201.48 785.56,-1033.28 774.63,-984.2 756.04,-900.71 712.54,-893.03 693.69,-809.6 684.17,-767.46 649.49,-712.4 692.69,-712.4"/>
<polygon fill="black" stroke="black" points="785.6,-1224.9 774.77,-1223.17 780.45,-1226.29 776.27,-1227.43 776.27,-1227.43 776.27,-1227.43 780.45,-1226.29 777.13,-1231.86 785.6,-1224.9"/>
<text text-anchor="start" x="782.63" y="-1237.6" font-family="Arial" font-size="10.00">FOREIGN KEY (part_instance_id) REFERENCES part_instance(id)</text>
</g>
<!-- public.cable_connection -->
<g id="node4" class="node">
<title>public.cable_connection</title>
<polygon fill="#efefef" stroke="none" points="878.7,-1304.6 878.7,-1340.2 1192.62,-1340.2 1192.62,-1304.6 878.7,-1304.6"/>
<polygon fill="none" stroke="black" points="878.7,-1304.6 878.7,-1340.2 1192.62,-1340.2 1192.62,-1304.6 878.7,-1304.6"/>
<text text-anchor="start" x="885.7" y="-1318" font-family="Arial Bold" font-size="18.00">public.cable_connection</text>
<text text-anchor="start" x="1061.13" y="-1318" font-family="Arial" font-size="14.00">    </text>
<text text-anchor="start" x="1092.25" y="-1318" font-family="Arial" font-size="14.00" fill="#666666">[BASE TABLE]</text>
<polygon fill="none" stroke="black" points="878.7,-1273.8 878.7,-1304.6 1192.62,-1304.6 1192.62,-1273.8 878.7,-1273.8"/>
<text text-anchor="start" x="885.7" y="-1286" font-family="Arial" font-size="14.00">id </text>
<text text-anchor="start" x="900.49" y="-1286" font-family="Arial" font-size="14.00" fill="#666666">[integer]</text>
<polygon fill="none" stroke="black" points="878.7,-1243 878.7,-1273.8 1192.62,-1273.8 1192.62,-1243 878.7,-1243"/>
<text text-anchor="start" x="885.7" y="-1255.2" font-family="Arial" font-size="14.00">cable_instance_id </text>
<text text-anchor="start" x="1001.67" y="-1255.2" font-family="Arial" font-size="14.00" fill="#666666">[integer]</text>
<polygon fill="none" stroke="black" points="878.7,-1212.2 878.7,-1243 1192.62,-1243 1192.62,-1212.2 878.7,-1212.2"/>
<text text-anchor="start" x="885.7" y="-1224.4" font-family="Arial" font-size="14.00">cable_end_slot_id </text>
<text text-anchor="start" x="1002.46" y="-1224.4" font-family="Arial" font-size="14.00" fill="#666666">[integer]</text>
<polygon fill="none" stroke="black" points="878.7,-1181.4 878.7,-1212.2 1192.62,-1212.2 1192.62,-1181.4 878.7,-1181.4"/>
<text text-anchor="start" x="885.7" y="-1193.6" font-family="Arial" font-size="14.00">part_instance_id </text>
<text text-anchor="start" x="992.33" y="-1193.6" font-family="Arial" font-size="14.00" fill="#666666">[integer]</text>
<polygon fill="none" stroke="black" points="878.7,-1150.6 878.7,-1181.4 1192.62,-1181.4 1192.62,-1150.6 878.7,-1150.6"/>
<text text-anchor="start" x="885.7" y="-1162.8" font-family="Arial" font-size="14.00">port_slot_id </text>
<text text-anchor="start" x="961.97" y="-1162.8" font-family="Arial" font-size="14.00" fill="#666666">[integer]</text>
<polygon fill="none" stroke="black" points="878.7,-1119.8 878.7,-1150.6 1192.62,-1150.6 1192.62,-1119.8 878.7,-1119.8"/>
<text text-anchor="start" x="885.7" y="-1132" font-family="Arial" font-size="14.00">work_order_id </text>
<text text-anchor="start" x="978.3" y="-1132" font-family="Arial" font-size="14.00" fill="#666666">[integer]</text>
<polygon fill="none" stroke="black" points="878.7,-1089 878.7,-1119.8 1192.62,-1119.8 1192.62,-1089 878.7,-1089"/>
<text text-anchor="start" x="885.7" y="-1101.2" font-family="Arial" font-size="14.00">from_date </text>
<text text-anchor="start" x="952.62" y="-1101.2" font-family="Arial" font-size="14.00" fill="#666666">[timestamp with time zone]</text>
<polygon fill="none" stroke="black" points="878.7,-1058.2 878.7,-1089 1192.62,-1089 1192.62,-1058.2 878.7,-1058.2"/>
<text text-anchor="start" x="885.7" y="-1070.4" font-family="Arial" font-size="14.00">to_date </text>
<text text-anchor="start" x="936.3" y="-1070.4" font-family="Arial" font-size="14.00" fill="#666666">[timestamp with time zone]</text>
</g>
<!-- public.cable_connection&#45;&gt;public.part_instance -->
<g id="edge3" class="edge">
<title>public.cable_connection:part_instance_id&#45;&gt;public.part_instance:id</title>
<path fill="none" stroke="black" d="M867.6,-1196.27C741.69,-1182.14 958.4,-891.91 977.63,-809.6 987.46,-767.53 1021.83,-712.4 978.63,-712.4"/>
<polygon fill="black" stroke="black" points="867.38,-1196.25 877.13,-1201.28 872.71,-1196.54 877.03,-1196.76 877.03,-1196.76 877.03,-1196.76 872.71,-1196.54 877.6,-1192.29 867.38,-1196.25"/>
<text text-anchor="start" x="884.7" y="-1206.8" font-family="Arial" font-size="10.00">FOREIGN KEY (part_instance_id) REFERENCES part_instance(id)</text>
</g>
<!-- public.work_order -->
<g id="node5" class="node">
<title>public.work_order</title>
<polygon fill="#efefef" stroke="none" points="1296.68,-1474 1296.68,-1509.6 1568.64,-1509.6 1568.64,-1474 1296.68,-1474"/>
<polygon fill="none" stroke="black" points="1296.68,-1474 1296.68,-1509.6 1568.64,-1509.6 1568.64,-1474 1296.68,-1474"/>
<text text-anchor="start" x="1303.68" y="-1487.4" font-family="Arial Bold" font-size="18.00">public.work_order</text>
<text text-anchor="start" x="1437.15" y="-1487.4" font-family="Arial" font-size="14.00">    </text>
<text text-anchor="start" x="1468.26" y="-1487.4" font-family="Arial" font-size="14.00" fill="#666666">[BASE TABLE]</text>
<polygon fill="none" stroke="black" points="1296.68,-1443.2 1296.68,-1474 1568.64,-1474 1568.64,-1443.2 1296.68,-1443.2"/>
<text text-anchor="start" x="1303.68" y="-1455.4" font-family="Arial" font-size="14.00">id </text>
<text text-anchor="start" x="1318.47" y="-1455.4" font-family="Arial" font-size="14.00" fill="#666666">[integer]</text>
<polygon fill="none" stroke="black" points="1296.68,-1412.4 1296.68,-1443.2 1568.64,-1443.2 1568.64,-1412.4 1296.68,-1412.4"/>
<text text-anchor="start" x="1303.68" y="-1424.6" font-family="Arial" font-size="14.00">project_id </text>
<text text-anchor="start" x="1368.28" y="-1424.6" font-family="Arial" font-size="14.00" fill="#666666">[integer]</text>
<polygon fill="none" stroke="black" points="1296.68,-1381.6 1296.68,-1412.4 1568.64,-1412.4 1568.64,-1381.6 1296.68,-1381.6"/>
<text text-anchor="start" x="1303.68" y="-1393.8" font-family="Arial" font-size="14.00">target_project_id </text>
<text text-anchor="start" x="1411.86" y="-1393.8" font-family="Arial" font-size="14.00" fill="#666666">[integer]</text>
<polygon fill="none" stroke="black" points="1296.68,-1350.8 1296.68,-1381.6 1568.64,-1381.6 1568.64,-1350.8 1296.68,-1350.8"/>
<text text-anchor="start" x="1303.68" y="-1363" font-family="Arial" font-size="14.00">device_id </text>
<text text-anchor="start" x="1366.73" y="-1363" font-family="Arial" font-size="14.00" fill="#666666">[integer]</text>
<polygon fill="none" stroke="black" points="1296.68,-1320 1296.68,-1350.8 1568.64,-1350.8 1568.64,-1320 1296.68,-1320"/>
<text text-anchor="start" x="1303.68" y="-1332.2" font-family="Arial" font-size="14.00">part_instance_id </text>
<text text-anchor="start" x="1410.31" y="-1332.2" font-family="Arial" font-size="14.00" fill="#666666">[integer]</text>
<polygon fill="none" stroke="black" points="1296.68,-1289.2 1296.68,-1320 1568.64,-1320 1568.64,-1289.2 1296.68,-1289.2"/>
<text text-anchor="start" x="1303.68" y="-1301.4" font-family="Arial" font-size="14.00">work_type </text>
<text text-anchor="start" x="1371.38" y="-1301.4" font-family="Arial" font-size="14.00" fill="#666666">[varchar]</text>
<polygon fill="none" stroke="black" points="1296.68,-1258.4 1296.68,-1289.2 1568.64,-1289.2 1568.64,-1258.4 1296.68,-1258.4"/>
<text text-anchor="start" x="1303.68" y="-1270.6" font-family="Arial" font-size="14.00">title </text>
<text text-anchor="start" x="1329.36" y="-1270.6" font-family="Arial" font-size="14.00" fill="#666666">[varchar]</text>
<polygon fill="none" stroke="black" points="1296.68,-1227.6 1296.68,-1258.4 1568.64,-1258.4 1568.64,-1227.6 1296.68,-1227.6"/>
<text text-anchor="start" x="1303.68" y="-1239.8" font-family="Arial" font-size="14.00">description </text>
<text text-anchor="start" x="1375.28" y="-1239.8" font-family="Arial" font-size="14.00" fill="#666666">[text]</text>
<polygon fill="none" stroke="black" points="1296.68,-1196.8 1296.68,-1227.6 1568.64,-1227.6 1568.64,-1196.8 1296.68,-1196.8"/>
<text text-anchor="start" x="1303.68" y="-1209" font-family="Arial" font-size="14.00">primary_assignee_id </text>
<text text-anchor="start" x="1436.75" y="-1209" font-family="Arial" font-size="14.00" fill="#666666">[integer]</text>
<polygon fill="none" stroke="black" points="1296.68,-1166 1296.68,-1196.8 1568.64,-1196.8 1568.64,-1166 1296.68,-1166"/>
<text text-anchor="start" x="1303.68" y="-1178.2" font-family="Arial" font-size="14.00">secondary_assignee_id </text>
<text text-anchor="start" x="1454.68" y="-1178.2" font-family="Arial" font-size="14.00" fill="#666666">[integer]</text>
<polygon fill="none" stroke="black" points="1296.68,-1135.2 1296.68,-1166 1568.64,-1166 1568.64,-1135.2 1296.68,-1135.2"/>
<text text-anchor="start" x="1303.68" y="-1147.4" font-family="Arial" font-size="14.00">due_date </text>
<text text-anchor="start" x="1365.97" y="-1147.4" font-family="Arial" font-size="14.00" fill="#666666">[date]</text>
<polygon fill="none" stroke="black" points="1296.68,-1104.4 1296.68,-1135.2 1568.64,-1135.2 1568.64,-1104.4 1296.68,-1104.4"/>
<text text-anchor="start" x="1303.68" y="-1116.6" font-family="Arial" font-size="14.00">status </text>
<text text-anchor="start" x="1344.93" y="-1116.6" font-family="Arial" font-size="14.00" fill="#666666">[varchar]</text>
<polygon fill="none" stroke="black" points="1296.68,-1073.6 1296.68,-1104.4 1568.64,-1104.4 1568.64,-1073.6 1296.68,-1073.6"/>
<text text-anchor="start" x="1303.68" y="-1085.8" font-family="Arial" font-size="14.00">planned_at </text>
<text text-anchor="start" x="1376.86" y="-1085.8" font-family="Arial" font-size="14.00" fill="#666666">[timestamp with time zone]</text>
<polygon fill="none" stroke="black" points="1296.68,-1042.8 1296.68,-1073.6 1568.64,-1073.6 1568.64,-1042.8 1296.68,-1042.8"/>
<text text-anchor="start" x="1303.68" y="-1055" font-family="Arial" font-size="14.00">executed_at </text>
<text text-anchor="start" x="1383.86" y="-1055" font-family="Arial" font-size="14.00" fill="#666666">[timestamp with time zone]</text>
<polygon fill="none" stroke="black" points="1296.68,-1012 1296.68,-1042.8 1568.64,-1042.8 1568.64,-1012 1296.68,-1012"/>
<text text-anchor="start" x="1303.68" y="-1024.2" font-family="Arial" font-size="14.00">completed_at </text>
<text text-anchor="start" x="1391.63" y="-1024.2" font-family="Arial" font-size="14.00" fill="#666666">[timestamp with time zone]</text>
<polygon fill="none" stroke="black" points="1296.68,-981.2 1296.68,-1012 1568.64,-1012 1568.64,-981.2 1296.68,-981.2"/>
<text text-anchor="start" x="1303.68" y="-993.4" font-family="Arial" font-size="14.00">aborted_at </text>
<text text-anchor="start" x="1374.52" y="-993.4" font-family="Arial" font-size="14.00" fill="#666666">[timestamp with time zone]</text>
<polygon fill="none" stroke="black" points="1296.68,-950.4 1296.68,-981.2 1568.64,-981.2 1568.64,-950.4 1296.68,-950.4"/>
<text text-anchor="start" x="1303.68" y="-962.6" font-family="Arial" font-size="14.00">aborted_reason </text>
<text text-anchor="start" x="1405.65" y="-962.6" font-family="Arial" font-size="14.00" fill="#666666">[text]</text>
<polygon fill="none" stroke="black" points="1296.68,-919.6 1296.68,-950.4 1568.64,-950.4 1568.64,-919.6 1296.68,-919.6"/>
<text text-anchor="start" x="1303.68" y="-931.8" font-family="Arial" font-size="14.00">created_at </text>
<text text-anchor="start" x="1373.73" y="-931.8" font-family="Arial" font-size="14.00" fill="#666666">[timestamp with time zone]</text>
<polygon fill="none" stroke="black" points="1296.68,-888.8 1296.68,-919.6 1568.64,-919.6 1568.64,-888.8 1296.68,-888.8"/>
<text text-anchor="start" x="1303.68" y="-901" font-family="Arial" font-size="14.00">updated_at </text>
<text text-anchor="start" x="1377.64" y="-901" font-family="Arial" font-size="14.00" fill="#666666">[timestamp with time zone]</text>
</g>
<!-- public.work_order&#45;&gt;public.part_instance -->
<g id="edge4" class="edge">
<title>public.work_order:part_instance_id&#45;&gt;public.part_instance:id</title>
<path fill="none" stroke="black" d="M1285.53,-1334.1C1194.06,-1309.19 1304.85,-932.61 1244.66,-845.6 1169.43,-736.86 1110.86,-712.4 978.63,-712.4"/>
<polygon fill="black" stroke="black" points="1285.43,-1334.09 1294.78,-1339.82 1290.73,-1334.77 1295.02,-1335.32 1295.02,-1335.32 1295.02,-1335.32 1290.73,-1334.77 1295.92,-1330.89 1285.43,-1334.09"/>
<text text-anchor="start" x="989.13" y="-1345.4" font-family="Arial" font-size="10.00">FOREIGN KEY (part_instance_id) REFERENCES part_instance(id)</text>
</g>
</g>
</svg>
