<?xml version="1.0" encoding="UTF-8" standalone="no"?>
<!DOCTYPE svg PUBLIC "-//W3C//DTD SVG 1.1//EN"
 "http://www.w3.org/Graphics/SVG/1.1/DTD/svg11.dtd">
<!-- Generated by graphviz version 12.1.2 (20240928.0832)
 -->
<!-- Title: public.sbom_snapshot Pages: 1 -->
<svg width="883pt" height="664pt"
 viewBox="0.00 0.00 882.73 663.60" xmlns="http://www.w3.org/2000/svg" xmlns:xlink="http://www.w3.org/1999/xlink">
<g id="graph0" class="graph" transform="scale(1 1) rotate(0) translate(4 659.6)">
<title>public.sbom_snapshot</title>
<polygon fill="white" stroke="none" points="-4,4 -4,-659.6 878.73,-659.6 878.73,4 -4,4"/>
<!-- public.sbom_snapshot -->
<g id="node1" class="node">
<title>public.sbom_snapshot</title>
<polygon fill="#efefef" stroke="none" points="284.56,-169.4 284.56,-205 583.54,-205 583.54,-169.4 284.56,-169.4"/>
<polygon fill="none" stroke="black" points="284.56,-169.4 284.56,-205 583.54,-205 583.54,-169.4 284.56,-169.4"/>
<text text-anchor="start" x="291.56" y="-182.8" font-family="Arial Bold" font-size="18.00">public.sbom_snapshot</text>
<text text-anchor="start" x="452.06" y="-182.8" font-family="Arial" font-size="14.00">    </text>
<text text-anchor="start" x="483.17" y="-182.8" font-family="Arial" font-size="14.00" fill="#666666">[BASE TABLE]</text>
<polygon fill="none" stroke="black" points="284.56,-138.6 284.56,-169.4 583.54,-169.4 583.54,-138.6 284.56,-138.6"/>
<text text-anchor="start" x="291.56" y="-150.8" font-family="Arial" font-size="14.00">content_hash </text>
<text text-anchor="start" x="379.52" y="-150.8" font-family="Arial" font-size="14.00" fill="#666666">[varchar]</text>
<polygon fill="none" stroke="black" points="284.56,-107.8 284.56,-138.6 583.54,-138.6 583.54,-107.8 284.56,-107.8"/>
<text text-anchor="start" x="291.56" y="-120" font-family="Arial" font-size="14.00">content </text>
<text text-anchor="start" x="341.37" y="-120" font-family="Arial" font-size="14.00" fill="#666666">[bytea]</text>
<polygon fill="none" stroke="black" points="284.56,-77 284.56,-107.8 583.54,-107.8 583.54,-77 284.56,-77"/>
<text text-anchor="start" x="291.56" y="-89.2" font-family="Arial" font-size="14.00">component_count </text>
<text text-anchor="start" x="406.75" y="-89.2" font-family="Arial" font-size="14.00" fill="#666666">[integer]</text>
<polygon fill="none" stroke="black" points="284.56,-46.2 284.56,-77 583.54,-77 583.54,-46.2 284.56,-46.2"/>
<text text-anchor="start" x="291.56" y="-58.4" font-family="Arial" font-size="14.00">first_seen_at </text>
<text text-anchor="start" x="375.61" y="-58.4" font-family="Arial" font-size="14.00" fill="#666666">[timestamp with time zone]</text>
<polygon fill="none" stroke="black" stroke-width="3" points="283.06,-44.7 283.06,-206.5 585.04,-206.5 585.04,-44.7 283.06,-44.7"/>
</g>
<!-- public.sbom_import -->
<g id="node2" class="node">
<title>public.sbom_import</title>
<polygon fill="#efefef" stroke="none" points="78.06,-576.8 78.06,-612.4 362.04,-612.4 362.04,-576.8 78.06,-576.8"/>
<polygon fill="none" stroke="black" points="78.06,-576.8 78.06,-612.4 362.04,-612.4 362.04,-576.8 78.06,-576.8"/>
<text text-anchor="start" x="85.06" y="-590.2" font-family="Arial Bold" font-size="18.00">public.sbom_import</text>
<text text-anchor="start" x="230.55" y="-590.2" font-family="Arial" font-size="14.00">    </text>
<text text-anchor="start" x="261.67" y="-590.2" font-family="Arial" font-size="14.00" fill="#666666">[BASE TABLE]</text>
<polygon fill="none" stroke="black" points="78.06,-546 78.06,-576.8 362.04,-576.8 362.04,-546 78.06,-546"/>
<text text-anchor="start" x="85.06" y="-558.2" font-family="Arial" font-size="14.00">id </text>
<text text-anchor="start" x="99.85" y="-558.2" font-family="Arial" font-size="14.00" fill="#666666">[integer]</text>
<polygon fill="none" stroke="black" points="78.06,-515.2 78.06,-546 362.04,-546 362.04,-515.2 78.06,-515.2"/>
<text text-anchor="start" x="85.06" y="-527.4" font-family="Arial" font-size="14.00">device_id </text>
<text text-anchor="start" x="148.1" y="-527.4" font-family="Arial" font-size="14.00" fill="#666666">[integer]</text>
<polygon fill="none" stroke="black" points="78.06,-484.4 78.06,-515.2 362.04,-515.2 362.04,-484.4 78.06,-484.4"/>
<text text-anchor="start" x="85.06" y="-496.6" font-family="Arial" font-size="14.00">content_hash </text>
<text text-anchor="start" x="173.02" y="-496.6" font-family="Arial" font-size="14.00" fill="#666666">[varchar]</text>
<polygon fill="none" stroke="black" points="78.06,-453.6 78.06,-484.4 362.04,-484.4 362.04,-453.6 78.06,-453.6"/>
<text text-anchor="start" x="85.06" y="-465.8" font-family="Arial" font-size="14.00">source_format </text>
<text text-anchor="start" x="178.43" y="-465.8" font-family="Arial" font-size="14.00" fill="#666666">[varchar]</text>
<polygon fill="none" stroke="black" points="78.06,-422.8 78.06,-453.6 362.04,-453.6 362.04,-422.8 78.06,-422.8"/>
<text text-anchor="start" x="85.06" y="-435" font-family="Arial" font-size="14.00">work_order_id </text>
<text text-anchor="start" x="177.66" y="-435" font-family="Arial" font-size="14.00" fill="#666666">[integer]</text>
<polygon fill="none" stroke="black" points="78.06,-392 78.06,-422.8 362.04,-422.8 362.04,-392 78.06,-392"/>
<text text-anchor="start" x="85.06" y="-404.2" font-family="Arial" font-size="14.00">imported_by </text>
<text text-anchor="start" x="165.99" y="-404.2" font-family="Arial" font-size="14.00" fill="#666666">[integer]</text>
<polygon fill="none" stroke="black" points="78.06,-361.2 78.06,-392 362.04,-392 362.04,-361.2 78.06,-361.2"/>
<text text-anchor="start" x="85.06" y="-373.4" font-family="Arial" font-size="14.00">imported_at </text>
<text text-anchor="start" x="162.88" y="-373.4" font-family="Arial" font-size="14.00" fill="#666666">[timestamp with time zone]</text>
<polygon fill="none" stroke="black" points="78.06,-330.4 78.06,-361.2 362.04,-361.2 362.04,-330.4 78.06,-330.4"/>
<text text-anchor="start" x="85.06" y="-342.6" font-family="Arial" font-size="14.00">superseded_at </text>
<text text-anchor="start" x="181.58" y="-342.6" font-family="Arial" font-size="14.00" fill="#666666">[timestamp with time zone]</text>
</g>
<!-- public.sbom_import&#45;&gt;public.sbom_snapshot -->
<g id="edge1" class="edge">
<title>public.sbom_import:content_hash&#45;&gt;public.sbom_snapshot:content_hash</title>
<path fill="none" stroke="black" d="M372.87,-496.78C406.72,-473.61 385.56,-323.86 362.04,-287.2 341.54,-255.24 305.15,-283.11 284.56,-251.2 261.13,-214.9 240.36,-154 283.56,-154"/>
<polygon fill="black" stroke="black" points="372.92,-496.76 362.04,-495.4 367.82,-498.33 363.68,-499.6 363.68,-499.6 363.68,-499.6 367.82,-498.33 364.68,-504 372.92,-496.76"/>
<text text-anchor="start" x="7" y="-509.8" font-family="Arial" font-size="10.00">FOREIGN KEY (content_hash) REFERENCES sbom_snapshot(content_hash)</text>
</g>
<!-- public.sbom_component_index -->
<g id="node3" class="node">
<title>public.sbom_component_index</title>
<polygon fill="#efefef" stroke="none" points="466.57,-530.6 466.57,-566.2 831.53,-566.2 831.53,-530.6 466.57,-530.6"/>
<polygon fill="none" stroke="black" points="466.57,-530.6 466.57,-566.2 831.53,-566.2 831.53,-530.6 466.57,-530.6"/>
<text text-anchor="start" x="473.57" y="-544" font-family="Arial Bold" font-size="18.00">public.sbom_component_index</text>
<text text-anchor="start" x="700.04" y="-544" font-family="Arial" font-size="14.00">    </text>
<text text-anchor="start" x="731.16" y="-544" font-family="Arial" font-size="14.00" fill="#666666">[BASE TABLE]</text>
<polygon fill="none" stroke="black" points="466.57,-499.8 466.57,-530.6 831.53,-530.6 831.53,-499.8 466.57,-499.8"/>
<text text-anchor="start" x="473.57" y="-512" font-family="Arial" font-size="14.00">id </text>
<text text-anchor="start" x="488.36" y="-512" font-family="Arial" font-size="14.00" fill="#666666">[integer]</text>
<polygon fill="none" stroke="black" points="466.57,-469 466.57,-499.8 831.53,-499.8 831.53,-469 466.57,-469"/>
<text text-anchor="start" x="473.57" y="-481.2" font-family="Arial" font-size="14.00">content_hash </text>
<text text-anchor="start" x="561.53" y="-481.2" font-family="Arial" font-size="14.00" fill="#666666">[varchar]</text>
<polygon fill="none" stroke="black" points="466.57,-438.2 466.57,-469 831.53,-469 831.53,-438.2 466.57,-438.2"/>
<text text-anchor="start" x="473.57" y="-450.4" font-family="Arial" font-size="14.00">purl </text>
<text text-anchor="start" x="500.81" y="-450.4" font-family="Arial" font-size="14.00" fill="#666666">[varchar]</text>
<polygon fill="none" stroke="black" points="466.57,-407.4 466.57,-438.2 831.53,-438.2 831.53,-407.4 466.57,-407.4"/>
<text text-anchor="start" x="473.57" y="-419.6" font-family="Arial" font-size="14.00">name </text>
<text text-anchor="start" x="512.48" y="-419.6" font-family="Arial" font-size="14.00" fill="#666666">[varchar]</text>
<polygon fill="none" stroke="black" points="466.57,-376.6 466.57,-407.4 831.53,-407.4 831.53,-376.6 466.57,-376.6"/>
<text text-anchor="start" x="473.57" y="-388.8" font-family="Arial" font-size="14.00">version </text>
<text text-anchor="start" x="522.59" y="-388.8" font-family="Arial" font-size="14.00" fill="#666666">[varchar]</text>
</g>
<!-- public.sbom_component_index&#45;&gt;public.sbom_snapshot -->
<g id="edge2" class="edge">
<title>public.sbom_component_index:content_hash&#45;&gt;public.sbom_snapshot:content_hash</title>
<path fill="none" stroke="black" d="M455.48,-483.6C402.49,-474.48 437.14,-389.6 466.57,-333.4 496.05,-277.11 553.96,-307.43 583.54,-251.2 603.66,-212.97 627.75,-154 584.54,-154"/>
<polygon fill="black" stroke="black" points="455.27,-483.58 464.88,-488.86 460.59,-484 464.91,-484.35 464.91,-484.35 464.91,-484.35 460.59,-484 465.6,-479.89 455.27,-483.58"/>
<text text-anchor="start" x="472.57" y="-494.4" font-family="Arial" font-size="10.00">FOREIGN KEY (content_hash) REFERENCES sbom_snapshot(content_hash)</text>
</g>
</g>
</svg>
