<?xml version="1.0" encoding="UTF-8" standalone="no"?>
<!DOCTYPE svg PUBLIC "-//W3C//DTD SVG 1.1//EN"
 "http://www.w3.org/Graphics/SVG/1.1/DTD/svg11.dtd">
<!-- Generated by graphviz version 12.1.2 (20240928.0832)
 -->
<!-- Title: public.purchase_order_item Pages: 1 -->
<svg width="729pt" height="756pt"
 viewBox="0.00 0.00 728.68 756.00" xmlns="http://www.w3.org/2000/svg" xmlns:xlink="http://www.w3.org/1999/xlink">
<g id="graph0" class="graph" transform="scale(1 1) rotate(0) translate(4 752)">
<title>public.purchase_order_item</title>
<polygon fill="white" stroke="none" points="-4,4 -4,-752 724.68,-752 724.68,4 -4,4"/>
<!-- public.purchase_order_item -->
<g id="node1" class="node">
<title>public.purchase_order_item</title>
<polygon fill="#efefef" stroke="none" points="46.2,-666.2 46.2,-701.8 386.12,-701.8 386.12,-666.2 46.2,-666.2"/>
<polygon fill="none" stroke="black" points="46.2,-666.2 46.2,-701.8 386.12,-701.8 386.12,-666.2 46.2,-666.2"/>
<text text-anchor="start" x="53.2" y="-679.6" font-family="Arial Bold" font-size="18.00">public.purchase_order_item</text>
<text text-anchor="start" x="254.63" y="-679.6" font-family="Arial" font-size="14.00">    </text>
<text text-anchor="start" x="285.74" y="-679.6" font-family="Arial" font-size="14.00" fill="#666666">[BASE TABLE]</text>
<polygon fill="none" stroke="black" points="46.2,-635.4 46.2,-666.2 386.12,-666.2 386.12,-635.4 46.2,-635.4"/>
<text text-anchor="start" x="53.2" y="-647.6" font-family="Arial" font-size="14.00">id </text>
<text text-anchor="start" x="67.99" y="-647.6" font-family="Arial" font-size="14.00" fill="#666666">[integer]</text>
<polygon fill="none" stroke="black" points="46.2,-604.6 46.2,-635.4 386.12,-635.4 386.12,-604.6 46.2,-604.6"/>
<text text-anchor="start" x="53.2" y="-616.8" font-family="Arial" font-size="14.00">purchase_order_id </text>
<text text-anchor="start" x="173.83" y="-616.8" font-family="Arial" font-size="14.00" fill="#666666">[integer]</text>
<polygon fill="none" stroke="black" points="46.2,-573.8 46.2,-604.6 386.12,-604.6 386.12,-573.8 46.2,-573.8"/>
<text text-anchor="start" x="53.2" y="-586" font-family="Arial" font-size="14.00">item_type </text>
<text text-anchor="start" x="117.79" y="-586" font-family="Arial" font-size="14.00" fill="#666666">[varchar]</text>
<polygon fill="none" stroke="black" points="46.2,-543 46.2,-573.8 386.12,-573.8 386.12,-543 46.2,-543"/>
<text text-anchor="start" x="53.2" y="-555.2" font-family="Arial" font-size="14.00">item_id </text>
<text text-anchor="start" x="102.22" y="-555.2" font-family="Arial" font-size="14.00" fill="#666666">[integer]</text>
<polygon fill="none" stroke="black" points="46.2,-512.2 46.2,-543 386.12,-543 386.12,-512.2 46.2,-512.2"/>
<text text-anchor="start" x="53.2" y="-524.4" font-family="Arial" font-size="14.00">quantity </text>
<text text-anchor="start" x="106.12" y="-524.4" font-family="Arial" font-size="14.00" fill="#666666">[integer]</text>
<polygon fill="none" stroke="black" points="46.2,-481.4 46.2,-512.2 386.12,-512.2 386.12,-481.4 46.2,-481.4"/>
<text text-anchor="start" x="53.2" y="-493.6" font-family="Arial" font-size="14.00">unit_price </text>
<text text-anchor="start" x="117.79" y="-493.6" font-family="Arial" font-size="14.00" fill="#666666">[bigint]</text>
<polygon fill="none" stroke="black" points="46.2,-450.6 46.2,-481.4 386.12,-481.4 386.12,-450.6 46.2,-450.6"/>
<text text-anchor="start" x="53.2" y="-462.8" font-family="Arial" font-size="14.00">created_at </text>
<text text-anchor="start" x="123.25" y="-462.8" font-family="Arial" font-size="14.00" fill="#666666">[timestamp with time zone]</text>
<polygon fill="none" stroke="black" points="46.2,-419.8 46.2,-450.6 386.12,-450.6 386.12,-419.8 46.2,-419.8"/>
<text text-anchor="start" x="53.2" y="-432" font-family="Arial" font-size="14.00">updated_at </text>
<text text-anchor="start" x="127.16" y="-432" font-family="Arial" font-size="14.00" fill="#666666">[timestamp with time zone]</text>
<polygon fill="none" stroke="black" stroke-width="3" points="44.7,-418.3 44.7,-703.3 387.62,-703.3 387.62,-418.3 44.7,-418.3"/>
</g>
<!-- public.purchase_order -->
<g id="node2" class="node">
<title>public.purchase_order</title>
<polygon fill="#efefef" stroke="none" points="66.7,-258.8 66.7,-294.4 365.62,-294.4 365.62,-258.8 66.7,-258.8"/>
<polygon fill="none" stroke="black" points="66.7,-258.8 66.7,-294.4 365.62,-294.4 365.62,-258.8 66.7,-258.8"/>
<text text-anchor="start" x="73.7" y="-272.2" font-family="Arial Bold" font-size="18.00">public.purchase_order</text>
<text text-anchor="start" x="234.13" y="-272.2" font-family="Arial" font-size="14.00">    </text>
<text text-anchor="start" x="265.25" y="-272.2" font-family="Arial" font-size="14.00" fill="#666666">[BASE TABLE]</text>
<polygon fill="none" stroke="black" points="66.7,-228 66.7,-258.8 365.62,-258.8 365.62,-228 66.7,-228"/>
<text text-anchor="start" x="73.7" y="-240.2" font-family="Arial" font-size="14.00">id </text>
<text text-anchor="start" x="88.48" y="-240.2" font-family="Arial" font-size="14.00" fill="#666666">[integer]</text>
<polygon fill="none" stroke="black" points="66.7,-197.2 66.7,-228 365.62,-228 365.62,-197.2 66.7,-197.2"/>
<text text-anchor="start" x="73.7" y="-209.4" font-family="Arial" font-size="14.00">order_number </text>
<text text-anchor="start" x="165.52" y="-209.4" font-family="Arial" font-size="14.00" fill="#666666">[varchar]</text>
<polygon fill="none" stroke="black" points="66.7,-166.4 66.7,-197.2 365.62,-197.2 365.62,-166.4 66.7,-166.4"/>
<text text-anchor="start" x="73.7" y="-178.6" font-family="Arial" font-size="14.00">order_date </text>
<text text-anchor="start" x="145.3" y="-178.6" font-family="Arial" font-size="14.00" fill="#666666">[date]</text>
<polygon fill="none" stroke="black" points="66.7,-135.6 66.7,-166.4 365.62,-166.4 365.62,-135.6 66.7,-135.6"/>
<text text-anchor="start" x="73.7" y="-147.8" font-family="Arial" font-size="14.00">vendor_id </text>
<text text-anchor="start" x="139.07" y="-147.8" font-family="Arial" font-size="14.00" fill="#666666">[integer]</text>
<polygon fill="none" stroke="black" points="66.7,-104.8 66.7,-135.6 365.62,-135.6 365.62,-104.8 66.7,-104.8"/>
<text text-anchor="start" x="73.7" y="-117" font-family="Arial" font-size="14.00">currency </text>
<text text-anchor="start" x="131.27" y="-117" font-family="Arial" font-size="14.00" fill="#666666">[varchar]</text>
<polygon fill="none" stroke="black" points="66.7,-74 66.7,-104.8 365.62,-104.8 365.62,-74 66.7,-74"/>
<text text-anchor="start" x="73.7" y="-86.2" font-family="Arial" font-size="14.00">created_at </text>
<text text-anchor="start" x="143.74" y="-86.2" font-family="Arial" font-size="14.00" fill="#666666">[timestamp with time zone]</text>
<polygon fill="none" stroke="black" points="66.7,-43.2 66.7,-74 365.62,-74 365.62,-43.2 66.7,-43.2"/>
<text text-anchor="start" x="73.7" y="-55.4" font-family="Arial" font-size="14.00">updated_at </text>
<text text-anchor="start" x="147.65" y="-55.4" font-family="Arial" font-size="14.00" fill="#666666">[timestamp with time zone]</text>
</g>
<!-- public.purchase_order_item&#45;&gt;public.purchase_order -->
<g id="edge1" class="edge">
<title>public.purchase_order_item:purchase_order_id&#45;&gt;public.purchase_order:id</title>
<path fill="none" stroke="black" d="M397.35,-617.97C469.05,-588.33 446.83,-243.4 366.62,-243.4"/>
<polygon fill="black" stroke="black" points="397.25,-617.99 386.57,-615.52 392.02,-619.03 387.77,-619.87 387.77,-619.87 387.77,-619.87 392.02,-619.03 388.32,-624.35 397.25,-617.99"/>
<text text-anchor="start" x="394.12" y="-630" font-family="Arial" font-size="10.00">FOREIGN KEY (purchase_order_id) REFERENCES purchase_order(id)</text>
</g>
</g>
</svg>
