<?xml version="1.0" encoding="UTF-8" standalone="no"?>
<!DOCTYPE svg PUBLIC "-//W3C//DTD SVG 1.1//EN"
 "http://www.w3.org/Graphics/SVG/1.1/DTD/svg11.dtd">
<!-- Generated by graphviz version 12.1.2 (20240928.0832)
 -->
<!-- Title: public.vendor Pages: 1 -->
<svg width="2824pt" height="1468pt"
 viewBox="0.00 0.00 2823.85 1468.40" xmlns="http://www.w3.org/2000/svg" xmlns:xlink="http://www.w3.org/1999/xlink">
<g id="graph0" class="graph" transform="scale(1 1) rotate(0) translate(4 1464.4)">
<title>public.vendor</title>
<polygon fill="white" stroke="none" points="-4,4 -4,-1464.4 2819.85,-1464.4 2819.85,4 -4,4"/>
<!-- public.vendor -->
<g id="node1" class="node">
<title>public.vendor</title>
<polygon fill="#efefef" stroke="none" points="1240.84,-820.2 1240.84,-855.8 1494.52,-855.8 1494.52,-820.2 1240.84,-820.2"/>
<polygon fill="none" stroke="black" points="1240.84,-820.2 1240.84,-855.8 1494.52,-855.8 1494.52,-820.2 1240.84,-820.2"/>
<text text-anchor="start" x="1255.7" y="-833.6" font-family="Arial Bold" font-size="18.00">public.vendor</text>
<text text-anchor="start" x="1355.18" y="-833.6" font-family="Arial" font-size="14.00">    </text>
<text text-anchor="start" x="1386.29" y="-833.6" font-family="Arial" font-size="14.00" fill="#666666">[BASE TABLE]</text>
<polygon fill="none" stroke="black" points="1240.84,-789.4 1240.84,-820.2 1494.52,-820.2 1494.52,-789.4 1240.84,-789.4"/>
<text text-anchor="start" x="1247.84" y="-801.6" font-family="Arial" font-size="14.00">id </text>
<text text-anchor="start" x="1262.63" y="-801.6" font-family="Arial" font-size="14.00" fill="#666666">[integer]</text>
<polygon fill="none" stroke="black" points="1240.84,-758.6 1240.84,-789.4 1494.52,-789.4 1494.52,-758.6 1240.84,-758.6"/>
<text text-anchor="start" x="1247.84" y="-770.8" font-family="Arial" font-size="14.00">name </text>
<text text-anchor="start" x="1286.75" y="-770.8" font-family="Arial" font-size="14.00" fill="#666666">[varchar]</text>
<polygon fill="none" stroke="black" points="1240.84,-727.8 1240.84,-758.6 1494.52,-758.6 1494.52,-727.8 1240.84,-727.8"/>
<text text-anchor="start" x="1247.84" y="-740" font-family="Arial" font-size="14.00">created_by </text>
<text text-anchor="start" x="1321" y="-740" font-family="Arial" font-size="14.00" fill="#666666">[integer]</text>
<polygon fill="none" stroke="black" points="1240.84,-697 1240.84,-727.8 1494.52,-727.8 1494.52,-697 1240.84,-697"/>
<text text-anchor="start" x="1247.84" y="-709.2" font-family="Arial" font-size="14.00">created_at </text>
<text text-anchor="start" x="1317.89" y="-709.2" font-family="Arial" font-size="14.00" fill="#666666">[timestamp with time zone]</text>
<polygon fill="none" stroke="black" points="1240.84,-666.2 1240.84,-697 1494.52,-697 1494.52,-666.2 1240.84,-666.2"/>
<text text-anchor="start" x="1247.84" y="-678.4" font-family="Arial" font-size="14.00">updated_at </text>
<text text-anchor="start" x="1321.8" y="-678.4" font-family="Arial" font-size="14.00" fill="#666666">[timestamp with time zone]</text>
<polygon fill="none" stroke="black" points="1240.84,-635.4 1240.84,-666.2 1494.52,-666.2 1494.52,-635.4 1240.84,-635.4"/>
<text text-anchor="start" x="1247.84" y="-647.6" font-family="Arial" font-size="14.00">retired_at </text>
<text text-anchor="start" x="1310.88" y="-647.6" font-family="Arial" font-size="14.00" fill="#666666">[timestamp with time zone]</text>
<polygon fill="none" stroke="black" points="1240.84,-604.6 1240.84,-635.4 1494.52,-635.4 1494.52,-604.6 1240.84,-604.6"/>
<text text-anchor="start" x="1247.84" y="-616.8" font-family="Arial" font-size="14.00">merged_into_vendor_id </text>
<text text-anchor="start" x="1398.83" y="-616.8" font-family="Arial" font-size="14.00" fill="#666666">[integer]</text>
<polygon fill="none" stroke="black" points="1240.84,-573.8 1240.84,-604.6 1494.52,-604.6 1494.52,-573.8 1240.84,-573.8"/>
<text text-anchor="start" x="1247.84" y="-586" font-family="Arial" font-size="14.00">merged_at </text>
<text text-anchor="start" x="1318.66" y="-586" font-family="Arial" font-size="14.00" fill="#666666">[timestamp with time zone]</text>
<polygon fill="none" stroke="black" stroke-width="3" points="1239.34,-572.3 1239.34,-857.3 1496.02,-857.3 1496.02,-572.3 1239.34,-572.3"/>
</g>
<!-- public.app_user -->
<g id="node9" class="node">
<title>public.app_user</title>
<polygon fill="#efefef" stroke="none" points="1236.57,-412.8 1236.57,-448.4 1498.8,-448.4 1498.8,-412.8 1236.57,-412.8"/>
<polygon fill="none" stroke="black" points="1236.57,-412.8 1236.57,-448.4 1498.8,-448.4 1498.8,-412.8 1236.57,-412.8"/>
<text text-anchor="start" x="1248.2" y="-426.2" font-family="Arial Bold" font-size="18.00">public.app_user</text>
<text text-anchor="start" x="1362.67" y="-426.2" font-family="Arial" font-size="14.00">    </text>
<text text-anchor="start" x="1393.79" y="-426.2" font-family="Arial" font-size="14.00" fill="#666666">[BASE TABLE]</text>
<polygon fill="none" stroke="black" points="1236.57,-382 1236.57,-412.8 1498.8,-412.8 1498.8,-382 1236.57,-382"/>
<text text-anchor="start" x="1243.57" y="-394.2" font-family="Arial" font-size="14.00">id </text>
<text text-anchor="start" x="1258.36" y="-394.2" font-family="Arial" font-size="14.00" fill="#666666">[integer]</text>
<polygon fill="none" stroke="black" points="1236.57,-351.2 1236.57,-382 1498.8,-382 1498.8,-351.2 1236.57,-351.2"/>
<text text-anchor="start" x="1243.57" y="-363.4" font-family="Arial" font-size="14.00">name </text>
<text text-anchor="start" x="1282.48" y="-363.4" font-family="Arial" font-size="14.00" fill="#666666">[varchar]</text>
<polygon fill="none" stroke="black" points="1236.57,-320.4 1236.57,-351.2 1498.8,-351.2 1498.8,-320.4 1236.57,-320.4"/>
<text text-anchor="start" x="1243.57" y="-332.6" font-family="Arial" font-size="14.00">username </text>
<text text-anchor="start" x="1309.71" y="-332.6" font-family="Arial" font-size="14.00" fill="#666666">[varchar]</text>
<polygon fill="none" stroke="black" points="1236.57,-289.6 1236.57,-320.4 1498.8,-320.4 1498.8,-289.6 1236.57,-289.6"/>
<text text-anchor="start" x="1243.57" y="-301.8" font-family="Arial" font-size="14.00">email </text>
<text text-anchor="start" x="1280.91" y="-301.8" font-family="Arial" font-size="14.00" fill="#666666">[varchar]</text>
<polygon fill="none" stroke="black" points="1236.57,-258.8 1236.57,-289.6 1498.8,-289.6 1498.8,-258.8 1236.57,-258.8"/>
<text text-anchor="start" x="1243.57" y="-271" font-family="Arial" font-size="14.00">password_hash </text>
<text text-anchor="start" x="1345.52" y="-271" font-family="Arial" font-size="14.00" fill="#666666">[varchar]</text>
<polygon fill="none" stroke="black" points="1236.57,-228 1236.57,-258.8 1498.8,-258.8 1498.8,-228 1236.57,-228"/>
<text text-anchor="start" x="1243.57" y="-240.2" font-family="Arial" font-size="14.00">must_change_password </text>
<text text-anchor="start" x="1399.22" y="-240.2" font-family="Arial" font-size="14.00" fill="#666666">[boolean]</text>
<polygon fill="none" stroke="black" points="1236.57,-197.2 1236.57,-228 1498.8,-228 1498.8,-197.2 1236.57,-197.2"/>
<text text-anchor="start" x="1243.57" y="-209.4" font-family="Arial" font-size="14.00">is_system_admin </text>
<text text-anchor="start" x="1355.61" y="-209.4" font-family="Arial" font-size="14.00" fill="#666666">[boolean]</text>
<polygon fill="none" stroke="black" points="1236.57,-166.4 1236.57,-197.2 1498.8,-197.2 1498.8,-166.4 1236.57,-166.4"/>
<text text-anchor="start" x="1243.57" y="-178.6" font-family="Arial" font-size="14.00">locale </text>
<text text-anchor="start" x="1284.04" y="-178.6" font-family="Arial" font-size="14.00" fill="#666666">[varchar]</text>
<polygon fill="none" stroke="black" points="1236.57,-135.6 1236.57,-166.4 1498.8,-166.4 1498.8,-135.6 1236.57,-135.6"/>
<text text-anchor="start" x="1243.57" y="-147.8" font-family="Arial" font-size="14.00">last_login_at </text>
<text text-anchor="start" x="1326.07" y="-147.8" font-family="Arial" font-size="14.00" fill="#666666">[timestamp with time zone]</text>
<polygon fill="none" stroke="black" points="1236.57,-104.8 1236.57,-135.6 1498.8,-135.6 1498.8,-104.8 1236.57,-104.8"/>
<text text-anchor="start" x="1243.57" y="-117" font-family="Arial" font-size="14.00">disabled_at </text>
<text text-anchor="start" x="1319.07" y="-117" font-family="Arial" font-size="14.00" fill="#666666">[timestamp with time zone]</text>
<polygon fill="none" stroke="black" points="1236.57,-74 1236.57,-104.8 1498.8,-104.8 1498.8,-74 1236.57,-74"/>
<text text-anchor="start" x="1243.57" y="-86.2" font-family="Arial" font-size="14.00">created_at </text>
<text text-anchor="start" x="1313.62" y="-86.2" font-family="Arial" font-size="14.00" fill="#666666">[timestamp with time zone]</text>
<polygon fill="none" stroke="black" points="1236.57,-43.2 1236.57,-74 1498.8,-74 1498.8,-43.2 1236.57,-43.2"/>
<text text-anchor="start" x="1243.57" y="-55.4" font-family="Arial" font-size="14.00">updated_at </text>
<text text-anchor="start" x="1317.53" y="-55.4" font-family="Arial" font-size="14.00" fill="#666666">[timestamp with time zone]</text>
</g>
<!-- public.vendor&#45;&gt;public.app_user -->
<g id="edge8" class="edge">
<title>public.vendor:created_by&#45;&gt;public.app_user:id</title>
<path fill="none" stroke="black" d="M1505.65,-742.68C1649.34,-727.84 1650.04,-397.4 1499.8,-397.4"/>
<polygon fill="black" stroke="black" points="1505.84,-742.67 1495.63,-738.69 1500.52,-742.95 1496.19,-743.17 1496.19,-743.17 1496.19,-743.17 1500.52,-742.95 1496.09,-747.68 1505.84,-742.67"/>
<text text-anchor="start" x="1502.52" y="-753.2" font-family="Arial" font-size="10.00">FOREIGN KEY (created_by) REFERENCES app_user(id)</text>
</g>
<!-- public.chassis_model -->
<g id="node2" class="node">
<title>public.chassis_model</title>
<polygon fill="#efefef" stroke="none" points="43.2,-1350.8 43.2,-1386.4 336.17,-1386.4 336.17,-1350.8 43.2,-1350.8"/>
<polygon fill="none" stroke="black" points="43.2,-1350.8 43.2,-1386.4 336.17,-1386.4 336.17,-1350.8 43.2,-1350.8"/>
<text text-anchor="start" x="50.2" y="-1364.2" font-family="Arial Bold" font-size="18.00">public.chassis_model</text>
<text text-anchor="start" x="204.68" y="-1364.2" font-family="Arial" font-size="14.00">    </text>
<text text-anchor="start" x="235.79" y="-1364.2" font-family="Arial" font-size="14.00" fill="#666666">[BASE TABLE]</text>
<polygon fill="none" stroke="black" points="43.2,-1320 43.2,-1350.8 336.17,-1350.8 336.17,-1320 43.2,-1320"/>
<text text-anchor="start" x="50.2" y="-1332.2" font-family="Arial" font-size="14.00">id </text>
<text text-anchor="start" x="64.99" y="-1332.2" font-family="Arial" font-size="14.00" fill="#666666">[integer]</text>
<polygon fill="none" stroke="black" points="43.2,-1289.2 43.2,-1320 336.17,-1320 336.17,-1289.2 43.2,-1289.2"/>
<text text-anchor="start" x="50.2" y="-1301.4" font-family="Arial" font-size="14.00">vendor_id </text>
<text text-anchor="start" x="115.58" y="-1301.4" font-family="Arial" font-size="14.00" fill="#666666">[integer]</text>
<polygon fill="none" stroke="black" points="43.2,-1258.4 43.2,-1289.2 336.17,-1289.2 336.17,-1258.4 43.2,-1258.4"/>
<text text-anchor="start" x="50.2" y="-1270.6" font-family="Arial" font-size="14.00">model_name </text>
<text text-anchor="start" x="135.03" y="-1270.6" font-family="Arial" font-size="14.00" fill="#666666">[varchar]</text>
<polygon fill="none" stroke="black" points="43.2,-1227.6 43.2,-1258.4 336.17,-1258.4 336.17,-1227.6 43.2,-1227.6"/>
<text text-anchor="start" x="50.2" y="-1239.8" font-family="Arial" font-size="14.00">device_category </text>
<text text-anchor="start" x="156.04" y="-1239.8" font-family="Arial" font-size="14.00" fill="#666666">[varchar]</text>
<polygon fill="none" stroke="black" points="43.2,-1196.8 43.2,-1227.6 336.17,-1227.6 336.17,-1196.8 43.2,-1196.8"/>
<text text-anchor="start" x="50.2" y="-1209" font-family="Arial" font-size="14.00">height_u </text>
<text text-anchor="start" x="107.81" y="-1209" font-family="Arial" font-size="14.00" fill="#666666">[integer]</text>
<polygon fill="none" stroke="black" points="43.2,-1166 43.2,-1196.8 336.17,-1196.8 336.17,-1166 43.2,-1166"/>
<text text-anchor="start" x="50.2" y="-1178.2" font-family="Arial" font-size="14.00">mount_form </text>
<text text-anchor="start" x="128.79" y="-1178.2" font-family="Arial" font-size="14.00" fill="#666666">[varchar]</text>
<polygon fill="none" stroke="black" points="43.2,-1135.2 43.2,-1166 336.17,-1166 336.17,-1135.2 43.2,-1135.2"/>
<text text-anchor="start" x="50.2" y="-1147.4" font-family="Arial" font-size="14.00">rack_width </text>
<text text-anchor="start" x="121.01" y="-1147.4" font-family="Arial" font-size="14.00" fill="#666666">[varchar]</text>
<polygon fill="none" stroke="black" points="43.2,-1104.4 43.2,-1135.2 336.17,-1135.2 336.17,-1104.4 43.2,-1104.4"/>
<text text-anchor="start" x="50.2" y="-1116.6" font-family="Arial" font-size="14.00">created_by </text>
<text text-anchor="start" x="123.36" y="-1116.6" font-family="Arial" font-size="14.00" fill="#666666">[integer]</text>
<polygon fill="none" stroke="black" points="43.2,-1073.6 43.2,-1104.4 336.17,-1104.4 336.17,-1073.6 43.2,-1073.6"/>
<text text-anchor="start" x="50.2" y="-1085.8" font-family="Arial" font-size="14.00">created_at </text>
<text text-anchor="start" x="120.25" y="-1085.8" font-family="Arial" font-size="14.00" fill="#666666">[timestamp with time zone]</text>
<polygon fill="none" stroke="black" points="43.2,-1042.8 43.2,-1073.6 336.17,-1073.6 336.17,-1042.8 43.2,-1042.8"/>
<text text-anchor="start" x="50.2" y="-1055" font-family="Arial" font-size="14.00">updated_at </text>
<text text-anchor="start" x="124.16" y="-1055" font-family="Arial" font-size="14.00" fill="#666666">[timestamp with time zone]</text>
<polygon fill="none" stroke="black" points="43.2,-1012 43.2,-1042.8 336.17,-1042.8 336.17,-1012 43.2,-1012"/>
<text text-anchor="start" x="50.2" y="-1024.2" font-family="Arial" font-size="14.00">retired_at </text>
<text text-anchor="start" x="113.23" y="-1024.2" font-family="Arial" font-size="14.00" fill="#666666">[timestamp with time zone]</text>
</g>
<!-- public.chassis_model&#45;&gt;public.vendor -->
<g id="edge1" class="edge">
<title>public.chassis_model:vendor_id&#45;&gt;public.vendor:id</title>
<path fill="none" stroke="black" d="M347.24,-1302.79C411.67,-1277.44 332.65,-994.04 387.68,-938 454.83,-869.62 1144.01,-804.8 1239.84,-804.8"/>
<polygon fill="black" stroke="black" points="347.34,-1302.77 336.7,-1300.11 342.09,-1303.71 337.82,-1304.48 337.82,-1304.48 337.82,-1304.48 342.09,-1303.71 338.29,-1308.97 347.34,-1302.77"/>
<text text-anchor="start" x="216.85" y="-1288.6" font-family="Arial" font-size="10.00">FOREIGN KEY (vendor_id) REFERENCES vendor(id)</text>
</g>
<!-- public.part_catalog -->
<g id="node3" class="node">
<title>public.part_catalog</title>
<polygon fill="#efefef" stroke="none" points="440.22,-1381.6 440.22,-1417.2 717.15,-1417.2 717.15,-1381.6 440.22,-1381.6"/>
<polygon fill="none" stroke="black" points="440.22,-1381.6 440.22,-1417.2 717.15,-1417.2 717.15,-1381.6 440.22,-1381.6"/>
<text text-anchor="start" x="447.22" y="-1395" font-family="Arial Bold" font-size="18.00">public.part_catalog</text>
<text text-anchor="start" x="585.66" y="-1395" font-family="Arial" font-size="14.00">    </text>
<text text-anchor="start" x="616.78" y="-1395" font-family="Arial" font-size="14.00" fill="#666666">[BASE TABLE]</text>
<polygon fill="none" stroke="black" points="440.22,-1350.8 440.22,-1381.6 717.15,-1381.6 717.15,-1350.8 440.22,-1350.8"/>
<text text-anchor="start" x="447.22" y="-1363" font-family="Arial" font-size="14.00">id </text>
<text text-anchor="start" x="462" y="-1363" font-family="Arial" font-size="14.00" fill="#666666">[integer]</text>
<polygon fill="none" stroke="black" points="440.22,-1320 440.22,-1350.8 717.15,-1350.8 717.15,-1320 440.22,-1320"/>
<text text-anchor="start" x="447.22" y="-1332.2" font-family="Arial" font-size="14.00">category </text>
<text text-anchor="start" x="504.8" y="-1332.2" font-family="Arial" font-size="14.00" fill="#666666">[varchar]</text>
<polygon fill="none" stroke="black" points="440.22,-1289.2 440.22,-1320 717.15,-1320 717.15,-1289.2 440.22,-1289.2"/>
<text text-anchor="start" x="447.22" y="-1301.4" font-family="Arial" font-size="14.00">vendor_id </text>
<text text-anchor="start" x="512.59" y="-1301.4" font-family="Arial" font-size="14.00" fill="#666666">[integer]</text>
<polygon fill="none" stroke="black" points="440.22,-1258.4 440.22,-1289.2 717.15,-1289.2 717.15,-1258.4 440.22,-1258.4"/>
<text text-anchor="start" x="447.22" y="-1270.6" font-family="Arial" font-size="14.00">part_number </text>
<text text-anchor="start" x="530.48" y="-1270.6" font-family="Arial" font-size="14.00" fill="#666666">[varchar]</text>
<polygon fill="none" stroke="black" points="440.22,-1227.6 440.22,-1258.4 717.15,-1258.4 717.15,-1227.6 440.22,-1227.6"/>
<text text-anchor="start" x="447.22" y="-1239.8" font-family="Arial" font-size="14.00">core_count </text>
<text text-anchor="start" x="520.37" y="-1239.8" font-family="Arial" font-size="14.00" fill="#666666">[integer]</text>
<polygon fill="none" stroke="black" points="440.22,-1196.8 440.22,-1227.6 717.15,-1227.6 717.15,-1196.8 440.22,-1196.8"/>
<text text-anchor="start" x="447.22" y="-1209" font-family="Arial" font-size="14.00">capacity_gb </text>
<text text-anchor="start" x="525.82" y="-1209" font-family="Arial" font-size="14.00" fill="#666666">[integer]</text>
<polygon fill="none" stroke="black" points="440.22,-1166 440.22,-1196.8 717.15,-1196.8 717.15,-1166 440.22,-1166"/>
<text text-anchor="start" x="447.22" y="-1178.2" font-family="Arial" font-size="14.00">spec_json </text>
<text text-anchor="start" x="514.15" y="-1178.2" font-family="Arial" font-size="14.00" fill="#666666">[text]</text>
<polygon fill="none" stroke="black" points="440.22,-1135.2 440.22,-1166 717.15,-1166 717.15,-1135.2 440.22,-1135.2"/>
<text text-anchor="start" x="447.22" y="-1147.4" font-family="Arial" font-size="14.00">created_by </text>
<text text-anchor="start" x="520.37" y="-1147.4" font-family="Arial" font-size="14.00" fill="#666666">[integer]</text>
<polygon fill="none" stroke="black" points="440.22,-1104.4 440.22,-1135.2 717.15,-1135.2 717.15,-1104.4 440.22,-1104.4"/>
<text text-anchor="start" x="447.22" y="-1116.6" font-family="Arial" font-size="14.00">created_at </text>
<text text-anchor="start" x="517.26" y="-1116.6" font-family="Arial" font-size="14.00" fill="#666666">[timestamp with time zone]</text>
<polygon fill="none" stroke="black" points="440.22,-1073.6 440.22,-1104.4 717.15,-1104.4 717.15,-1073.6 440.22,-1073.6"/>
<text text-anchor="start" x="447.22" y="-1085.8" font-family="Arial" font-size="14.00">updated_at </text>
<text text-anchor="start" x="521.17" y="-1085.8" font-family="Arial" font-size="14.00" fill="#666666">[timestamp with time zone]</text>
<polygon fill="none" stroke="black" points="440.22,-1042.8 440.22,-1073.6 717.15,-1073.6 717.15,-1042.8 440.22,-1042.8"/>
<text text-anchor="start" x="447.22" y="-1055" font-family="Arial" font-size="14.00">retired_at </text>
<text text-anchor="start" x="510.25" y="-1055" font-family="Arial" font-size="14.00" fill="#666666">[timestamp with time zone]</text>
<polygon fill="none" stroke="black" points="440.22,-1012 440.22,-1042.8 717.15,-1042.8 717.15,-1012 440.22,-1012"/>
<text text-anchor="start" x="447.22" y="-1024.2" font-family="Arial" font-size="14.00">merged_into_part_catalog_id </text>
<text text-anchor="start" x="632.46" y="-1024.2" font-family="Arial" font-size="14.00" fill="#666666">[integer]</text>
<polygon fill="none" stroke="black" points="440.22,-981.2 440.22,-1012 717.15,-1012 717.15,-981.2 440.22,-981.2"/>
<text text-anchor="start" x="447.22" y="-993.4" font-family="Arial" font-size="14.00">merged_at </text>
<text text-anchor="start" x="518.04" y="-993.4" font-family="Arial" font-size="14.00" fill="#666666">[timestamp with time zone]</text>
</g>
<!-- public.part_catalog&#45;&gt;public.vendor -->
<g id="edge2" class="edge">
<title>public.part_catalog:vendor_id&#45;&gt;public.vendor:id</title>
<path fill="none" stroke="black" d="M728.24,-1302.81C792.97,-1277.73 717.12,-997.25 768.68,-938 840.11,-855.92 1131.04,-804.8 1239.84,-804.8"/>
<polygon fill="black" stroke="black" points="728.33,-1302.79 717.69,-1300.11 723.07,-1303.72 718.81,-1304.48 718.81,-1304.48 718.81,-1304.48 723.07,-1303.72 719.27,-1308.97 728.33,-1302.79"/>
<text text-anchor="start" x="597.84" y="-1288.6" font-family="Arial" font-size="10.00">FOREIGN KEY (vendor_id) REFERENCES vendor(id)</text>
</g>
<!-- public.cable_catalog -->
<g id="node4" class="node">
<title>public.cable_catalog</title>
<polygon fill="#efefef" stroke="none" points="821.22,-1381.6 821.22,-1417.2 1108.14,-1417.2 1108.14,-1381.6 821.22,-1381.6"/>
<polygon fill="none" stroke="black" points="821.22,-1381.6 821.22,-1417.2 1108.14,-1417.2 1108.14,-1381.6 821.22,-1381.6"/>
<text text-anchor="start" x="828.22" y="-1395" font-family="Arial Bold" font-size="18.00">public.cable_catalog</text>
<text text-anchor="start" x="976.65" y="-1395" font-family="Arial" font-size="14.00">    </text>
<text text-anchor="start" x="1007.77" y="-1395" font-family="Arial" font-size="14.00" fill="#666666">[BASE TABLE]</text>
<polygon fill="none" stroke="black" points="821.22,-1350.8 821.22,-1381.6 1108.14,-1381.6 1108.14,-1350.8 821.22,-1350.8"/>
<text text-anchor="start" x="828.22" y="-1363" font-family="Arial" font-size="14.00">id </text>
<text text-anchor="start" x="843.01" y="-1363" font-family="Arial" font-size="14.00" fill="#666666">[integer]</text>
<polygon fill="none" stroke="black" points="821.22,-1320 821.22,-1350.8 1108.14,-1350.8 1108.14,-1320 821.22,-1320"/>
<text text-anchor="start" x="828.22" y="-1332.2" font-family="Arial" font-size="14.00">cable_type </text>
<text text-anchor="start" x="899.83" y="-1332.2" font-family="Arial" font-size="14.00" fill="#666666">[varchar]</text>
<polygon fill="none" stroke="black" points="821.22,-1289.2 821.22,-1320 1108.14,-1320 1108.14,-1289.2 821.22,-1289.2"/>
<text text-anchor="start" x="828.22" y="-1301.4" font-family="Arial" font-size="14.00">length_mm </text>
<text text-anchor="start" x="901.37" y="-1301.4" font-family="Arial" font-size="14.00" fill="#666666">[integer]</text>
<polygon fill="none" stroke="black" points="821.22,-1258.4 821.22,-1289.2 1108.14,-1289.2 1108.14,-1258.4 821.22,-1258.4"/>
<text text-anchor="start" x="828.22" y="-1270.6" font-family="Arial" font-size="14.00">color </text>
<text text-anchor="start" x="862.46" y="-1270.6" font-family="Arial" font-size="14.00" fill="#666666">[varchar]</text>
<polygon fill="none" stroke="black" points="821.22,-1227.6 821.22,-1258.4 1108.14,-1258.4 1108.14,-1227.6 821.22,-1227.6"/>
<text text-anchor="start" x="828.22" y="-1239.8" font-family="Arial" font-size="14.00">vendor_id </text>
<text text-anchor="start" x="893.6" y="-1239.8" font-family="Arial" font-size="14.00" fill="#666666">[integer]</text>
<polygon fill="none" stroke="black" points="821.22,-1196.8 821.22,-1227.6 1108.14,-1227.6 1108.14,-1196.8 821.22,-1196.8"/>
<text text-anchor="start" x="828.22" y="-1209" font-family="Arial" font-size="14.00">part_number </text>
<text text-anchor="start" x="911.49" y="-1209" font-family="Arial" font-size="14.00" fill="#666666">[varchar]</text>
<polygon fill="none" stroke="black" points="821.22,-1166 821.22,-1196.8 1108.14,-1196.8 1108.14,-1166 821.22,-1166"/>
<text text-anchor="start" x="828.22" y="-1178.2" font-family="Arial" font-size="14.00">created_by </text>
<text text-anchor="start" x="901.38" y="-1178.2" font-family="Arial" font-size="14.00" fill="#666666">[integer]</text>
<polygon fill="none" stroke="black" points="821.22,-1135.2 821.22,-1166 1108.14,-1166 1108.14,-1135.2 821.22,-1135.2"/>
<text text-anchor="start" x="828.22" y="-1147.4" font-family="Arial" font-size="14.00">created_at </text>
<text text-anchor="start" x="898.27" y="-1147.4" font-family="Arial" font-size="14.00" fill="#666666">[timestamp with time zone]</text>
<polygon fill="none" stroke="black" points="821.22,-1104.4 821.22,-1135.2 1108.14,-1135.2 1108.14,-1104.4 821.22,-1104.4"/>
<text text-anchor="start" x="828.22" y="-1116.6" font-family="Arial" font-size="14.00">updated_at </text>
<text text-anchor="start" x="902.18" y="-1116.6" font-family="Arial" font-size="14.00" fill="#666666">[timestamp with time zone]</text>
<polygon fill="none" stroke="black" points="821.22,-1073.6 821.22,-1104.4 1108.14,-1104.4 1108.14,-1073.6 821.22,-1073.6"/>
<text text-anchor="start" x="828.22" y="-1085.8" font-family="Arial" font-size="14.00">retired_at </text>
<text text-anchor="start" x="891.26" y="-1085.8" font-family="Arial" font-size="14.00" fill="#666666">[timestamp with time zone]</text>
<polygon fill="none" stroke="black" points="821.22,-1042.8 821.22,-1073.6 1108.14,-1073.6 1108.14,-1042.8 821.22,-1042.8"/>
<text text-anchor="start" x="828.22" y="-1055" font-family="Arial" font-size="14.00">cable_kind </text>
<text text-anchor="start" x="899.05" y="-1055" font-family="Arial" font-size="14.00" fill="#666666">[varchar]</text>
<polygon fill="none" stroke="black" points="821.22,-1012 821.22,-1042.8 1108.14,-1042.8 1108.14,-1012 821.22,-1012"/>
<text text-anchor="start" x="828.22" y="-1024.2" font-family="Arial" font-size="14.00">rated_voltage </text>
<text text-anchor="start" x="916.95" y="-1024.2" font-family="Arial" font-size="14.00" fill="#666666">[integer]</text>
<polygon fill="none" stroke="black" points="821.22,-981.2 821.22,-1012 1108.14,-1012 1108.14,-981.2 821.22,-981.2"/>
<text text-anchor="start" x="828.22" y="-993.4" font-family="Arial" font-size="14.00">rated_current_ma </text>
<text text-anchor="start" x="942.62" y="-993.4" font-family="Arial" font-size="14.00" fill="#666666">[integer]</text>
</g>
<!-- public.cable_catalog&#45;&gt;public.vendor -->
<g id="edge3" class="edge">
<title>public.cable_catalog:vendor_id&#45;&gt;public.vendor:id</title>
<path fill="none" stroke="black" d="M1119.11,-1241.05C1173.61,-1218.12 1137.19,-999.07 1159.68,-938 1183.57,-873.17 1170.75,-804.8 1239.84,-804.8"/>
<polygon fill="black" stroke="black" points="1119.29,-1241.02 1108.61,-1238.52 1114.05,-1242.04 1109.8,-1242.87 1109.8,-1242.87 1109.8,-1242.87 1114.05,-1242.04 1110.33,-1247.35 1119.29,-1241.02"/>
<text text-anchor="start" x="1116.14" y="-1253" font-family="Arial" font-size="10.00">FOREIGN KEY (vendor_id) REFERENCES vendor(id)</text>
</g>
<!-- public.software_catalog -->
<g id="node5" class="node">
<title>public.software_catalog</title>
<polygon fill="#efefef" stroke="none" points="1212.22,-1366.2 1212.22,-1401.8 1523.14,-1401.8 1523.14,-1366.2 1212.22,-1366.2"/>
<polygon fill="none" stroke="black" points="1212.22,-1366.2 1212.22,-1401.8 1523.14,-1401.8 1523.14,-1366.2 1212.22,-1366.2"/>
<text text-anchor="start" x="1219.22" y="-1379.6" font-family="Arial Bold" font-size="18.00">public.software_catalog</text>
<text text-anchor="start" x="1391.65" y="-1379.6" font-family="Arial" font-size="14.00">    </text>
<text text-anchor="start" x="1422.77" y="-1379.6" font-family="Arial" font-size="14.00" fill="#666666">[BASE TABLE]</text>
<polygon fill="none" stroke="black" points="1212.22,-1335.4 1212.22,-1366.2 1523.14,-1366.2 1523.14,-1335.4 1212.22,-1335.4"/>
<text text-anchor="start" x="1219.22" y="-1347.6" font-family="Arial" font-size="14.00">id </text>
<text text-anchor="start" x="1234.01" y="-1347.6" font-family="Arial" font-size="14.00" fill="#666666">[integer]</text>
<polygon fill="none" stroke="black" points="1212.22,-1304.6 1212.22,-1335.4 1523.14,-1335.4 1523.14,-1304.6 1212.22,-1304.6"/>
<text text-anchor="start" x="1219.22" y="-1316.8" font-family="Arial" font-size="14.00">name </text>
<text text-anchor="start" x="1258.13" y="-1316.8" font-family="Arial" font-size="14.00" fill="#666666">[varchar]</text>
<polygon fill="none" stroke="black" points="1212.22,-1273.8 1212.22,-1304.6 1523.14,-1304.6 1523.14,-1273.8 1212.22,-1273.8"/>
<text text-anchor="start" x="1219.22" y="-1286" font-family="Arial" font-size="14.00">vendor_id </text>
<text text-anchor="start" x="1284.6" y="-1286" font-family="Arial" font-size="14.00" fill="#666666">[integer]</text>
<polygon fill="none" stroke="black" points="1212.22,-1243 1212.22,-1273.8 1523.14,-1273.8 1523.14,-1243 1212.22,-1243"/>
<text text-anchor="start" x="1219.22" y="-1255.2" font-family="Arial" font-size="14.00">version </text>
<text text-anchor="start" x="1268.24" y="-1255.2" font-family="Arial" font-size="14.00" fill="#666666">[varchar]</text>
<polygon fill="none" stroke="black" points="1212.22,-1212.2 1212.22,-1243 1523.14,-1243 1523.14,-1212.2 1212.22,-1212.2"/>
<text text-anchor="start" x="1219.22" y="-1224.4" font-family="Arial" font-size="14.00">category </text>
<text text-anchor="start" x="1276.81" y="-1224.4" font-family="Arial" font-size="14.00" fill="#666666">[varchar]</text>
<polygon fill="none" stroke="black" points="1212.22,-1181.4 1212.22,-1212.2 1523.14,-1212.2 1523.14,-1181.4 1212.22,-1181.4"/>
<text text-anchor="start" x="1219.22" y="-1193.6" font-family="Arial" font-size="14.00">purl </text>
<text text-anchor="start" x="1246.46" y="-1193.6" font-family="Arial" font-size="14.00" fill="#666666">[varchar]</text>
<polygon fill="none" stroke="black" points="1212.22,-1150.6 1212.22,-1181.4 1523.14,-1181.4 1523.14,-1150.6 1212.22,-1150.6"/>
<text text-anchor="start" x="1219.22" y="-1162.8" font-family="Arial" font-size="14.00">license_expression </text>
<text text-anchor="start" x="1342.18" y="-1162.8" font-family="Arial" font-size="14.00" fill="#666666">[varchar]</text>
<polygon fill="none" stroke="black" points="1212.22,-1119.8 1212.22,-1150.6 1523.14,-1150.6 1523.14,-1119.8 1212.22,-1119.8"/>
<text text-anchor="start" x="1219.22" y="-1132" font-family="Arial" font-size="14.00">spec_json </text>
<text text-anchor="start" x="1286.15" y="-1132" font-family="Arial" font-size="14.00" fill="#666666">[text]</text>
<polygon fill="none" stroke="black" points="1212.22,-1089 1212.22,-1119.8 1523.14,-1119.8 1523.14,-1089 1212.22,-1089"/>
<text text-anchor="start" x="1219.22" y="-1101.2" font-family="Arial" font-size="14.00">created_by </text>
<text text-anchor="start" x="1292.38" y="-1101.2" font-family="Arial" font-size="14.00" fill="#666666">[integer]</text>
<polygon fill="none" stroke="black" points="1212.22,-1058.2 1212.22,-1089 1523.14,-1089 1523.14,-1058.2 1212.22,-1058.2"/>
<text text-anchor="start" x="1219.22" y="-1070.4" font-family="Arial" font-size="14.00">created_at </text>
<text text-anchor="start" x="1289.27" y="-1070.4" font-family="Arial" font-size="14.00" fill="#666666">[timestamp with time zone]</text>
<polygon fill="none" stroke="black" points="1212.22,-1027.4 1212.22,-1058.2 1523.14,-1058.2 1523.14,-1027.4 1212.22,-1027.4"/>
<text text-anchor="start" x="1219.22" y="-1039.6" font-family="Arial" font-size="14.00">updated_at </text>
<text text-anchor="start" x="1293.18" y="-1039.6" font-family="Arial" font-size="14.00" fill="#666666">[timestamp with time zone]</text>
<polygon fill="none" stroke="black" points="1212.22,-996.6 1212.22,-1027.4 1523.14,-1027.4 1523.14,-996.6 1212.22,-996.6"/>
<text text-anchor="start" x="1219.22" y="-1008.8" font-family="Arial" font-size="14.00">retired_at </text>
<text text-anchor="start" x="1282.26" y="-1008.8" font-family="Arial" font-size="14.00" fill="#666666">[timestamp with time zone]</text>
</g>
<!-- public.software_catalog&#45;&gt;public.vendor -->
<g id="edge4" class="edge">
<title>public.software_catalog:vendor_id&#45;&gt;public.vendor:id</title>
<path fill="none" stroke="black" d="M1533.04,-1284.09C1574.5,-1232.32 1546.18,-804.8 1495.52,-804.8"/>
<polygon fill="black" stroke="black" points="1533.1,-1284.05 1522.19,-1285.13 1528.48,-1286.71 1524.72,-1288.87 1524.72,-1288.87 1524.72,-1288.87 1528.48,-1286.71 1526.68,-1292.94 1533.1,-1284.05"/>
<text text-anchor="start" x="1403.83" y="-1273.2" font-family="Arial" font-size="10.00">FOREIGN KEY (vendor_id) REFERENCES vendor(id)</text>
</g>
<!-- public.purchase_order -->
<g id="node6" class="node">
<title>public.purchase_order</title>
<polygon fill="#efefef" stroke="none" points="1627.22,-1289.2 1627.22,-1324.8 1926.15,-1324.8 1926.15,-1289.2 1627.22,-1289.2"/>
<polygon fill="none" stroke="black" points="1627.22,-1289.2 1627.22,-1324.8 1926.15,-1324.8 1926.15,-1289.2 1627.22,-1289.2"/>
<text text-anchor="start" x="1634.22" y="-1302.6" font-family="Arial Bold" font-size="18.00">public.purchase_order</text>
<text text-anchor="start" x="1794.66" y="-1302.6" font-family="Arial" font-size="14.00">    </text>
<text text-anchor="start" x="1825.77" y="-1302.6" font-family="Arial" font-size="14.00" fill="#666666">[BASE TABLE]</text>
<polygon fill="none" stroke="black" points="1627.22,-1258.4 1627.22,-1289.2 1926.15,-1289.2 1926.15,-1258.4 1627.22,-1258.4"/>
<text text-anchor="start" x="1634.22" y="-1270.6" font-family="Arial" font-size="14.00">id </text>
<text text-anchor="start" x="1649.01" y="-1270.6" font-family="Arial" font-size="14.00" fill="#666666">[integer]</text>
<polygon fill="none" stroke="black" points="1627.22,-1227.6 1627.22,-1258.4 1926.15,-1258.4 1926.15,-1227.6 1627.22,-1227.6"/>
<text text-anchor="start" x="1634.22" y="-1239.8" font-family="Arial" font-size="14.00">order_number </text>
<text text-anchor="start" x="1726.05" y="-1239.8" font-family="Arial" font-size="14.00" fill="#666666">[varchar]</text>
<polygon fill="none" stroke="black" points="1627.22,-1196.8 1627.22,-1227.6 1926.15,-1227.6 1926.15,-1196.8 1627.22,-1196.8"/>
<text text-anchor="start" x="1634.22" y="-1209" font-family="Arial" font-size="14.00">order_date </text>
<text text-anchor="start" x="1705.83" y="-1209" font-family="Arial" font-size="14.00" fill="#666666">[date]</text>
<polygon fill="none" stroke="black" points="1627.22,-1166 1627.22,-1196.8 1926.15,-1196.8 1926.15,-1166 1627.22,-1166"/>
<text text-anchor="start" x="1634.22" y="-1178.2" font-family="Arial" font-size="14.00">vendor_id </text>
<text text-anchor="start" x="1699.6" y="-1178.2" font-family="Arial" font-size="14.00" fill="#666666">[integer]</text>
<polygon fill="none" stroke="black" points="1627.22,-1135.2 1627.22,-1166 1926.15,-1166 1926.15,-1135.2 1627.22,-1135.2"/>
<text text-anchor="start" x="1634.22" y="-1147.4" font-family="Arial" font-size="14.00">currency </text>
<text text-anchor="start" x="1691.79" y="-1147.4" font-family="Arial" font-size="14.00" fill="#666666">[varchar]</text>
<polygon fill="none" stroke="black" points="1627.22,-1104.4 1627.22,-1135.2 1926.15,-1135.2 1926.15,-1104.4 1627.22,-1104.4"/>
<text text-anchor="start" x="1634.22" y="-1116.6" font-family="Arial" font-size="14.00">created_at </text>
<text text-anchor="start" x="1704.27" y="-1116.6" font-family="Arial" font-size="14.00" fill="#666666">[timestamp with time zone]</text>
<polygon fill="none" stroke="black" points="1627.22,-1073.6 1627.22,-1104.4 1926.15,-1104.4 1926.15,-1073.6 1627.22,-1073.6"/>
<text text-anchor="start" x="1634.22" y="-1085.8" font-family="Arial" font-size="14.00">updated_at </text>
<text text-anchor="start" x="1708.18" y="-1085.8" font-family="Arial" font-size="14.00" fill="#666666">[timestamp with time zone]</text>
</g>
<!-- public.purchase_order&#45;&gt;public.vendor -->
<g id="edge5" class="edge">
<title>public.purchase_order:vendor_id&#45;&gt;public.vendor:id</title>
<path fill="none" stroke="black" d="M1616.24,-1178.96C1574.08,-1156.52 1594.49,-986.02 1575.68,-938 1550.49,-873.66 1564.62,-804.8 1495.52,-804.8"/>
<polygon fill="black" stroke="black" points="1616.18,-1178.94 1624.83,-1185.69 1621.36,-1180.21 1625.57,-1181.24 1625.57,-1181.24 1625.57,-1181.24 1621.36,-1180.21 1626.97,-1176.95 1616.18,-1178.94"/>
<text text-anchor="start" x="1378.6" y="-1191.4" font-family="Arial" font-size="10.00">FOREIGN KEY (vendor_id) REFERENCES vendor(id)</text>
</g>
<!-- public.maintenance_contract -->
<g id="node7" class="node">
<title>public.maintenance_contract</title>
<polygon fill="#efefef" stroke="none" points="2030.74,-1350.8 2030.74,-1386.4 2376.63,-1386.4 2376.63,-1350.8 2030.74,-1350.8"/>
<polygon fill="none" stroke="black" points="2030.74,-1350.8 2030.74,-1386.4 2376.63,-1386.4 2376.63,-1350.8 2030.74,-1350.8"/>
<text text-anchor="start" x="2037.74" y="-1364.2" font-family="Arial Bold" font-size="18.00">public.maintenance_contract</text>
<text text-anchor="start" x="2245.14" y="-1364.2" font-family="Arial" font-size="14.00">    </text>
<text text-anchor="start" x="2276.26" y="-1364.2" font-family="Arial" font-size="14.00" fill="#666666">[BASE TABLE]</text>
<polygon fill="none" stroke="black" points="2030.74,-1320 2030.74,-1350.8 2376.63,-1350.8 2376.63,-1320 2030.74,-1320"/>
<text text-anchor="start" x="2037.74" y="-1332.2" font-family="Arial" font-size="14.00">id </text>
<text text-anchor="start" x="2052.52" y="-1332.2" font-family="Arial" font-size="14.00" fill="#666666">[integer]</text>
<polygon fill="none" stroke="black" points="2030.74,-1289.2 2030.74,-1320 2376.63,-1320 2376.63,-1289.2 2030.74,-1289.2"/>
<text text-anchor="start" x="2037.74" y="-1301.4" font-family="Arial" font-size="14.00">contract_number </text>
<text text-anchor="start" x="2146.68" y="-1301.4" font-family="Arial" font-size="14.00" fill="#666666">[varchar]</text>
<polygon fill="none" stroke="black" points="2030.74,-1258.4 2030.74,-1289.2 2376.63,-1289.2 2376.63,-1258.4 2030.74,-1258.4"/>
<text text-anchor="start" x="2037.74" y="-1270.6" font-family="Arial" font-size="14.00">vendor_id </text>
<text text-anchor="start" x="2103.12" y="-1270.6" font-family="Arial" font-size="14.00" fill="#666666">[integer]</text>
<polygon fill="none" stroke="black" points="2030.74,-1227.6 2030.74,-1258.4 2376.63,-1258.4 2376.63,-1227.6 2030.74,-1227.6"/>
<text text-anchor="start" x="2037.74" y="-1239.8" font-family="Arial" font-size="14.00">start_date </text>
<text text-anchor="start" x="2103.89" y="-1239.8" font-family="Arial" font-size="14.00" fill="#666666">[date]</text>
<polygon fill="none" stroke="black" points="2030.74,-1196.8 2030.74,-1227.6 2376.63,-1227.6 2376.63,-1196.8 2030.74,-1196.8"/>
<text text-anchor="start" x="2037.74" y="-1209" font-family="Arial" font-size="14.00">end_date </text>
<text text-anchor="start" x="2100.02" y="-1209" font-family="Arial" font-size="14.00" fill="#666666">[date]</text>
<polygon fill="none" stroke="black" points="2030.74,-1166 2030.74,-1196.8 2376.63,-1196.8 2376.63,-1166 2030.74,-1166"/>
<text text-anchor="start" x="2037.74" y="-1178.2" font-family="Arial" font-size="14.00">amount </text>
<text text-anchor="start" x="2088.32" y="-1178.2" font-family="Arial" font-size="14.00" fill="#666666">[bigint]</text>
<polygon fill="none" stroke="black" points="2030.74,-1135.2 2030.74,-1166 2376.63,-1166 2376.63,-1135.2 2030.74,-1135.2"/>
<text text-anchor="start" x="2037.74" y="-1147.4" font-family="Arial" font-size="14.00">quote_contact </text>
<text text-anchor="start" x="2129.58" y="-1147.4" font-family="Arial" font-size="14.00" fill="#666666">[varchar]</text>
<polygon fill="none" stroke="black" points="2030.74,-1104.4 2030.74,-1135.2 2376.63,-1135.2 2376.63,-1104.4 2030.74,-1104.4"/>
<text text-anchor="start" x="2037.74" y="-1116.6" font-family="Arial" font-size="14.00">failure_contact </text>
<text text-anchor="start" x="2132.68" y="-1116.6" font-family="Arial" font-size="14.00" fill="#666666">[varchar]</text>
<polygon fill="none" stroke="black" points="2030.74,-1073.6 2030.74,-1104.4 2376.63,-1104.4 2376.63,-1073.6 2030.74,-1073.6"/>
<text text-anchor="start" x="2037.74" y="-1085.8" font-family="Arial" font-size="14.00">purchase_order_id </text>
<text text-anchor="start" x="2158.37" y="-1085.8" font-family="Arial" font-size="14.00" fill="#666666">[integer]</text>
<polygon fill="none" stroke="black" points="2030.74,-1042.8 2030.74,-1073.6 2376.63,-1073.6 2376.63,-1042.8 2030.74,-1042.8"/>
<text text-anchor="start" x="2037.74" y="-1055" font-family="Arial" font-size="14.00">created_at </text>
<text text-anchor="start" x="2107.78" y="-1055" font-family="Arial" font-size="14.00" fill="#666666">[timestamp with time zone]</text>
<polygon fill="none" stroke="black" points="2030.74,-1012 2030.74,-1042.8 2376.63,-1042.8 2376.63,-1012 2030.74,-1012"/>
<text text-anchor="start" x="2037.74" y="-1024.2" font-family="Arial" font-size="14.00">updated_at </text>
<text text-anchor="start" x="2111.69" y="-1024.2" font-family="Arial" font-size="14.00" fill="#666666">[timestamp with time zone]</text>
</g>
<!-- public.maintenance_contract&#45;&gt;public.vendor -->
<g id="edge6" class="edge">
<title>public.maintenance_contract:vendor_id&#45;&gt;public.vendor:id</title>
<path fill="none" stroke="black" d="M2019.72,-1271.86C1961.24,-1247.05 2026.36,-991.67 1978.68,-938 1904.72,-854.74 1606.9,-804.8 1495.52,-804.8"/>
<polygon fill="black" stroke="black" points="2019.59,-1271.83 2028.55,-1278.15 2024.83,-1272.85 2029.08,-1273.67 2029.08,-1273.67 2029.08,-1273.67 2024.83,-1272.85 2030.26,-1269.32 2019.59,-1271.83"/>
<text text-anchor="start" x="1845.77" y="-1257.8" font-family="Arial" font-size="10.00">FOREIGN KEY (vendor_id) REFERENCES vendor(id)</text>
</g>
<!-- public.recurring_cost -->
<g id="node8" class="node">
<title>public.recurring_cost</title>
<polygon fill="#efefef" stroke="none" points="2480.71,-1366.2 2480.71,-1401.8 2772.65,-1401.8 2772.65,-1366.2 2480.71,-1366.2"/>
<polygon fill="none" stroke="black" points="2480.71,-1366.2 2480.71,-1401.8 2772.65,-1401.8 2772.65,-1366.2 2480.71,-1366.2"/>
<text text-anchor="start" x="2487.71" y="-1379.6" font-family="Arial Bold" font-size="18.00">public.recurring_cost</text>
<text text-anchor="start" x="2641.16" y="-1379.6" font-family="Arial" font-size="14.00">    </text>
<text text-anchor="start" x="2672.28" y="-1379.6" font-family="Arial" font-size="14.00" fill="#666666">[BASE TABLE]</text>
<polygon fill="none" stroke="black" points="2480.71,-1335.4 2480.71,-1366.2 2772.65,-1366.2 2772.65,-1335.4 2480.71,-1335.4"/>
<text text-anchor="start" x="2487.71" y="-1347.6" font-family="Arial" font-size="14.00">id </text>
<text text-anchor="start" x="2502.5" y="-1347.6" font-family="Arial" font-size="14.00" fill="#666666">[integer]</text>
<polygon fill="none" stroke="black" points="2480.71,-1304.6 2480.71,-1335.4 2772.65,-1335.4 2772.65,-1304.6 2480.71,-1304.6"/>
<text text-anchor="start" x="2487.71" y="-1316.8" font-family="Arial" font-size="14.00">item_type </text>
<text text-anchor="start" x="2552.3" y="-1316.8" font-family="Arial" font-size="14.00" fill="#666666">[varchar]</text>
<polygon fill="none" stroke="black" points="2480.71,-1273.8 2480.71,-1304.6 2772.65,-1304.6 2772.65,-1273.8 2480.71,-1273.8"/>
<text text-anchor="start" x="2487.71" y="-1286" font-family="Arial" font-size="14.00">item_id </text>
<text text-anchor="start" x="2536.73" y="-1286" font-family="Arial" font-size="14.00" fill="#666666">[integer]</text>
<polygon fill="none" stroke="black" points="2480.71,-1243 2480.71,-1273.8 2772.65,-1273.8 2772.65,-1243 2480.71,-1243"/>
<text text-anchor="start" x="2487.71" y="-1255.2" font-family="Arial" font-size="14.00">cost_type </text>
<text text-anchor="start" x="2551.53" y="-1255.2" font-family="Arial" font-size="14.00" fill="#666666">[varchar]</text>
<polygon fill="none" stroke="black" points="2480.71,-1212.2 2480.71,-1243 2772.65,-1243 2772.65,-1212.2 2480.71,-1212.2"/>
<text text-anchor="start" x="2487.71" y="-1224.4" font-family="Arial" font-size="14.00">vendor_id </text>
<text text-anchor="start" x="2553.09" y="-1224.4" font-family="Arial" font-size="14.00" fill="#666666">[integer]</text>
<polygon fill="none" stroke="black" points="2480.71,-1181.4 2480.71,-1212.2 2772.65,-1212.2 2772.65,-1181.4 2480.71,-1181.4"/>
<text text-anchor="start" x="2487.71" y="-1193.6" font-family="Arial" font-size="14.00">amount </text>
<text text-anchor="start" x="2538.3" y="-1193.6" font-family="Arial" font-size="14.00" fill="#666666">[bigint]</text>
<polygon fill="none" stroke="black" points="2480.71,-1150.6 2480.71,-1181.4 2772.65,-1181.4 2772.65,-1150.6 2480.71,-1150.6"/>
<text text-anchor="start" x="2487.71" y="-1162.8" font-family="Arial" font-size="14.00">billing_cycle </text>
<text text-anchor="start" x="2567.09" y="-1162.8" font-family="Arial" font-size="14.00" fill="#666666">[varchar]</text>
<polygon fill="none" stroke="black" points="2480.71,-1119.8 2480.71,-1150.6 2772.65,-1150.6 2772.65,-1119.8 2480.71,-1119.8"/>
<text text-anchor="start" x="2487.71" y="-1132" font-family="Arial" font-size="14.00">start_date </text>
<text text-anchor="start" x="2553.87" y="-1132" font-family="Arial" font-size="14.00" fill="#666666">[date]</text>
<polygon fill="none" stroke="black" points="2480.71,-1089 2480.71,-1119.8 2772.65,-1119.8 2772.65,-1089 2480.71,-1089"/>
<text text-anchor="start" x="2487.71" y="-1101.2" font-family="Arial" font-size="14.00">end_date </text>
<text text-anchor="start" x="2550" y="-1101.2" font-family="Arial" font-size="14.00" fill="#666666">[date]</text>
<polygon fill="none" stroke="black" points="2480.71,-1058.2 2480.71,-1089 2772.65,-1089 2772.65,-1058.2 2480.71,-1058.2"/>
<text text-anchor="start" x="2487.71" y="-1070.4" font-family="Arial" font-size="14.00">created_by </text>
<text text-anchor="start" x="2560.87" y="-1070.4" font-family="Arial" font-size="14.00" fill="#666666">[integer]</text>
<polygon fill="none" stroke="black" points="2480.71,-1027.4 2480.71,-1058.2 2772.65,-1058.2 2772.65,-1027.4 2480.71,-1027.4"/>
<text text-anchor="start" x="2487.71" y="-1039.6" font-family="Arial" font-size="14.00">created_at </text>
<text text-anchor="start" x="2557.76" y="-1039.6" font-family="Arial" font-size="14.00" fill="#666666">[timestamp with time zone]</text>
<polygon fill="none" stroke="black" points="2480.71,-996.6 2480.71,-1027.4 2772.65,-1027.4 2772.65,-996.6 2480.71,-996.6"/>
<text text-anchor="start" x="2487.71" y="-1008.8" font-family="Arial" font-size="14.00">updated_at </text>
<text text-anchor="start" x="2561.67" y="-1008.8" font-family="Arial" font-size="14.00" fill="#666666">[timestamp with time zone]</text>
</g>
<!-- public.recurring_cost&#45;&gt;public.vendor -->
<g id="edge7" class="edge">
<title>public.recurring_cost:vendor_id&#45;&gt;public.vendor:id</title>
<path fill="none" stroke="black" d="M2469.33,-1227.13C2358.64,-1216.43 2519.93,-1026.32 2428.68,-938 2353.43,-865.16 1600.26,-804.8 1495.52,-804.8"/>
<polygon fill="black" stroke="black" points="2469.39,-1227.13 2479.18,-1232.08 2474.72,-1227.37 2479.05,-1227.57 2479.05,-1227.57 2479.05,-1227.57 2474.72,-1227.37 2479.58,-1223.09 2469.39,-1227.13"/>
<text text-anchor="start" x="2295.75" y="-1211.6" font-family="Arial" font-size="10.00">FOREIGN KEY (vendor_id) REFERENCES vendor(id)</text>
</g>
</g>
</svg>
