<?xml version="1.0" encoding="UTF-8" standalone="no"?>
<!DOCTYPE svg PUBLIC "-//W3C//DTD SVG 1.1//EN"
 "http://www.w3.org/Graphics/SVG/1.1/DTD/svg11.dtd">
<!-- Generated by graphviz version 12.1.2 (20240928.0832)
 -->
<!-- Title: public.cable_connection Pages: 1 -->
<svg width="1570pt" height="787pt"
 viewBox="0.00 0.00 1569.85 786.80" xmlns="http://www.w3.org/2000/svg" xmlns:xlink="http://www.w3.org/1999/xlink">
<g id="graph0" class="graph" transform="scale(1 1) rotate(0) translate(4 782.8)">
<title>public.cable_connection</title>
<polygon fill="white" stroke="none" points="-4,4 -4,-782.8 1565.85,-782.8 1565.85,4 -4,4"/>
<!-- public.cable_connection -->
<g id="node1" class="node">
<title>public.cable_connection</title>
<polygon fill="#efefef" stroke="none" points="629.2,-697 629.2,-732.6 943.12,-732.6 943.12,-697 629.2,-697"/>
<polygon fill="none" stroke="black" points="629.2,-697 629.2,-732.6 943.12,-732.6 943.12,-697 629.2,-697"/>
<text text-anchor="start" x="636.2" y="-710.4" font-family="Arial Bold" font-size="18.00">public.cable_connection</text>
<text text-anchor="start" x="811.63" y="-710.4" font-family="Arial" font-size="14.00">    </text>
<text text-anchor="start" x="842.75" y="-710.4" font-family="Arial" font-size="14.00" fill="#666666">[BASE TABLE]</text>
<polygon fill="none" stroke="black" points="629.2,-666.2 629.2,-697 943.12,-697 943.12,-666.2 629.2,-666.2"/>
<text text-anchor="start" x="636.2" y="-678.4" font-family="Arial" font-size="14.00">id </text>
<text text-anchor="start" x="650.99" y="-678.4" font-family="Arial" font-size="14.00" fill="#666666">[integer]</text>
<polygon fill="none" stroke="black" points="629.2,-635.4 629.2,-666.2 943.12,-666.2 943.12,-635.4 629.2,-635.4"/>
<text text-anchor="start" x="636.2" y="-647.6" font-family="Arial" font-size="14.00">cable_instance_id </text>
<text text-anchor="start" x="752.17" y="-647.6" font-family="Arial" font-size="14.00" fill="#666666">[integer]</text>
<polygon fill="none" stroke="black" points="629.2,-604.6 629.2,-635.4 943.12,-635.4 943.12,-604.6 629.2,-604.6"/>
<text text-anchor="start" x="636.2" y="-616.8" font-family="Arial" font-size="14.00">cable_end_slot_id </text>
<text text-anchor="start" x="752.96" y="-616.8" font-family="Arial" font-size="14.00" fill="#666666">[integer]</text>
<polygon fill="none" stroke="black" points="629.2,-573.8 629.2,-604.6 943.12,-604.6 943.12,-573.8 629.2,-573.8"/>
<text text-anchor="start" x="636.2" y="-586" font-family="Arial" font-size="14.00">part_instance_id </text>
<text text-anchor="start" x="742.83" y="-586" font-family="Arial" font-size="14.00" fill="#666666">[integer]</text>
<polygon fill="none" stroke="black" points="629.2,-543 629.2,-573.8 943.12,-573.8 943.12,-543 629.2,-543"/>
<text text-anchor="start" x="636.2" y="-555.2" font-family="Arial" font-size="14.00">port_slot_id </text>
<text text-anchor="start" x="712.47" y="-555.2" font-family="Arial" font-size="14.00" fill="#666666">[integer]</text>
<polygon fill="none" stroke="black" points="629.2,-512.2 629.2,-543 943.12,-543 943.12,-512.2 629.2,-512.2"/>
<text text-anchor="start" x="636.2" y="-524.4" font-family="Arial" font-size="14.00">work_order_id </text>
<text text-anchor="start" x="728.8" y="-524.4" font-family="Arial" font-size="14.00" fill="#666666">[integer]</text>
<polygon fill="none" stroke="black" points="629.2,-481.4 629.2,-512.2 943.12,-512.2 943.12,-481.4 629.2,-481.4"/>
<text text-anchor="start" x="636.2" y="-493.6" font-family="Arial" font-size="14.00">from_date </text>
<text text-anchor="start" x="703.13" y="-493.6" font-family="Arial" font-size="14.00" fill="#666666">[timestamp with time zone]</text>
<polygon fill="none" stroke="black" points="629.2,-450.6 629.2,-481.4 943.12,-481.4 943.12,-450.6 629.2,-450.6"/>
<text text-anchor="start" x="636.2" y="-462.8" font-family="Arial" font-size="14.00">to_date </text>
<text text-anchor="start" x="686.8" y="-462.8" font-family="Arial" font-size="14.00" fill="#666666">[timestamp with time zone]</text>
<polygon fill="none" stroke="black" stroke-width="3" points="627.7,-449.1 627.7,-734.1 944.62,-734.1 944.62,-449.1 627.7,-449.1"/>
</g>
<!-- public.cable_instance -->
<g id="node2" class="node">
<title>public.cable_instance</title>
<polygon fill="#efefef" stroke="none" points="43.2,-274.2 43.2,-309.8 337.12,-309.8 337.12,-274.2 43.2,-274.2"/>
<polygon fill="none" stroke="black" points="43.2,-274.2 43.2,-309.8 337.12,-309.8 337.12,-274.2 43.2,-274.2"/>
<text text-anchor="start" x="50.2" y="-287.6" font-family="Arial Bold" font-size="18.00">public.cable_instance</text>
<text text-anchor="start" x="205.63" y="-287.6" font-family="Arial" font-size="14.00">    </text>
<text text-anchor="start" x="236.75" y="-287.6" font-family="Arial" font-size="14.00" fill="#666666">[BASE TABLE]</text>
<polygon fill="none" stroke="black" points="43.2,-243.4 43.2,-274.2 337.12,-274.2 337.12,-243.4 43.2,-243.4"/>
<text text-anchor="start" x="50.2" y="-255.6" font-family="Arial" font-size="14.00">id </text>
<text text-anchor="start" x="64.99" y="-255.6" font-family="Arial" font-size="14.00" fill="#666666">[integer]</text>
<polygon fill="none" stroke="black" points="43.2,-212.6 43.2,-243.4 337.12,-243.4 337.12,-212.6 43.2,-212.6"/>
<text text-anchor="start" x="50.2" y="-224.8" font-family="Arial" font-size="14.00">cable_catalog_id </text>
<text text-anchor="start" x="159.17" y="-224.8" font-family="Arial" font-size="14.00" fill="#666666">[integer]</text>
<polygon fill="none" stroke="black" points="43.2,-181.8 43.2,-212.6 337.12,-212.6 337.12,-181.8 43.2,-181.8"/>
<text text-anchor="start" x="50.2" y="-194" font-family="Arial" font-size="14.00">serial_number </text>
<text text-anchor="start" x="142.8" y="-194" font-family="Arial" font-size="14.00" fill="#666666">[varchar]</text>
<polygon fill="none" stroke="black" points="43.2,-151 43.2,-181.8 337.12,-181.8 337.12,-151 43.2,-151"/>
<text text-anchor="start" x="50.2" y="-163.2" font-family="Arial" font-size="14.00">asset_number </text>
<text text-anchor="start" x="142.81" y="-163.2" font-family="Arial" font-size="14.00" fill="#666666">[varchar]</text>
<polygon fill="none" stroke="black" points="43.2,-120.2 43.2,-151 337.12,-151 337.12,-120.2 43.2,-120.2"/>
<text text-anchor="start" x="50.2" y="-132.4" font-family="Arial" font-size="14.00">status </text>
<text text-anchor="start" x="91.44" y="-132.4" font-family="Arial" font-size="14.00" fill="#666666">[varchar]</text>
<polygon fill="none" stroke="black" points="43.2,-89.4 43.2,-120.2 337.12,-120.2 337.12,-89.4 43.2,-89.4"/>
<text text-anchor="start" x="50.2" y="-101.6" font-family="Arial" font-size="14.00">created_at </text>
<text text-anchor="start" x="120.25" y="-101.6" font-family="Arial" font-size="14.00" fill="#666666">[timestamp with time zone]</text>
<polygon fill="none" stroke="black" points="43.2,-58.6 43.2,-89.4 337.12,-89.4 337.12,-58.6 43.2,-58.6"/>
<text text-anchor="start" x="50.2" y="-70.8" font-family="Arial" font-size="14.00">updated_at </text>
<text text-anchor="start" x="124.16" y="-70.8" font-family="Arial" font-size="14.00" fill="#666666">[timestamp with time zone]</text>
</g>
<!-- public.cable_connection&#45;&gt;public.cable_instance -->
<g id="edge1" class="edge">
<title>public.cable_connection:cable_instance_id&#45;&gt;public.cable_instance:id</title>
<path fill="none" stroke="black" d="M617.85,-650.6C464.32,-644.62 475.87,-503.94 389.16,-368.4 360.21,-323.14 391.86,-258.8 338.12,-258.8"/>
<polygon fill="black" stroke="black" points="617.87,-650.6 627.78,-655.29 623.2,-650.7 627.53,-650.79 627.53,-650.79 627.53,-650.79 623.2,-650.7 627.95,-646.29 617.87,-650.6"/>
<text text-anchor="start" x="308.3" y="-660.8" font-family="Arial" font-size="10.00">FOREIGN KEY (cable_instance_id) REFERENCES cable_instance(id)</text>
</g>
<!-- public.cable_end_slot -->
<g id="node3" class="node">
<title>public.cable_end_slot</title>
<polygon fill="#efefef" stroke="none" points="441.19,-274.2 441.19,-309.8 737.13,-309.8 737.13,-274.2 441.19,-274.2"/>
<polygon fill="none" stroke="black" points="441.19,-274.2 441.19,-309.8 737.13,-309.8 737.13,-274.2 441.19,-274.2"/>
<text text-anchor="start" x="448.19" y="-287.6" font-family="Arial Bold" font-size="18.00">public.cable_end_slot</text>
<text text-anchor="start" x="605.65" y="-287.6" font-family="Arial" font-size="14.00">    </text>
<text text-anchor="start" x="636.76" y="-287.6" font-family="Arial" font-size="14.00" fill="#666666">[BASE TABLE]</text>
<polygon fill="none" stroke="black" points="441.19,-243.4 441.19,-274.2 737.13,-274.2 737.13,-243.4 441.19,-243.4"/>
<text text-anchor="start" x="448.19" y="-255.6" font-family="Arial" font-size="14.00">id </text>
<text text-anchor="start" x="462.98" y="-255.6" font-family="Arial" font-size="14.00" fill="#666666">[integer]</text>
<polygon fill="none" stroke="black" points="441.19,-212.6 441.19,-243.4 737.13,-243.4 737.13,-212.6 441.19,-212.6"/>
<text text-anchor="start" x="448.19" y="-224.8" font-family="Arial" font-size="14.00">cable_catalog_id </text>
<text text-anchor="start" x="557.16" y="-224.8" font-family="Arial" font-size="14.00" fill="#666666">[integer]</text>
<polygon fill="none" stroke="black" points="441.19,-181.8 441.19,-212.6 737.13,-212.6 737.13,-181.8 441.19,-181.8"/>
<text text-anchor="start" x="448.19" y="-194" font-family="Arial" font-size="14.00">end_label </text>
<text text-anchor="start" x="512.8" y="-194" font-family="Arial" font-size="14.00" fill="#666666">[varchar]</text>
<polygon fill="none" stroke="black" points="441.19,-151 441.19,-181.8 737.13,-181.8 737.13,-151 441.19,-151"/>
<text text-anchor="start" x="448.19" y="-163.2" font-family="Arial" font-size="14.00">connector_type </text>
<text text-anchor="start" x="547.81" y="-163.2" font-family="Arial" font-size="14.00" fill="#666666">[varchar]</text>
<polygon fill="none" stroke="black" points="441.19,-120.2 441.19,-151 737.13,-151 737.13,-120.2 441.19,-120.2"/>
<text text-anchor="start" x="448.19" y="-132.4" font-family="Arial" font-size="14.00">port_speed </text>
<text text-anchor="start" x="522.13" y="-132.4" font-family="Arial" font-size="14.00" fill="#666666">[varchar]</text>
<polygon fill="none" stroke="black" points="441.19,-89.4 441.19,-120.2 737.13,-120.2 737.13,-89.4 441.19,-89.4"/>
<text text-anchor="start" x="448.19" y="-101.6" font-family="Arial" font-size="14.00">created_at </text>
<text text-anchor="start" x="518.24" y="-101.6" font-family="Arial" font-size="14.00" fill="#666666">[timestamp with time zone]</text>
<polygon fill="none" stroke="black" points="441.19,-58.6 441.19,-89.4 737.13,-89.4 737.13,-58.6 441.19,-58.6"/>
<text text-anchor="start" x="448.19" y="-70.8" font-family="Arial" font-size="14.00">updated_at </text>
<text text-anchor="start" x="522.15" y="-70.8" font-family="Arial" font-size="14.00" fill="#666666">[timestamp with time zone]</text>
</g>
<!-- public.cable_connection&#45;&gt;public.cable_end_slot -->
<g id="edge2" class="edge">
<title>public.cable_connection:cable_end_slot_id&#45;&gt;public.cable_end_slot:id</title>
<path fill="none" stroke="black" d="M617.86,-619.42C535.85,-609.82 579.81,-482.22 629.2,-404.4 657.67,-359.54 708.53,-397.78 737.13,-353 759.67,-317.72 780,-258.8 738.13,-258.8"/>
<polygon fill="black" stroke="black" points="617.88,-619.43 627.62,-624.47 623.21,-619.72 627.53,-619.96 627.53,-619.96 627.53,-619.96 623.21,-619.72 628.12,-615.49 617.88,-619.43"/>
<text text-anchor="start" x="307.18" y="-630" font-family="Arial" font-size="10.00">FOREIGN KEY (cable_end_slot_id) REFERENCES cable_end_slot(id)</text>
</g>
<!-- public.part_instance -->
<g id="node4" class="node">
<title>public.part_instance</title>
<polygon fill="#efefef" stroke="none" points="841.19,-258.8 841.19,-294.4 1125.13,-294.4 1125.13,-258.8 841.19,-258.8"/>
<polygon fill="none" stroke="black" points="841.19,-258.8 841.19,-294.4 1125.13,-294.4 1125.13,-258.8 841.19,-258.8"/>
<text text-anchor="start" x="848.19" y="-272.2" font-family="Arial Bold" font-size="18.00">public.part_instance</text>
<text text-anchor="start" x="993.64" y="-272.2" font-family="Arial" font-size="14.00">    </text>
<text text-anchor="start" x="1024.76" y="-272.2" font-family="Arial" font-size="14.00" fill="#666666">[BASE TABLE]</text>
<polygon fill="none" stroke="black" points="841.19,-228 841.19,-258.8 1125.13,-258.8 1125.13,-228 841.19,-228"/>
<text text-anchor="start" x="848.19" y="-240.2" font-family="Arial" font-size="14.00">id </text>
<text text-anchor="start" x="862.98" y="-240.2" font-family="Arial" font-size="14.00" fill="#666666">[integer]</text>
<polygon fill="none" stroke="black" points="841.19,-197.2 841.19,-228 1125.13,-228 1125.13,-197.2 841.19,-197.2"/>
<text text-anchor="start" x="848.19" y="-209.4" font-family="Arial" font-size="14.00">part_catalog_id </text>
<text text-anchor="start" x="947.82" y="-209.4" font-family="Arial" font-size="14.00" fill="#666666">[integer]</text>
<polygon fill="none" stroke="black" points="841.19,-166.4 841.19,-197.2 1125.13,-197.2 1125.13,-166.4 841.19,-166.4"/>
<text text-anchor="start" x="848.19" y="-178.6" font-family="Arial" font-size="14.00">serial_number </text>
<text text-anchor="start" x="940.79" y="-178.6" font-family="Arial" font-size="14.00" fill="#666666">[varchar]</text>
<polygon fill="none" stroke="black" points="841.19,-135.6 841.19,-166.4 1125.13,-166.4 1125.13,-135.6 841.19,-135.6"/>
<text text-anchor="start" x="848.19" y="-147.8" font-family="Arial" font-size="14.00">status </text>
<text text-anchor="start" x="889.43" y="-147.8" font-family="Arial" font-size="14.00" fill="#666666">[varchar]</text>
<polygon fill="none" stroke="black" points="841.19,-104.8 841.19,-135.6 1125.13,-135.6 1125.13,-104.8 841.19,-104.8"/>
<text text-anchor="start" x="848.19" y="-117" font-family="Arial" font-size="14.00">created_at </text>
<text text-anchor="start" x="918.24" y="-117" font-family="Arial" font-size="14.00" fill="#666666">[timestamp with time zone]</text>
<polygon fill="none" stroke="black" points="841.19,-74 841.19,-104.8 1125.13,-104.8 1125.13,-74 841.19,-74"/>
<text text-anchor="start" x="848.19" y="-86.2" font-family="Arial" font-size="14.00">updated_at </text>
<text text-anchor="start" x="922.15" y="-86.2" font-family="Arial" font-size="14.00" fill="#666666">[timestamp with time zone]</text>
</g>
<!-- public.cable_connection&#45;&gt;public.part_instance -->
<g id="edge3" class="edge">
<title>public.cable_connection:part_instance_id&#45;&gt;public.part_instance:id</title>
<path fill="none" stroke="black" d="M954.44,-588.53C1022.32,-579.16 980.59,-473.32 943.12,-404.4 917.25,-356.82 867.19,-385.12 841.19,-337.6 821.1,-300.87 798.32,-243.4 840.19,-243.4"/>
<polygon fill="black" stroke="black" points="954.43,-588.53 944.16,-584.69 949.11,-588.88 944.79,-589.16 944.79,-589.16 944.79,-589.16 949.11,-588.88 944.75,-593.67 954.43,-588.53"/>
<text text-anchor="start" x="951.12" y="-599.2" font-family="Arial" font-size="10.00">FOREIGN KEY (part_instance_id) REFERENCES part_instance(id)</text>
</g>
<!-- public.part_port_slot -->
<g id="node5" class="node">
<title>public.part_port_slot</title>
<polygon fill="#efefef" stroke="none" points="1229.68,-289.6 1229.68,-325.2 1518.65,-325.2 1518.65,-289.6 1229.68,-289.6"/>
<polygon fill="none" stroke="black" points="1229.68,-289.6 1229.68,-325.2 1518.65,-325.2 1518.65,-289.6 1229.68,-289.6"/>
<text text-anchor="start" x="1236.68" y="-303" font-family="Arial Bold" font-size="18.00">public.part_port_slot</text>
<text text-anchor="start" x="1387.16" y="-303" font-family="Arial" font-size="14.00">    </text>
<text text-anchor="start" x="1418.27" y="-303" font-family="Arial" font-size="14.00" fill="#666666">[BASE TABLE]</text>
<polygon fill="none" stroke="black" points="1229.68,-258.8 1229.68,-289.6 1518.65,-289.6 1518.65,-258.8 1229.68,-258.8"/>
<text text-anchor="start" x="1236.68" y="-271" font-family="Arial" font-size="14.00">id </text>
<text text-anchor="start" x="1251.46" y="-271" font-family="Arial" font-size="14.00" fill="#666666">[integer]</text>
<polygon fill="none" stroke="black" points="1229.68,-228 1229.68,-258.8 1518.65,-258.8 1518.65,-228 1229.68,-228"/>
<text text-anchor="start" x="1236.68" y="-240.2" font-family="Arial" font-size="14.00">part_catalog_id </text>
<text text-anchor="start" x="1336.31" y="-240.2" font-family="Arial" font-size="14.00" fill="#666666">[integer]</text>
<polygon fill="none" stroke="black" points="1229.68,-197.2 1229.68,-228 1518.65,-228 1518.65,-197.2 1229.68,-197.2"/>
<text text-anchor="start" x="1236.68" y="-209.4" font-family="Arial" font-size="14.00">port_kind </text>
<text text-anchor="start" x="1298.16" y="-209.4" font-family="Arial" font-size="14.00" fill="#666666">[varchar]</text>
<polygon fill="none" stroke="black" points="1229.68,-166.4 1229.68,-197.2 1518.65,-197.2 1518.65,-166.4 1229.68,-166.4"/>
<text text-anchor="start" x="1236.68" y="-178.6" font-family="Arial" font-size="14.00">port_label </text>
<text text-anchor="start" x="1302.06" y="-178.6" font-family="Arial" font-size="14.00" fill="#666666">[varchar]</text>
<polygon fill="none" stroke="black" points="1229.68,-135.6 1229.68,-166.4 1518.65,-166.4 1518.65,-135.6 1229.68,-135.6"/>
<text text-anchor="start" x="1236.68" y="-147.8" font-family="Arial" font-size="14.00">connector_type </text>
<text text-anchor="start" x="1336.3" y="-147.8" font-family="Arial" font-size="14.00" fill="#666666">[varchar]</text>
<polygon fill="none" stroke="black" points="1229.68,-104.8 1229.68,-135.6 1518.65,-135.6 1518.65,-104.8 1229.68,-104.8"/>
<text text-anchor="start" x="1236.68" y="-117" font-family="Arial" font-size="14.00">port_speed </text>
<text text-anchor="start" x="1310.62" y="-117" font-family="Arial" font-size="14.00" fill="#666666">[varchar]</text>
<polygon fill="none" stroke="black" points="1229.68,-74 1229.68,-104.8 1518.65,-104.8 1518.65,-74 1229.68,-74"/>
<text text-anchor="start" x="1236.68" y="-86.2" font-family="Arial" font-size="14.00">created_at </text>
<text text-anchor="start" x="1306.73" y="-86.2" font-family="Arial" font-size="14.00" fill="#666666">[timestamp with time zone]</text>
<polygon fill="none" stroke="black" points="1229.68,-43.2 1229.68,-74 1518.65,-74 1518.65,-43.2 1229.68,-43.2"/>
<text text-anchor="start" x="1236.68" y="-55.4" font-family="Arial" font-size="14.00">updated_at </text>
<text text-anchor="start" x="1310.64" y="-55.4" font-family="Arial" font-size="14.00" fill="#666666">[timestamp with time zone]</text>
</g>
<!-- public.cable_connection&#45;&gt;public.part_port_slot -->
<g id="edge4" class="edge">
<title>public.cable_connection:port_slot_id&#45;&gt;public.part_port_slot:id</title>
<path fill="none" stroke="black" d="M954.45,-558.22C1078.54,-553.79 1093.98,-468.45 1177.16,-368.4 1207.67,-331.71 1180.96,-274.2 1228.68,-274.2"/>
<polygon fill="black" stroke="black" points="954.45,-558.22 944.38,-553.89 949.12,-558.31 944.79,-558.39 944.79,-558.39 944.79,-558.39 949.12,-558.31 944.53,-562.89 954.45,-558.22"/>
<text text-anchor="start" x="951.12" y="-568.4" font-family="Arial" font-size="10.00">FOREIGN KEY (port_slot_id) REFERENCES part_port_slot(id)</text>
</g>
</g>
</svg>
