<?xml version="1.0" encoding="UTF-8" standalone="no"?>
<!DOCTYPE svg PUBLIC "-//W3C//DTD SVG 1.1//EN"
 "http://www.w3.org/Graphics/SVG/1.1/DTD/svg11.dtd">
<!-- Generated by graphviz version 12.1.2 (20240928.0832)
 -->
<!-- Title: public.import_run Pages: 1 -->
<svg width="809pt" height="941pt"
 viewBox="0.00 0.00 809.33 940.80" xmlns="http://www.w3.org/2000/svg" xmlns:xlink="http://www.w3.org/1999/xlink">
<g id="graph0" class="graph" transform="scale(1 1) rotate(0) translate(4 936.8)">
<title>public.import_run</title>
<polygon fill="white" stroke="none" points="-4,4 -4,-936.8 805.33,-936.8 805.33,4 -4,4"/>
<!-- public.import_run -->
<g id="node1" class="node">
<title>public.import_run</title>
<polygon fill="#efefef" stroke="none" points="254.5,-851 254.5,-886.6 523.47,-886.6 523.47,-851 254.5,-851"/>
<polygon fill="none" stroke="black" points="254.5,-851 254.5,-886.6 523.47,-886.6 523.47,-851 254.5,-851"/>
<text text-anchor="start" x="261.5" y="-864.4" font-family="Arial Bold" font-size="18.00">public.import_run</text>
<text text-anchor="start" x="391.98" y="-864.4" font-family="Arial" font-size="14.00">    </text>
<text text-anchor="start" x="423.1" y="-864.4" font-family="Arial" font-size="14.00" fill="#666666">[BASE TABLE]</text>
<polygon fill="none" stroke="black" points="254.5,-820.2 254.5,-851 523.47,-851 523.47,-820.2 254.5,-820.2"/>
<text text-anchor="start" x="261.5" y="-832.4" font-family="Arial" font-size="14.00">id </text>
<text text-anchor="start" x="276.29" y="-832.4" font-family="Arial" font-size="14.00" fill="#666666">[integer]</text>
<polygon fill="none" stroke="black" points="254.5,-789.4 254.5,-820.2 523.47,-820.2 523.47,-789.4 254.5,-789.4"/>
<text text-anchor="start" x="261.5" y="-801.6" font-family="Arial" font-size="14.00">project_id </text>
<text text-anchor="start" x="326.09" y="-801.6" font-family="Arial" font-size="14.00" fill="#666666">[integer]</text>
<polygon fill="none" stroke="black" points="254.5,-758.6 254.5,-789.4 523.47,-789.4 523.47,-758.6 254.5,-758.6"/>
<text text-anchor="start" x="261.5" y="-770.8" font-family="Arial" font-size="14.00">kind </text>
<text text-anchor="start" x="291.07" y="-770.8" font-family="Arial" font-size="14.00" fill="#666666">[varchar]</text>
<polygon fill="none" stroke="black" points="254.5,-727.8 254.5,-758.6 523.47,-758.6 523.47,-727.8 254.5,-727.8"/>
<text text-anchor="start" x="261.5" y="-740" font-family="Arial" font-size="14.00">file_hash </text>
<text text-anchor="start" x="321.43" y="-740" font-family="Arial" font-size="14.00" fill="#666666">[varchar]</text>
<polygon fill="none" stroke="black" points="254.5,-697 254.5,-727.8 523.47,-727.8 523.47,-697 254.5,-697"/>
<text text-anchor="start" x="261.5" y="-709.2" font-family="Arial" font-size="14.00">as_of </text>
<text text-anchor="start" x="299.64" y="-709.2" font-family="Arial" font-size="14.00" fill="#666666">[timestamp with time zone]</text>
<polygon fill="none" stroke="black" points="254.5,-666.2 254.5,-697 523.47,-697 523.47,-666.2 254.5,-666.2"/>
<text text-anchor="start" x="261.5" y="-678.4" font-family="Arial" font-size="14.00">created_count </text>
<text text-anchor="start" x="354.12" y="-678.4" font-family="Arial" font-size="14.00" fill="#666666">[integer]</text>
<polygon fill="none" stroke="black" points="254.5,-635.4 254.5,-666.2 523.47,-666.2 523.47,-635.4 254.5,-635.4"/>
<text text-anchor="start" x="261.5" y="-647.6" font-family="Arial" font-size="14.00">updated_count </text>
<text text-anchor="start" x="358.03" y="-647.6" font-family="Arial" font-size="14.00" fill="#666666">[integer]</text>
<polygon fill="none" stroke="black" points="254.5,-604.6 254.5,-635.4 523.47,-635.4 523.47,-604.6 254.5,-604.6"/>
<text text-anchor="start" x="261.5" y="-616.8" font-family="Arial" font-size="14.00">warning_count </text>
<text text-anchor="start" x="356.45" y="-616.8" font-family="Arial" font-size="14.00" fill="#666666">[integer]</text>
<polygon fill="none" stroke="black" points="254.5,-573.8 254.5,-604.6 523.47,-604.6 523.47,-573.8 254.5,-573.8"/>
<text text-anchor="start" x="261.5" y="-586" font-family="Arial" font-size="14.00">imported_by </text>
<text text-anchor="start" x="342.43" y="-586" font-family="Arial" font-size="14.00" fill="#666666">[integer]</text>
<polygon fill="none" stroke="black" points="254.5,-543 254.5,-573.8 523.47,-573.8 523.47,-543 254.5,-543"/>
<text text-anchor="start" x="261.5" y="-555.2" font-family="Arial" font-size="14.00">imported_at </text>
<text text-anchor="start" x="339.32" y="-555.2" font-family="Arial" font-size="14.00" fill="#666666">[timestamp with time zone]</text>
<polygon fill="none" stroke="black" stroke-width="3" points="253,-541.5 253,-888.1 524.97,-888.1 524.97,-541.5 253,-541.5"/>
</g>
<!-- public.project -->
<g id="node2" class="node">
<title>public.project</title>
<polygon fill="#efefef" stroke="none" points="78.99,-366.6 78.99,-402.2 334.98,-402.2 334.98,-366.6 78.99,-366.6"/>
<polygon fill="none" stroke="black" points="78.99,-366.6 78.99,-402.2 334.98,-402.2 334.98,-366.6 78.99,-366.6"/>
<text text-anchor="start" x="95.01" y="-380" font-family="Arial Bold" font-size="18.00">public.project</text>
<text text-anchor="start" x="194.48" y="-380" font-family="Arial" font-size="14.00">    </text>
<text text-anchor="start" x="225.59" y="-380" font-family="Arial" font-size="14.00" fill="#666666">[BASE TABLE]</text>
<polygon fill="none" stroke="black" points="78.99,-335.8 78.99,-366.6 334.98,-366.6 334.98,-335.8 78.99,-335.8"/>
<text text-anchor="start" x="85.99" y="-348" font-family="Arial" font-size="14.00">id </text>
<text text-anchor="start" x="100.78" y="-348" font-family="Arial" font-size="14.00" fill="#666666">[integer]</text>
<polygon fill="none" stroke="black" points="78.99,-305 78.99,-335.8 334.98,-335.8 334.98,-305 78.99,-305"/>
<text text-anchor="start" x="85.99" y="-317.2" font-family="Arial" font-size="14.00">uid </text>
<text text-anchor="start" x="108.56" y="-317.2" font-family="Arial" font-size="14.00" fill="#666666">[varchar]</text>
<polygon fill="none" stroke="black" points="78.99,-274.2 78.99,-305 334.98,-305 334.98,-274.2 78.99,-274.2"/>
<text text-anchor="start" x="85.99" y="-286.4" font-family="Arial" font-size="14.00">code </text>
<text text-anchor="start" x="120.24" y="-286.4" font-family="Arial" font-size="14.00" fill="#666666">[varchar]</text>
<polygon fill="none" stroke="black" points="78.99,-243.4 78.99,-274.2 334.98,-274.2 334.98,-243.4 78.99,-243.4"/>
<text text-anchor="start" x="85.99" y="-255.6" font-family="Arial" font-size="14.00">name </text>
<text text-anchor="start" x="124.9" y="-255.6" font-family="Arial" font-size="14.00" fill="#666666">[varchar]</text>
<polygon fill="none" stroke="black" points="78.99,-212.6 78.99,-243.4 334.98,-243.4 334.98,-212.6 78.99,-212.6"/>
<text text-anchor="start" x="85.99" y="-224.8" font-family="Arial" font-size="14.00">description </text>
<text text-anchor="start" x="157.58" y="-224.8" font-family="Arial" font-size="14.00" fill="#666666">[varchar]</text>
<polygon fill="none" stroke="black" points="78.99,-181.8 78.99,-212.6 334.98,-212.6 334.98,-181.8 78.99,-181.8"/>
<text text-anchor="start" x="85.99" y="-194" font-family="Arial" font-size="14.00">currency </text>
<text text-anchor="start" x="143.56" y="-194" font-family="Arial" font-size="14.00" fill="#666666">[varchar]</text>
<polygon fill="none" stroke="black" points="78.99,-151 78.99,-181.8 334.98,-181.8 334.98,-151 78.99,-151"/>
<text text-anchor="start" x="85.99" y="-163.2" font-family="Arial" font-size="14.00">archived_at </text>
<text text-anchor="start" x="162.26" y="-163.2" font-family="Arial" font-size="14.00" fill="#666666">[timestamp with time zone]</text>
<polygon fill="none" stroke="black" points="78.99,-120.2 78.99,-151 334.98,-151 334.98,-120.2 78.99,-120.2"/>
<text text-anchor="start" x="85.99" y="-132.4" font-family="Arial" font-size="14.00">closure_reason </text>
<text text-anchor="start" x="185.6" y="-132.4" font-family="Arial" font-size="14.00" fill="#666666">[varchar]</text>
<polygon fill="none" stroke="black" points="78.99,-89.4 78.99,-120.2 334.98,-120.2 334.98,-89.4 78.99,-89.4"/>
<text text-anchor="start" x="85.99" y="-101.6" font-family="Arial" font-size="14.00">created_at </text>
<text text-anchor="start" x="156.04" y="-101.6" font-family="Arial" font-size="14.00" fill="#666666">[timestamp with time zone]</text>
<polygon fill="none" stroke="black" points="78.99,-58.6 78.99,-89.4 334.98,-89.4 334.98,-58.6 78.99,-58.6"/>
<text text-anchor="start" x="85.99" y="-70.8" font-family="Arial" font-size="14.00">updated_at </text>
<text text-anchor="start" x="159.95" y="-70.8" font-family="Arial" font-size="14.00" fill="#666666">[timestamp with time zone]</text>
</g>
<!-- public.import_run&#45;&gt;public.project -->
<g id="edge1" class="edge">
<title>public.import_run:project_id&#45;&gt;public.project:id</title>
<path fill="none" stroke="black" d="M243.11,-804.41C120.4,-794.93 190.27,-613.58 254.5,-496.8 274.96,-459.61 314.39,-482.51 334.98,-445.4 355.3,-408.79 377.85,-351.2 335.98,-351.2"/>
<polygon fill="black" stroke="black" points="243.17,-804.41 253,-809.28 248.51,-804.61 252.83,-804.78 252.83,-804.78 252.83,-804.78 248.51,-804.61 253.34,-800.29 243.17,-804.41"/>
<text text-anchor="start" x="7" y="-814.8" font-family="Arial" font-size="10.00">FOREIGN KEY (project_id) REFERENCES project(id)</text>
</g>
<!-- public.app_user -->
<g id="node3" class="node">
<title>public.app_user</title>
<polygon fill="#efefef" stroke="none" points="439.87,-382 439.87,-417.6 702.1,-417.6 702.1,-382 439.87,-382"/>
<polygon fill="none" stroke="black" points="439.87,-382 439.87,-417.6 702.1,-417.6 702.1,-382 439.87,-382"/>
<text text-anchor="start" x="451.51" y="-395.4" font-family="Arial Bold" font-size="18.00">public.app_user</text>
<text text-anchor="start" x="565.98" y="-395.4" font-family="Arial" font-size="14.00">    </text>
<text text-anchor="start" x="597.09" y="-395.4" font-family="Arial" font-size="14.00" fill="#666666">[BASE TABLE]</text>
<polygon fill="none" stroke="black" points="439.87,-351.2 439.87,-382 702.1,-382 702.1,-351.2 439.87,-351.2"/>
<text text-anchor="start" x="446.87" y="-363.4" font-family="Arial" font-size="14.00">id </text>
<text text-anchor="start" x="461.66" y="-363.4" font-family="Arial" font-size="14.00" fill="#666666">[integer]</text>
<polygon fill="none" stroke="black" points="439.87,-320.4 439.87,-351.2 702.1,-351.2 702.1,-320.4 439.87,-320.4"/>
<text text-anchor="start" x="446.87" y="-332.6" font-family="Arial" font-size="14.00">name </text>
<text text-anchor="start" x="485.78" y="-332.6" font-family="Arial" font-size="14.00" fill="#666666">[varchar]</text>
<polygon fill="none" stroke="black" points="439.87,-289.6 439.87,-320.4 702.1,-320.4 702.1,-289.6 439.87,-289.6"/>
<text text-anchor="start" x="446.87" y="-301.8" font-family="Arial" font-size="14.00">email </text>
<text text-anchor="start" x="484.22" y="-301.8" font-family="Arial" font-size="14.00" fill="#666666">[varchar]</text>
<polygon fill="none" stroke="black" points="439.87,-258.8 439.87,-289.6 702.1,-289.6 702.1,-258.8 439.87,-258.8"/>
<text text-anchor="start" x="446.87" y="-271" font-family="Arial" font-size="14.00">password_hash </text>
<text text-anchor="start" x="548.83" y="-271" font-family="Arial" font-size="14.00" fill="#666666">[varchar]</text>
<polygon fill="none" stroke="black" points="439.87,-228 439.87,-258.8 702.1,-258.8 702.1,-228 439.87,-228"/>
<text text-anchor="start" x="446.87" y="-240.2" font-family="Arial" font-size="14.00">must_change_password </text>
<text text-anchor="start" x="602.52" y="-240.2" font-family="Arial" font-size="14.00" fill="#666666">[boolean]</text>
<polygon fill="none" stroke="black" points="439.87,-197.2 439.87,-228 702.1,-228 702.1,-197.2 439.87,-197.2"/>
<text text-anchor="start" x="446.87" y="-209.4" font-family="Arial" font-size="14.00">is_system_admin </text>
<text text-anchor="start" x="558.92" y="-209.4" font-family="Arial" font-size="14.00" fill="#666666">[boolean]</text>
<polygon fill="none" stroke="black" points="439.87,-166.4 439.87,-197.2 702.1,-197.2 702.1,-166.4 439.87,-166.4"/>
<text text-anchor="start" x="446.87" y="-178.6" font-family="Arial" font-size="14.00">locale </text>
<text text-anchor="start" x="487.34" y="-178.6" font-family="Arial" font-size="14.00" fill="#666666">[varchar]</text>
<polygon fill="none" stroke="black" points="439.87,-135.6 439.87,-166.4 702.1,-166.4 702.1,-135.6 439.87,-135.6"/>
<text text-anchor="start" x="446.87" y="-147.8" font-family="Arial" font-size="14.00">last_login_at </text>
<text text-anchor="start" x="529.38" y="-147.8" font-family="Arial" font-size="14.00" fill="#666666">[timestamp with time zone]</text>
<polygon fill="none" stroke="black" points="439.87,-104.8 439.87,-135.6 702.1,-135.6 702.1,-104.8 439.87,-104.8"/>
<text text-anchor="start" x="446.87" y="-117" font-family="Arial" font-size="14.00">disabled_at </text>
<text text-anchor="start" x="522.38" y="-117" font-family="Arial" font-size="14.00" fill="#666666">[timestamp with time zone]</text>
<polygon fill="none" stroke="black" points="439.87,-74 439.87,-104.8 702.1,-104.8 702.1,-74 439.87,-74"/>
<text text-anchor="start" x="446.87" y="-86.2" font-family="Arial" font-size="14.00">created_at </text>
<text text-anchor="start" x="516.92" y="-86.2" font-family="Arial" font-size="14.00" fill="#666666">[timestamp with time zone]</text>
<polygon fill="none" stroke="black" points="439.87,-43.2 439.87,-74 702.1,-74 702.1,-43.2 439.87,-43.2"/>
<text text-anchor="start" x="446.87" y="-55.4" font-family="Arial" font-size="14.00">updated_at </text>
<text text-anchor="start" x="520.83" y="-55.4" font-family="Arial" font-size="14.00" fill="#666666">[timestamp with time zone]</text>
</g>
<!-- public.import_run&#45;&gt;public.app_user -->
<g id="edge2" class="edge">
<title>public.import_run:imported_by&#45;&gt;public.app_user:id</title>
<path fill="none" stroke="black" d="M534.48,-587.73C561.89,-578.5 544.1,-527.78 523.47,-496.8 501.05,-463.13 462.29,-494.47 439.87,-460.8 416.67,-425.95 397.01,-366.6 438.87,-366.6"/>
<polygon fill="black" stroke="black" points="534.7,-587.7 524.15,-584.7 529.42,-588.47 525.14,-589.1 525.14,-589.1 525.14,-589.1 529.42,-588.47 525.46,-593.6 534.7,-587.7"/>
<text text-anchor="start" x="531.47" y="-599.2" font-family="Arial" font-size="10.00">FOREIGN KEY (imported_by) REFERENCES app_user(id)</text>
</g>
</g>
</svg>
