<?xml version="1.0" encoding="UTF-8" standalone="no"?>
<!DOCTYPE svg PUBLIC "-//W3C//DTD SVG 1.1//EN"
 "http://www.w3.org/Graphics/SVG/1.1/DTD/svg11.dtd">
<!-- Generated by graphviz version 12.1.2 (20240928.0832)
 -->
<!-- Title: public.work_order_approval Pages: 1 -->
<svg width="1093pt" height="1156pt"
 viewBox="0.00 0.00 1093.49 1156.40" xmlns="http://www.w3.org/2000/svg" xmlns:xlink="http://www.w3.org/1999/xlink">
<g id="graph0" class="graph" transform="scale(1 1) rotate(0) translate(4 1152.4)">
<title>public.work_order_approval</title>
<polygon fill="white" stroke="none" points="-4,4 -4,-1152.4 1089.49,-1152.4 1089.49,4 -4,4"/>
<!-- public.work_order_approval -->
<g id="node1" class="node">
<title>public.work_order_approval</title>
<polygon fill="#efefef" stroke="none" points="375.21,-1066.6 375.21,-1102.2 719.14,-1102.2 719.14,-1066.6 375.21,-1066.6"/>
<polygon fill="none" stroke="black" points="375.21,-1066.6 375.21,-1102.2 719.14,-1102.2 719.14,-1066.6 375.21,-1066.6"/>
<text text-anchor="start" x="382.21" y="-1080" font-family="Arial Bold" font-size="18.00">public.work_order_approval</text>
<text text-anchor="start" x="587.65" y="-1080" font-family="Arial" font-size="14.00">    </text>
<text text-anchor="start" x="618.77" y="-1080" font-family="Arial" font-size="14.00" fill="#666666">[BASE TABLE]</text>
<polygon fill="none" stroke="black" points="375.21,-1035.8 375.21,-1066.6 719.14,-1066.6 719.14,-1035.8 375.21,-1035.8"/>
<text text-anchor="start" x="382.21" y="-1048" font-family="Arial" font-size="14.00">id </text>
<text text-anchor="start" x="397" y="-1048" font-family="Arial" font-size="14.00" fill="#666666">[integer]</text>
<polygon fill="none" stroke="black" points="375.21,-1005 375.21,-1035.8 719.14,-1035.8 719.14,-1005 375.21,-1005"/>
<text text-anchor="start" x="382.21" y="-1017.2" font-family="Arial" font-size="14.00">work_order_id </text>
<text text-anchor="start" x="474.81" y="-1017.2" font-family="Arial" font-size="14.00" fill="#666666">[integer]</text>
<polygon fill="none" stroke="black" points="375.21,-974.2 375.21,-1005 719.14,-1005 719.14,-974.2 375.21,-974.2"/>
<text text-anchor="start" x="382.21" y="-986.4" font-family="Arial" font-size="14.00">required_project_id </text>
<text text-anchor="start" x="505.96" y="-986.4" font-family="Arial" font-size="14.00" fill="#666666">[integer]</text>
<polygon fill="none" stroke="black" points="375.21,-943.4 375.21,-974.2 719.14,-974.2 719.14,-943.4 375.21,-943.4"/>
<text text-anchor="start" x="382.21" y="-955.6" font-family="Arial" font-size="14.00">approver_id </text>
<text text-anchor="start" x="460.04" y="-955.6" font-family="Arial" font-size="14.00" fill="#666666">[integer]</text>
<polygon fill="none" stroke="black" points="375.21,-912.6 375.21,-943.4 719.14,-943.4 719.14,-912.6 375.21,-912.6"/>
<text text-anchor="start" x="382.21" y="-924.8" font-family="Arial" font-size="14.00">status </text>
<text text-anchor="start" x="423.45" y="-924.8" font-family="Arial" font-size="14.00" fill="#666666">[varchar]</text>
<polygon fill="none" stroke="black" points="375.21,-881.8 375.21,-912.6 719.14,-912.6 719.14,-881.8 375.21,-881.8"/>
<text text-anchor="start" x="382.21" y="-894" font-family="Arial" font-size="14.00">approved_at </text>
<text text-anchor="start" x="463.94" y="-894" font-family="Arial" font-size="14.00" fill="#666666">[timestamp with time zone]</text>
<polygon fill="none" stroke="black" points="375.21,-851 375.21,-881.8 719.14,-881.8 719.14,-851 375.21,-851"/>
<text text-anchor="start" x="382.21" y="-863.2" font-family="Arial" font-size="14.00">created_at </text>
<text text-anchor="start" x="452.26" y="-863.2" font-family="Arial" font-size="14.00" fill="#666666">[timestamp with time zone]</text>
<polygon fill="none" stroke="black" points="375.21,-820.2 375.21,-851 719.14,-851 719.14,-820.2 375.21,-820.2"/>
<text text-anchor="start" x="382.21" y="-832.4" font-family="Arial" font-size="14.00">updated_at </text>
<text text-anchor="start" x="456.17" y="-832.4" font-family="Arial" font-size="14.00" fill="#666666">[timestamp with time zone]</text>
<polygon fill="none" stroke="black" points="375.21,-789.4 375.21,-820.2 719.14,-820.2 719.14,-789.4 375.21,-789.4"/>
<text text-anchor="start" x="382.21" y="-801.6" font-family="Arial" font-size="14.00">self_approved </text>
<text text-anchor="start" x="474.05" y="-801.6" font-family="Arial" font-size="14.00" fill="#666666">[boolean]</text>
<polygon fill="none" stroke="black" stroke-width="3" points="373.71,-787.9 373.71,-1103.7 720.64,-1103.7 720.64,-787.9 373.71,-787.9"/>
</g>
<!-- public.work_order -->
<g id="node2" class="node">
<title>public.work_order</title>
<polygon fill="#efefef" stroke="none" points="43.2,-628.4 43.2,-664 315.15,-664 315.15,-628.4 43.2,-628.4"/>
<polygon fill="none" stroke="black" points="43.2,-628.4 43.2,-664 315.15,-664 315.15,-628.4 43.2,-628.4"/>
<text text-anchor="start" x="50.2" y="-641.8" font-family="Arial Bold" font-size="18.00">public.work_order</text>
<text text-anchor="start" x="183.66" y="-641.8" font-family="Arial" font-size="14.00">    </text>
<text text-anchor="start" x="214.78" y="-641.8" font-family="Arial" font-size="14.00" fill="#666666">[BASE TABLE]</text>
<polygon fill="none" stroke="black" points="43.2,-597.6 43.2,-628.4 315.15,-628.4 315.15,-597.6 43.2,-597.6"/>
<text text-anchor="start" x="50.2" y="-609.8" font-family="Arial" font-size="14.00">id </text>
<text text-anchor="start" x="64.99" y="-609.8" font-family="Arial" font-size="14.00" fill="#666666">[integer]</text>
<polygon fill="none" stroke="black" points="43.2,-566.8 43.2,-597.6 315.15,-597.6 315.15,-566.8 43.2,-566.8"/>
<text text-anchor="start" x="50.2" y="-579" font-family="Arial" font-size="14.00">project_id </text>
<text text-anchor="start" x="114.79" y="-579" font-family="Arial" font-size="14.00" fill="#666666">[integer]</text>
<polygon fill="none" stroke="black" points="43.2,-536 43.2,-566.8 315.15,-566.8 315.15,-536 43.2,-536"/>
<text text-anchor="start" x="50.2" y="-548.2" font-family="Arial" font-size="14.00">target_project_id </text>
<text text-anchor="start" x="158.38" y="-548.2" font-family="Arial" font-size="14.00" fill="#666666">[integer]</text>
<polygon fill="none" stroke="black" points="43.2,-505.2 43.2,-536 315.15,-536 315.15,-505.2 43.2,-505.2"/>
<text text-anchor="start" x="50.2" y="-517.4" font-family="Arial" font-size="14.00">device_id </text>
<text text-anchor="start" x="113.24" y="-517.4" font-family="Arial" font-size="14.00" fill="#666666">[integer]</text>
<polygon fill="none" stroke="black" points="43.2,-474.4 43.2,-505.2 315.15,-505.2 315.15,-474.4 43.2,-474.4"/>
<text text-anchor="start" x="50.2" y="-486.6" font-family="Arial" font-size="14.00">part_instance_id </text>
<text text-anchor="start" x="156.83" y="-486.6" font-family="Arial" font-size="14.00" fill="#666666">[integer]</text>
<polygon fill="none" stroke="black" points="43.2,-443.6 43.2,-474.4 315.15,-474.4 315.15,-443.6 43.2,-443.6"/>
<text text-anchor="start" x="50.2" y="-455.8" font-family="Arial" font-size="14.00">work_type </text>
<text text-anchor="start" x="117.9" y="-455.8" font-family="Arial" font-size="14.00" fill="#666666">[varchar]</text>
<polygon fill="none" stroke="black" points="43.2,-412.8 43.2,-443.6 315.15,-443.6 315.15,-412.8 43.2,-412.8"/>
<text text-anchor="start" x="50.2" y="-425" font-family="Arial" font-size="14.00">title </text>
<text text-anchor="start" x="75.88" y="-425" font-family="Arial" font-size="14.00" fill="#666666">[varchar]</text>
<polygon fill="none" stroke="black" points="43.2,-382 43.2,-412.8 315.15,-412.8 315.15,-382 43.2,-382"/>
<text text-anchor="start" x="50.2" y="-394.2" font-family="Arial" font-size="14.00">description </text>
<text text-anchor="start" x="121.79" y="-394.2" font-family="Arial" font-size="14.00" fill="#666666">[text]</text>
<polygon fill="none" stroke="black" points="43.2,-351.2 43.2,-382 315.15,-382 315.15,-351.2 43.2,-351.2"/>
<text text-anchor="start" x="50.2" y="-363.4" font-family="Arial" font-size="14.00">primary_assignee_id </text>
<text text-anchor="start" x="183.27" y="-363.4" font-family="Arial" font-size="14.00" fill="#666666">[integer]</text>
<polygon fill="none" stroke="black" points="43.2,-320.4 43.2,-351.2 315.15,-351.2 315.15,-320.4 43.2,-320.4"/>
<text text-anchor="start" x="50.2" y="-332.6" font-family="Arial" font-size="14.00">secondary_assignee_id </text>
<text text-anchor="start" x="201.19" y="-332.6" font-family="Arial" font-size="14.00" fill="#666666">[integer]</text>
<polygon fill="none" stroke="black" points="43.2,-289.6 43.2,-320.4 315.15,-320.4 315.15,-289.6 43.2,-289.6"/>
<text text-anchor="start" x="50.2" y="-301.8" font-family="Arial" font-size="14.00">due_date </text>
<text text-anchor="start" x="112.48" y="-301.8" font-family="Arial" font-size="14.00" fill="#666666">[date]</text>
<polygon fill="none" stroke="black" points="43.2,-258.8 43.2,-289.6 315.15,-289.6 315.15,-258.8 43.2,-258.8"/>
<text text-anchor="start" x="50.2" y="-271" font-family="Arial" font-size="14.00">status </text>
<text text-anchor="start" x="91.44" y="-271" font-family="Arial" font-size="14.00" fill="#666666">[varchar]</text>
<polygon fill="none" stroke="black" points="43.2,-228 43.2,-258.8 315.15,-258.8 315.15,-228 43.2,-228"/>
<text text-anchor="start" x="50.2" y="-240.2" font-family="Arial" font-size="14.00">planned_at </text>
<text text-anchor="start" x="123.38" y="-240.2" font-family="Arial" font-size="14.00" fill="#666666">[timestamp with time zone]</text>
<polygon fill="none" stroke="black" points="43.2,-197.2 43.2,-228 315.15,-228 315.15,-197.2 43.2,-197.2"/>
<text text-anchor="start" x="50.2" y="-209.4" font-family="Arial" font-size="14.00">executed_at </text>
<text text-anchor="start" x="130.37" y="-209.4" font-family="Arial" font-size="14.00" fill="#666666">[timestamp with time zone]</text>
<polygon fill="none" stroke="black" points="43.2,-166.4 43.2,-197.2 315.15,-197.2 315.15,-166.4 43.2,-166.4"/>
<text text-anchor="start" x="50.2" y="-178.6" font-family="Arial" font-size="14.00">completed_at </text>
<text text-anchor="start" x="138.14" y="-178.6" font-family="Arial" font-size="14.00" fill="#666666">[timestamp with time zone]</text>
<polygon fill="none" stroke="black" points="43.2,-135.6 43.2,-166.4 315.15,-166.4 315.15,-135.6 43.2,-135.6"/>
<text text-anchor="start" x="50.2" y="-147.8" font-family="Arial" font-size="14.00">cancelled_at </text>
<text text-anchor="start" x="132.7" y="-147.8" font-family="Arial" font-size="14.00" fill="#666666">[timestamp with time zone]</text>
<polygon fill="none" stroke="black" points="43.2,-104.8 43.2,-135.6 315.15,-135.6 315.15,-104.8 43.2,-104.8"/>
<text text-anchor="start" x="50.2" y="-117" font-family="Arial" font-size="14.00">cancelled_reason </text>
<text text-anchor="start" x="163.83" y="-117" font-family="Arial" font-size="14.00" fill="#666666">[text]</text>
<polygon fill="none" stroke="black" points="43.2,-74 43.2,-104.8 315.15,-104.8 315.15,-74 43.2,-74"/>
<text text-anchor="start" x="50.2" y="-86.2" font-family="Arial" font-size="14.00">created_at </text>
<text text-anchor="start" x="120.25" y="-86.2" font-family="Arial" font-size="14.00" fill="#666666">[timestamp with time zone]</text>
<polygon fill="none" stroke="black" points="43.2,-43.2 43.2,-74 315.15,-74 315.15,-43.2 43.2,-43.2"/>
<text text-anchor="start" x="50.2" y="-55.4" font-family="Arial" font-size="14.00">updated_at </text>
<text text-anchor="start" x="124.16" y="-55.4" font-family="Arial" font-size="14.00" fill="#666666">[timestamp with time zone]</text>
</g>
<!-- public.work_order_approval&#45;&gt;public.work_order -->
<g id="edge1" class="edge">
<title>public.work_order_approval:work_order_id&#45;&gt;public.work_order:id</title>
<path fill="none" stroke="black" d="M364.02,-1018.4C292.64,-987.67 403.85,-613 316.15,-613"/>
<polygon fill="black" stroke="black" points="364.07,-1018.41 373.02,-1024.75 369.31,-1019.44 373.56,-1020.27 373.56,-1020.27 373.56,-1020.27 369.31,-1019.44 374.75,-1015.92 364.07,-1018.41"/>
<text text-anchor="start" x="87.7" y="-1030.4" font-family="Arial" font-size="10.00">FOREIGN KEY (work_order_id) REFERENCES work_order(id)</text>
</g>
<!-- public.project -->
<g id="node3" class="node">
<title>public.project</title>
<polygon fill="#efefef" stroke="none" points="419.18,-489.8 419.18,-525.4 675.17,-525.4 675.17,-489.8 419.18,-489.8"/>
<polygon fill="none" stroke="black" points="419.18,-489.8 419.18,-525.4 675.17,-525.4 675.17,-489.8 419.18,-489.8"/>
<text text-anchor="start" x="435.2" y="-503.2" font-family="Arial Bold" font-size="18.00">public.project</text>
<text text-anchor="start" x="534.66" y="-503.2" font-family="Arial" font-size="14.00">    </text>
<text text-anchor="start" x="565.78" y="-503.2" font-family="Arial" font-size="14.00" fill="#666666">[BASE TABLE]</text>
<polygon fill="none" stroke="black" points="419.18,-459 419.18,-489.8 675.17,-489.8 675.17,-459 419.18,-459"/>
<text text-anchor="start" x="426.18" y="-471.2" font-family="Arial" font-size="14.00">id </text>
<text text-anchor="start" x="440.97" y="-471.2" font-family="Arial" font-size="14.00" fill="#666666">[integer]</text>
<polygon fill="none" stroke="black" points="419.18,-428.2 419.18,-459 675.17,-459 675.17,-428.2 419.18,-428.2"/>
<text text-anchor="start" x="426.18" y="-440.4" font-family="Arial" font-size="14.00">uid </text>
<text text-anchor="start" x="448.75" y="-440.4" font-family="Arial" font-size="14.00" fill="#666666">[varchar]</text>
<polygon fill="none" stroke="black" points="419.18,-397.4 419.18,-428.2 675.17,-428.2 675.17,-397.4 419.18,-397.4"/>
<text text-anchor="start" x="426.18" y="-409.6" font-family="Arial" font-size="14.00">code </text>
<text text-anchor="start" x="460.43" y="-409.6" font-family="Arial" font-size="14.00" fill="#666666">[varchar]</text>
<polygon fill="none" stroke="black" points="419.18,-366.6 419.18,-397.4 675.17,-397.4 675.17,-366.6 419.18,-366.6"/>
<text text-anchor="start" x="426.18" y="-378.8" font-family="Arial" font-size="14.00">name </text>
<text text-anchor="start" x="465.09" y="-378.8" font-family="Arial" font-size="14.00" fill="#666666">[varchar]</text>
<polygon fill="none" stroke="black" points="419.18,-335.8 419.18,-366.6 675.17,-366.6 675.17,-335.8 419.18,-335.8"/>
<text text-anchor="start" x="426.18" y="-348" font-family="Arial" font-size="14.00">description </text>
<text text-anchor="start" x="497.77" y="-348" font-family="Arial" font-size="14.00" fill="#666666">[varchar]</text>
<polygon fill="none" stroke="black" points="419.18,-305 419.18,-335.8 675.17,-335.8 675.17,-305 419.18,-305"/>
<text text-anchor="start" x="426.18" y="-317.2" font-family="Arial" font-size="14.00">currency </text>
<text text-anchor="start" x="483.75" y="-317.2" font-family="Arial" font-size="14.00" fill="#666666">[varchar]</text>
<polygon fill="none" stroke="black" points="419.18,-274.2 419.18,-305 675.17,-305 675.17,-274.2 419.18,-274.2"/>
<text text-anchor="start" x="426.18" y="-286.4" font-family="Arial" font-size="14.00">archived_at </text>
<text text-anchor="start" x="502.45" y="-286.4" font-family="Arial" font-size="14.00" fill="#666666">[timestamp with time zone]</text>
<polygon fill="none" stroke="black" points="419.18,-243.4 419.18,-274.2 675.17,-274.2 675.17,-243.4 419.18,-243.4"/>
<text text-anchor="start" x="426.18" y="-255.6" font-family="Arial" font-size="14.00">closure_reason </text>
<text text-anchor="start" x="525.79" y="-255.6" font-family="Arial" font-size="14.00" fill="#666666">[varchar]</text>
<polygon fill="none" stroke="black" points="419.18,-212.6 419.18,-243.4 675.17,-243.4 675.17,-212.6 419.18,-212.6"/>
<text text-anchor="start" x="426.18" y="-224.8" font-family="Arial" font-size="14.00">created_at </text>
<text text-anchor="start" x="496.23" y="-224.8" font-family="Arial" font-size="14.00" fill="#666666">[timestamp with time zone]</text>
<polygon fill="none" stroke="black" points="419.18,-181.8 419.18,-212.6 675.17,-212.6 675.17,-181.8 419.18,-181.8"/>
<text text-anchor="start" x="426.18" y="-194" font-family="Arial" font-size="14.00">updated_at </text>
<text text-anchor="start" x="500.14" y="-194" font-family="Arial" font-size="14.00" fill="#666666">[timestamp with time zone]</text>
</g>
<!-- public.work_order_approval&#45;&gt;public.project -->
<g id="edge2" class="edge">
<title>public.work_order_approval:required_project_id&#45;&gt;public.project:id</title>
<path fill="none" stroke="black" d="M725.48,-981.09C742.25,-914.1 702.71,-474.4 676.17,-474.4"/>
<polygon fill="black" stroke="black" points="725.63,-980.84 716.5,-986.93 722.79,-985.36 720.49,-989.03 720.49,-989.03 720.49,-989.03 722.79,-985.36 724.13,-991.71 725.63,-980.84"/>
<text text-anchor="start" x="727.14" y="-999.6" font-family="Arial" font-size="10.00">FOREIGN KEY (required_project_id) REFERENCES project(id)</text>
</g>
<!-- public.app_user -->
<g id="node4" class="node">
<title>public.app_user</title>
<polygon fill="#efefef" stroke="none" points="780.06,-536 780.06,-571.6 1042.29,-571.6 1042.29,-536 780.06,-536"/>
<polygon fill="none" stroke="black" points="780.06,-536 780.06,-571.6 1042.29,-571.6 1042.29,-536 780.06,-536"/>
<text text-anchor="start" x="791.7" y="-549.4" font-family="Arial Bold" font-size="18.00">public.app_user</text>
<text text-anchor="start" x="906.17" y="-549.4" font-family="Arial" font-size="14.00">    </text>
<text text-anchor="start" x="937.28" y="-549.4" font-family="Arial" font-size="14.00" fill="#666666">[BASE TABLE]</text>
<polygon fill="none" stroke="black" points="780.06,-505.2 780.06,-536 1042.29,-536 1042.29,-505.2 780.06,-505.2"/>
<text text-anchor="start" x="787.06" y="-517.4" font-family="Arial" font-size="14.00">id </text>
<text text-anchor="start" x="801.85" y="-517.4" font-family="Arial" font-size="14.00" fill="#666666">[integer]</text>
<polygon fill="none" stroke="black" points="780.06,-474.4 780.06,-505.2 1042.29,-505.2 1042.29,-474.4 780.06,-474.4"/>
<text text-anchor="start" x="787.06" y="-486.6" font-family="Arial" font-size="14.00">name </text>
<text text-anchor="start" x="825.97" y="-486.6" font-family="Arial" font-size="14.00" fill="#666666">[varchar]</text>
<polygon fill="none" stroke="black" points="780.06,-443.6 780.06,-474.4 1042.29,-474.4 1042.29,-443.6 780.06,-443.6"/>
<text text-anchor="start" x="787.06" y="-455.8" font-family="Arial" font-size="14.00">username </text>
<text text-anchor="start" x="853.21" y="-455.8" font-family="Arial" font-size="14.00" fill="#666666">[varchar]</text>
<polygon fill="none" stroke="black" points="780.06,-412.8 780.06,-443.6 1042.29,-443.6 1042.29,-412.8 780.06,-412.8"/>
<text text-anchor="start" x="787.06" y="-425" font-family="Arial" font-size="14.00">email </text>
<text text-anchor="start" x="824.41" y="-425" font-family="Arial" font-size="14.00" fill="#666666">[varchar]</text>
<polygon fill="none" stroke="black" points="780.06,-382 780.06,-412.8 1042.29,-412.8 1042.29,-382 780.06,-382"/>
<text text-anchor="start" x="787.06" y="-394.2" font-family="Arial" font-size="14.00">password_hash </text>
<text text-anchor="start" x="889.01" y="-394.2" font-family="Arial" font-size="14.00" fill="#666666">[varchar]</text>
<polygon fill="none" stroke="black" points="780.06,-351.2 780.06,-382 1042.29,-382 1042.29,-351.2 780.06,-351.2"/>
<text text-anchor="start" x="787.06" y="-363.4" font-family="Arial" font-size="14.00">must_change_password </text>
<text text-anchor="start" x="942.71" y="-363.4" font-family="Arial" font-size="14.00" fill="#666666">[boolean]</text>
<polygon fill="none" stroke="black" points="780.06,-320.4 780.06,-351.2 1042.29,-351.2 1042.29,-320.4 780.06,-320.4"/>
<text text-anchor="start" x="787.06" y="-332.6" font-family="Arial" font-size="14.00">is_system_admin </text>
<text text-anchor="start" x="899.1" y="-332.6" font-family="Arial" font-size="14.00" fill="#666666">[boolean]</text>
<polygon fill="none" stroke="black" points="780.06,-289.6 780.06,-320.4 1042.29,-320.4 1042.29,-289.6 780.06,-289.6"/>
<text text-anchor="start" x="787.06" y="-301.8" font-family="Arial" font-size="14.00">locale </text>
<text text-anchor="start" x="827.53" y="-301.8" font-family="Arial" font-size="14.00" fill="#666666">[varchar]</text>
<polygon fill="none" stroke="black" points="780.06,-258.8 780.06,-289.6 1042.29,-289.6 1042.29,-258.8 780.06,-258.8"/>
<text text-anchor="start" x="787.06" y="-271" font-family="Arial" font-size="14.00">last_login_at </text>
<text text-anchor="start" x="869.57" y="-271" font-family="Arial" font-size="14.00" fill="#666666">[timestamp with time zone]</text>
<polygon fill="none" stroke="black" points="780.06,-228 780.06,-258.8 1042.29,-258.8 1042.29,-228 780.06,-228"/>
<text text-anchor="start" x="787.06" y="-240.2" font-family="Arial" font-size="14.00">disabled_at </text>
<text text-anchor="start" x="862.57" y="-240.2" font-family="Arial" font-size="14.00" fill="#666666">[timestamp with time zone]</text>
<polygon fill="none" stroke="black" points="780.06,-197.2 780.06,-228 1042.29,-228 1042.29,-197.2 780.06,-197.2"/>
<text text-anchor="start" x="787.06" y="-209.4" font-family="Arial" font-size="14.00">created_at </text>
<text text-anchor="start" x="857.11" y="-209.4" font-family="Arial" font-size="14.00" fill="#666666">[timestamp with time zone]</text>
<polygon fill="none" stroke="black" points="780.06,-166.4 780.06,-197.2 1042.29,-197.2 1042.29,-166.4 780.06,-166.4"/>
<text text-anchor="start" x="787.06" y="-178.6" font-family="Arial" font-size="14.00">updated_at </text>
<text text-anchor="start" x="861.02" y="-178.6" font-family="Arial" font-size="14.00" fill="#666666">[timestamp with time zone]</text>
<polygon fill="none" stroke="black" points="780.06,-135.6 780.06,-166.4 1042.29,-166.4 1042.29,-135.6 780.06,-135.6"/>
<text text-anchor="start" x="787.06" y="-147.8" font-family="Arial" font-size="14.00">theme </text>
<text text-anchor="start" x="829.86" y="-147.8" font-family="Arial" font-size="14.00" fill="#666666">[varchar]</text>
</g>
<!-- public.work_order_approval&#45;&gt;public.app_user -->
<g id="edge3" class="edge">
<title>public.work_order_approval:approver_id&#45;&gt;public.app_user:id</title>
<path fill="none" stroke="black" d="M730.13,-957.03C808.51,-926.88 684.45,-520.6 779.06,-520.6"/>
<polygon fill="black" stroke="black" points="730.31,-957 719.68,-954.31 725.06,-957.93 720.8,-958.68 720.8,-958.68 720.8,-958.68 725.06,-957.93 721.25,-963.17 730.31,-957"/>
<text text-anchor="start" x="727.14" y="-968.8" font-family="Arial" font-size="10.00">FOREIGN KEY (approver_id) REFERENCES app_user(id)</text>
</g>
</g>
</svg>
