<?xml version="1.0" encoding="UTF-8" standalone="no"?>
<!DOCTYPE svg PUBLIC "-//W3C//DTD SVG 1.1//EN"
 "http://www.w3.org/Graphics/SVG/1.1/DTD/svg11.dtd">
<!-- Generated by graphviz version 12.1.2 (20240928.0832)
 -->
<!-- Title: public.vlan Pages: 1 -->
<svg width="765pt" height="1438pt"
 viewBox="0.00 0.00 765.19 1437.60" xmlns="http://www.w3.org/2000/svg" xmlns:xlink="http://www.w3.org/1999/xlink">
<g id="graph0" class="graph" transform="scale(1 1) rotate(0) translate(4 1433.6)">
<title>public.vlan</title>
<polygon fill="white" stroke="none" points="-4,4 -4,-1433.6 761.19,-1433.6 761.19,4 -4,4"/>
<!-- public.vlan -->
<g id="node1" class="node">
<title>public.vlan</title>
<polygon fill="#efefef" stroke="none" points="231.2,-912.6 231.2,-948.2 484.88,-948.2 484.88,-912.6 231.2,-912.6"/>
<polygon fill="none" stroke="black" points="231.2,-912.6 231.2,-948.2 484.88,-948.2 484.88,-912.6 231.2,-912.6"/>
<text text-anchor="start" x="255.56" y="-926" font-family="Arial Bold" font-size="18.00">public.vlan</text>
<text text-anchor="start" x="336.04" y="-926" font-family="Arial" font-size="14.00">    </text>
<text text-anchor="start" x="367.15" y="-926" font-family="Arial" font-size="14.00" fill="#666666">[BASE TABLE]</text>
<polygon fill="none" stroke="black" points="231.2,-881.8 231.2,-912.6 484.88,-912.6 484.88,-881.8 231.2,-881.8"/>
<text text-anchor="start" x="238.2" y="-894" font-family="Arial" font-size="14.00">id </text>
<text text-anchor="start" x="252.99" y="-894" font-family="Arial" font-size="14.00" fill="#666666">[integer]</text>
<polygon fill="none" stroke="black" points="231.2,-851 231.2,-881.8 484.88,-881.8 484.88,-851 231.2,-851"/>
<text text-anchor="start" x="238.2" y="-863.2" font-family="Arial" font-size="14.00">vlan_tag </text>
<text text-anchor="start" x="295.02" y="-863.2" font-family="Arial" font-size="14.00" fill="#666666">[integer]</text>
<polygon fill="none" stroke="black" points="231.2,-820.2 231.2,-851 484.88,-851 484.88,-820.2 231.2,-820.2"/>
<text text-anchor="start" x="238.2" y="-832.4" font-family="Arial" font-size="14.00">name </text>
<text text-anchor="start" x="277.11" y="-832.4" font-family="Arial" font-size="14.00" fill="#666666">[varchar]</text>
<polygon fill="none" stroke="black" points="231.2,-789.4 231.2,-820.2 484.88,-820.2 484.88,-789.4 231.2,-789.4"/>
<text text-anchor="start" x="238.2" y="-801.6" font-family="Arial" font-size="14.00">zone </text>
<text text-anchor="start" x="272.45" y="-801.6" font-family="Arial" font-size="14.00" fill="#666666">[varchar]</text>
<polygon fill="none" stroke="black" points="231.2,-758.6 231.2,-789.4 484.88,-789.4 484.88,-758.6 231.2,-758.6"/>
<text text-anchor="start" x="238.2" y="-770.8" font-family="Arial" font-size="14.00">description </text>
<text text-anchor="start" x="309.79" y="-770.8" font-family="Arial" font-size="14.00" fill="#666666">[varchar]</text>
<polygon fill="none" stroke="black" points="231.2,-727.8 231.2,-758.6 484.88,-758.6 484.88,-727.8 231.2,-727.8"/>
<text text-anchor="start" x="238.2" y="-740" font-family="Arial" font-size="14.00">created_by </text>
<text text-anchor="start" x="311.36" y="-740" font-family="Arial" font-size="14.00" fill="#666666">[integer]</text>
<polygon fill="none" stroke="black" points="231.2,-697 231.2,-727.8 484.88,-727.8 484.88,-697 231.2,-697"/>
<text text-anchor="start" x="238.2" y="-709.2" font-family="Arial" font-size="14.00">created_at </text>
<text text-anchor="start" x="308.25" y="-709.2" font-family="Arial" font-size="14.00" fill="#666666">[timestamp with time zone]</text>
<polygon fill="none" stroke="black" points="231.2,-666.2 231.2,-697 484.88,-697 484.88,-666.2 231.2,-666.2"/>
<text text-anchor="start" x="238.2" y="-678.4" font-family="Arial" font-size="14.00">updated_at </text>
<text text-anchor="start" x="312.16" y="-678.4" font-family="Arial" font-size="14.00" fill="#666666">[timestamp with time zone]</text>
<polygon fill="none" stroke="black" points="231.2,-635.4 231.2,-666.2 484.88,-666.2 484.88,-635.4 231.2,-635.4"/>
<text text-anchor="start" x="238.2" y="-647.6" font-family="Arial" font-size="14.00">retired_at </text>
<text text-anchor="start" x="301.23" y="-647.6" font-family="Arial" font-size="14.00" fill="#666666">[timestamp with time zone]</text>
<polygon fill="none" stroke="black" stroke-width="3" points="229.7,-633.9 229.7,-949.7 486.38,-949.7 486.38,-633.9 229.7,-633.9"/>
</g>
<!-- public.app_user -->
<g id="node4" class="node">
<title>public.app_user</title>
<polygon fill="#efefef" stroke="none" points="226.93,-474.4 226.93,-510 489.15,-510 489.15,-474.4 226.93,-474.4"/>
<polygon fill="none" stroke="black" points="226.93,-474.4 226.93,-510 489.15,-510 489.15,-474.4 226.93,-474.4"/>
<text text-anchor="start" x="238.56" y="-487.8" font-family="Arial Bold" font-size="18.00">public.app_user</text>
<text text-anchor="start" x="353.03" y="-487.8" font-family="Arial" font-size="14.00">    </text>
<text text-anchor="start" x="384.15" y="-487.8" font-family="Arial" font-size="14.00" fill="#666666">[BASE TABLE]</text>
<polygon fill="none" stroke="black" points="226.93,-443.6 226.93,-474.4 489.15,-474.4 489.15,-443.6 226.93,-443.6"/>
<text text-anchor="start" x="233.93" y="-455.8" font-family="Arial" font-size="14.00">id </text>
<text text-anchor="start" x="248.71" y="-455.8" font-family="Arial" font-size="14.00" fill="#666666">[integer]</text>
<polygon fill="none" stroke="black" points="226.93,-412.8 226.93,-443.6 489.15,-443.6 489.15,-412.8 226.93,-412.8"/>
<text text-anchor="start" x="233.93" y="-425" font-family="Arial" font-size="14.00">name </text>
<text text-anchor="start" x="272.84" y="-425" font-family="Arial" font-size="14.00" fill="#666666">[varchar]</text>
<polygon fill="none" stroke="black" points="226.93,-382 226.93,-412.8 489.15,-412.8 489.15,-382 226.93,-382"/>
<text text-anchor="start" x="233.93" y="-394.2" font-family="Arial" font-size="14.00">username </text>
<text text-anchor="start" x="300.07" y="-394.2" font-family="Arial" font-size="14.00" fill="#666666">[varchar]</text>
<polygon fill="none" stroke="black" points="226.93,-351.2 226.93,-382 489.15,-382 489.15,-351.2 226.93,-351.2"/>
<text text-anchor="start" x="233.93" y="-363.4" font-family="Arial" font-size="14.00">email </text>
<text text-anchor="start" x="271.27" y="-363.4" font-family="Arial" font-size="14.00" fill="#666666">[varchar]</text>
<polygon fill="none" stroke="black" points="226.93,-320.4 226.93,-351.2 489.15,-351.2 489.15,-320.4 226.93,-320.4"/>
<text text-anchor="start" x="233.93" y="-332.6" font-family="Arial" font-size="14.00">password_hash </text>
<text text-anchor="start" x="335.88" y="-332.6" font-family="Arial" font-size="14.00" fill="#666666">[varchar]</text>
<polygon fill="none" stroke="black" points="226.93,-289.6 226.93,-320.4 489.15,-320.4 489.15,-289.6 226.93,-289.6"/>
<text text-anchor="start" x="233.93" y="-301.8" font-family="Arial" font-size="14.00">must_change_password </text>
<text text-anchor="start" x="389.57" y="-301.8" font-family="Arial" font-size="14.00" fill="#666666">[boolean]</text>
<polygon fill="none" stroke="black" points="226.93,-258.8 226.93,-289.6 489.15,-289.6 489.15,-258.8 226.93,-258.8"/>
<text text-anchor="start" x="233.93" y="-271" font-family="Arial" font-size="14.00">is_system_admin </text>
<text text-anchor="start" x="345.97" y="-271" font-family="Arial" font-size="14.00" fill="#666666">[boolean]</text>
<polygon fill="none" stroke="black" points="226.93,-228 226.93,-258.8 489.15,-258.8 489.15,-228 226.93,-228"/>
<text text-anchor="start" x="233.93" y="-240.2" font-family="Arial" font-size="14.00">locale </text>
<text text-anchor="start" x="274.4" y="-240.2" font-family="Arial" font-size="14.00" fill="#666666">[varchar]</text>
<polygon fill="none" stroke="black" points="226.93,-197.2 226.93,-228 489.15,-228 489.15,-197.2 226.93,-197.2"/>
<text text-anchor="start" x="233.93" y="-209.4" font-family="Arial" font-size="14.00">last_login_at </text>
<text text-anchor="start" x="316.43" y="-209.4" font-family="Arial" font-size="14.00" fill="#666666">[timestamp with time zone]</text>
<polygon fill="none" stroke="black" points="226.93,-166.4 226.93,-197.2 489.15,-197.2 489.15,-166.4 226.93,-166.4"/>
<text text-anchor="start" x="233.93" y="-178.6" font-family="Arial" font-size="14.00">disabled_at </text>
<text text-anchor="start" x="309.43" y="-178.6" font-family="Arial" font-size="14.00" fill="#666666">[timestamp with time zone]</text>
<polygon fill="none" stroke="black" points="226.93,-135.6 226.93,-166.4 489.15,-166.4 489.15,-135.6 226.93,-135.6"/>
<text text-anchor="start" x="233.93" y="-147.8" font-family="Arial" font-size="14.00">created_at </text>
<text text-anchor="start" x="303.98" y="-147.8" font-family="Arial" font-size="14.00" fill="#666666">[timestamp with time zone]</text>
<polygon fill="none" stroke="black" points="226.93,-104.8 226.93,-135.6 489.15,-135.6 489.15,-104.8 226.93,-104.8"/>
<text text-anchor="start" x="233.93" y="-117" font-family="Arial" font-size="14.00">updated_at </text>
<text text-anchor="start" x="307.89" y="-117" font-family="Arial" font-size="14.00" fill="#666666">[timestamp with time zone]</text>
<polygon fill="none" stroke="black" points="226.93,-74 226.93,-104.8 489.15,-104.8 489.15,-74 226.93,-74"/>
<text text-anchor="start" x="233.93" y="-86.2" font-family="Arial" font-size="14.00">theme </text>
<text text-anchor="start" x="276.73" y="-86.2" font-family="Arial" font-size="14.00" fill="#666666">[varchar]</text>
<polygon fill="none" stroke="black" points="226.93,-43.2 226.93,-74 489.15,-74 489.15,-43.2 226.93,-43.2"/>
<text text-anchor="start" x="233.93" y="-55.4" font-family="Arial" font-size="14.00">timezone </text>
<text text-anchor="start" x="294.62" y="-55.4" font-family="Arial" font-size="14.00" fill="#666666">[varchar]</text>
</g>
<!-- public.vlan&#45;&gt;public.app_user -->
<g id="edge3" class="edge">
<title>public.vlan:created_by&#45;&gt;public.app_user:id</title>
<path fill="none" stroke="black" d="M495.97,-742.57C612.34,-727.87 613.03,-459 490.15,-459"/>
<polygon fill="black" stroke="black" points="496.2,-742.56 485.94,-738.69 490.87,-742.89 486.55,-743.16 486.55,-743.16 486.55,-743.16 490.87,-742.89 486.49,-747.67 496.2,-742.56"/>
<text text-anchor="start" x="492.88" y="-753.2" font-family="Arial" font-size="10.00">FOREIGN KEY (created_by) REFERENCES app_user(id)</text>
</g>
<!-- public.subnet -->
<g id="node2" class="node">
<title>public.subnet</title>
<polygon fill="#efefef" stroke="none" points="43.2,-1350.8 43.2,-1386.4 296.88,-1386.4 296.88,-1350.8 43.2,-1350.8"/>
<polygon fill="none" stroke="black" points="43.2,-1350.8 43.2,-1386.4 296.88,-1386.4 296.88,-1350.8 43.2,-1350.8"/>
<text text-anchor="start" x="59.55" y="-1364.2" font-family="Arial Bold" font-size="18.00">public.subnet</text>
<text text-anchor="start" x="156.04" y="-1364.2" font-family="Arial" font-size="14.00">    </text>
<text text-anchor="start" x="187.16" y="-1364.2" font-family="Arial" font-size="14.00" fill="#666666">[BASE TABLE]</text>
<polygon fill="none" stroke="black" points="43.2,-1320 43.2,-1350.8 296.88,-1350.8 296.88,-1320 43.2,-1320"/>
<text text-anchor="start" x="50.2" y="-1332.2" font-family="Arial" font-size="14.00">id </text>
<text text-anchor="start" x="64.99" y="-1332.2" font-family="Arial" font-size="14.00" fill="#666666">[integer]</text>
<polygon fill="none" stroke="black" points="43.2,-1289.2 43.2,-1320 296.88,-1320 296.88,-1289.2 43.2,-1289.2"/>
<text text-anchor="start" x="50.2" y="-1301.4" font-family="Arial" font-size="14.00">project_id </text>
<text text-anchor="start" x="114.79" y="-1301.4" font-family="Arial" font-size="14.00" fill="#666666">[integer]</text>
<polygon fill="none" stroke="black" points="43.2,-1258.4 43.2,-1289.2 296.88,-1289.2 296.88,-1258.4 43.2,-1258.4"/>
<text text-anchor="start" x="50.2" y="-1270.6" font-family="Arial" font-size="14.00">vlan_id </text>
<text text-anchor="start" x="98.45" y="-1270.6" font-family="Arial" font-size="14.00" fill="#666666">[integer]</text>
<polygon fill="none" stroke="black" points="43.2,-1227.6 43.2,-1258.4 296.88,-1258.4 296.88,-1227.6 43.2,-1227.6"/>
<text text-anchor="start" x="50.2" y="-1239.8" font-family="Arial" font-size="14.00">cidr </text>
<text text-anchor="start" x="76.65" y="-1239.8" font-family="Arial" font-size="14.00" fill="#666666">[varchar]</text>
<polygon fill="none" stroke="black" points="43.2,-1196.8 43.2,-1227.6 296.88,-1227.6 296.88,-1196.8 43.2,-1196.8"/>
<text text-anchor="start" x="50.2" y="-1209" font-family="Arial" font-size="14.00">zone </text>
<text text-anchor="start" x="84.45" y="-1209" font-family="Arial" font-size="14.00" fill="#666666">[varchar]</text>
<polygon fill="none" stroke="black" points="43.2,-1166 43.2,-1196.8 296.88,-1196.8 296.88,-1166 43.2,-1166"/>
<text text-anchor="start" x="50.2" y="-1178.2" font-family="Arial" font-size="14.00">description </text>
<text text-anchor="start" x="121.79" y="-1178.2" font-family="Arial" font-size="14.00" fill="#666666">[varchar]</text>
<polygon fill="none" stroke="black" points="43.2,-1135.2 43.2,-1166 296.88,-1166 296.88,-1135.2 43.2,-1135.2"/>
<text text-anchor="start" x="50.2" y="-1147.4" font-family="Arial" font-size="14.00">created_by </text>
<text text-anchor="start" x="123.36" y="-1147.4" font-family="Arial" font-size="14.00" fill="#666666">[integer]</text>
<polygon fill="none" stroke="black" points="43.2,-1104.4 43.2,-1135.2 296.88,-1135.2 296.88,-1104.4 43.2,-1104.4"/>
<text text-anchor="start" x="50.2" y="-1116.6" font-family="Arial" font-size="14.00">created_at </text>
<text text-anchor="start" x="120.25" y="-1116.6" font-family="Arial" font-size="14.00" fill="#666666">[timestamp with time zone]</text>
<polygon fill="none" stroke="black" points="43.2,-1073.6 43.2,-1104.4 296.88,-1104.4 296.88,-1073.6 43.2,-1073.6"/>
<text text-anchor="start" x="50.2" y="-1085.8" font-family="Arial" font-size="14.00">updated_at </text>
<text text-anchor="start" x="124.16" y="-1085.8" font-family="Arial" font-size="14.00" fill="#666666">[timestamp with time zone]</text>
</g>
<!-- public.subnet&#45;&gt;public.vlan -->
<g id="edge1" class="edge">
<title>public.subnet:vlan_id&#45;&gt;public.vlan:id</title>
<path fill="none" stroke="black" d="M307.86,-1271.15C348.22,-1247.58 322.65,-1073.71 296.88,-1030.4 279.86,-1001.79 248.31,-1022.95 231.2,-994.4 208.99,-957.34 187,-897.2 230.2,-897.2"/>
<polygon fill="black" stroke="black" points="307.87,-1271.15 297.05,-1269.36 302.71,-1272.52 298.53,-1273.63 298.53,-1273.63 298.53,-1273.63 302.71,-1272.52 299.36,-1278.06 307.87,-1271.15"/>
<text text-anchor="start" x="304.88" y="-1283.8" font-family="Arial" font-size="10.00">FOREIGN KEY (vlan_id) REFERENCES vlan(id)</text>
</g>
<!-- public.interface_vlan -->
<g id="node3" class="node">
<title>public.interface_vlan</title>
<polygon fill="#efefef" stroke="none" points="401.58,-1320 401.58,-1355.6 692.5,-1355.6 692.5,-1320 401.58,-1320"/>
<polygon fill="none" stroke="black" points="401.58,-1320 401.58,-1355.6 692.5,-1355.6 692.5,-1320 401.58,-1320"/>
<text text-anchor="start" x="408.58" y="-1333.4" font-family="Arial Bold" font-size="18.00">public.interface_vlan</text>
<text text-anchor="start" x="561.01" y="-1333.4" font-family="Arial" font-size="14.00">    </text>
<text text-anchor="start" x="592.13" y="-1333.4" font-family="Arial" font-size="14.00" fill="#666666">[BASE TABLE]</text>
<polygon fill="none" stroke="black" points="401.58,-1289.2 401.58,-1320 692.5,-1320 692.5,-1289.2 401.58,-1289.2"/>
<text text-anchor="start" x="408.58" y="-1301.4" font-family="Arial" font-size="14.00">id </text>
<text text-anchor="start" x="423.37" y="-1301.4" font-family="Arial" font-size="14.00" fill="#666666">[integer]</text>
<polygon fill="none" stroke="black" points="401.58,-1258.4 401.58,-1289.2 692.5,-1289.2 692.5,-1258.4 401.58,-1258.4"/>
<text text-anchor="start" x="408.58" y="-1270.6" font-family="Arial" font-size="14.00">os_interface_id </text>
<text text-anchor="start" x="507.42" y="-1270.6" font-family="Arial" font-size="14.00" fill="#666666">[integer]</text>
<polygon fill="none" stroke="black" points="401.58,-1227.6 401.58,-1258.4 692.5,-1258.4 692.5,-1227.6 401.58,-1227.6"/>
<text text-anchor="start" x="408.58" y="-1239.8" font-family="Arial" font-size="14.00">vlan_id </text>
<text text-anchor="start" x="456.84" y="-1239.8" font-family="Arial" font-size="14.00" fill="#666666">[integer]</text>
<polygon fill="none" stroke="black" points="401.58,-1196.8 401.58,-1227.6 692.5,-1227.6 692.5,-1196.8 401.58,-1196.8"/>
<text text-anchor="start" x="408.58" y="-1209" font-family="Arial" font-size="14.00">tagging_mode </text>
<text text-anchor="start" x="501.21" y="-1209" font-family="Arial" font-size="14.00" fill="#666666">[varchar]</text>
<polygon fill="none" stroke="black" points="401.58,-1166 401.58,-1196.8 692.5,-1196.8 692.5,-1166 401.58,-1166"/>
<text text-anchor="start" x="408.58" y="-1178.2" font-family="Arial" font-size="14.00">work_order_id </text>
<text text-anchor="start" x="501.18" y="-1178.2" font-family="Arial" font-size="14.00" fill="#666666">[integer]</text>
<polygon fill="none" stroke="black" points="401.58,-1135.2 401.58,-1166 692.5,-1166 692.5,-1135.2 401.58,-1135.2"/>
<text text-anchor="start" x="408.58" y="-1147.4" font-family="Arial" font-size="14.00">from_date </text>
<text text-anchor="start" x="475.51" y="-1147.4" font-family="Arial" font-size="14.00" fill="#666666">[timestamp with time zone]</text>
<polygon fill="none" stroke="black" points="401.58,-1104.4 401.58,-1135.2 692.5,-1135.2 692.5,-1104.4 401.58,-1104.4"/>
<text text-anchor="start" x="408.58" y="-1116.6" font-family="Arial" font-size="14.00">to_date </text>
<text text-anchor="start" x="459.18" y="-1116.6" font-family="Arial" font-size="14.00" fill="#666666">[timestamp with time zone]</text>
</g>
<!-- public.interface_vlan&#45;&gt;public.vlan -->
<g id="edge2" class="edge">
<title>public.interface_vlan:vlan_id&#45;&gt;public.vlan:id</title>
<path fill="none" stroke="black" d="M390.45,-1242.35C323.95,-1233.28 368,-1130.68 401.58,-1061.2 422.23,-1018.47 464.13,-1037.08 484.88,-994.4 503.77,-955.55 529.08,-897.2 485.88,-897.2"/>
<polygon fill="black" stroke="black" points="390.27,-1242.34 399.96,-1247.47 395.59,-1242.68 399.91,-1242.96 399.91,-1242.96 399.91,-1242.96 395.59,-1242.68 400.53,-1238.49 390.27,-1242.34"/>
<text text-anchor="start" x="350.04" y="-1227" font-family="Arial" font-size="10.00">FOREIGN KEY (vlan_id) REFERENCES vlan(id)</text>
</g>
</g>
</svg>
