<?xml version="1.0" encoding="UTF-8" standalone="no"?>
<!DOCTYPE svg PUBLIC "-//W3C//DTD SVG 1.1//EN"
 "http://www.w3.org/Graphics/SVG/1.1/DTD/svg11.dtd">
<!-- Generated by graphviz version 12.1.2 (20240928.0832)
 -->
<!-- Title: public.cable_connection Pages: 1 -->
<svg width="1570pt" height="848pt"
 viewBox="0.00 0.00 1569.85 848.40" xmlns="http://www.w3.org/2000/svg" xmlns:xlink="http://www.w3.org/1999/xlink">
<g id="graph0" class="graph" transform="scale(1 1) rotate(0) translate(4 844.4)">
<title>public.cable_connection</title>
<polygon fill="white" stroke="none" points="-4,4 -4,-844.4 1565.85,-844.4 1565.85,4 -4,4"/>
<!-- public.cable_connection -->
<g id="node1" class="node">
<title>public.cable_connection</title>
<polygon fill="#efefef" stroke="none" points="629.2,-758.6 629.2,-794.2 943.12,-794.2 943.12,-758.6 629.2,-758.6"/>
<polygon fill="none" stroke="black" points="629.2,-758.6 629.2,-794.2 943.12,-794.2 943.12,-758.6 629.2,-758.6"/>
<text text-anchor="start" x="636.2" y="-772" font-family="Arial Bold" font-size="18.00">public.cable_connection</text>
<text text-anchor="start" x="811.63" y="-772" font-family="Arial" font-size="14.00">    </text>
<text text-anchor="start" x="842.75" y="-772" font-family="Arial" font-size="14.00" fill="#666666">[BASE TABLE]</text>
<polygon fill="none" stroke="black" points="629.2,-727.8 629.2,-758.6 943.12,-758.6 943.12,-727.8 629.2,-727.8"/>
<text text-anchor="start" x="636.2" y="-740" font-family="Arial" font-size="14.00">id </text>
<text text-anchor="start" x="650.99" y="-740" font-family="Arial" font-size="14.00" fill="#666666">[integer]</text>
<polygon fill="none" stroke="black" points="629.2,-697 629.2,-727.8 943.12,-727.8 943.12,-697 629.2,-697"/>
<text text-anchor="start" x="636.2" y="-709.2" font-family="Arial" font-size="14.00">cable_instance_id </text>
<text text-anchor="start" x="752.17" y="-709.2" font-family="Arial" font-size="14.00" fill="#666666">[integer]</text>
<polygon fill="none" stroke="black" points="629.2,-666.2 629.2,-697 943.12,-697 943.12,-666.2 629.2,-666.2"/>
<text text-anchor="start" x="636.2" y="-678.4" font-family="Arial" font-size="14.00">cable_end_slot_id </text>
<text text-anchor="start" x="752.96" y="-678.4" font-family="Arial" font-size="14.00" fill="#666666">[integer]</text>
<polygon fill="none" stroke="black" points="629.2,-635.4 629.2,-666.2 943.12,-666.2 943.12,-635.4 629.2,-635.4"/>
<text text-anchor="start" x="636.2" y="-647.6" font-family="Arial" font-size="14.00">part_instance_id </text>
<text text-anchor="start" x="742.83" y="-647.6" font-family="Arial" font-size="14.00" fill="#666666">[integer]</text>
<polygon fill="none" stroke="black" points="629.2,-604.6 629.2,-635.4 943.12,-635.4 943.12,-604.6 629.2,-604.6"/>
<text text-anchor="start" x="636.2" y="-616.8" font-family="Arial" font-size="14.00">port_slot_id </text>
<text text-anchor="start" x="712.47" y="-616.8" font-family="Arial" font-size="14.00" fill="#666666">[integer]</text>
<polygon fill="none" stroke="black" points="629.2,-573.8 629.2,-604.6 943.12,-604.6 943.12,-573.8 629.2,-573.8"/>
<text text-anchor="start" x="636.2" y="-586" font-family="Arial" font-size="14.00">work_order_id </text>
<text text-anchor="start" x="728.8" y="-586" font-family="Arial" font-size="14.00" fill="#666666">[integer]</text>
<polygon fill="none" stroke="black" points="629.2,-543 629.2,-573.8 943.12,-573.8 943.12,-543 629.2,-543"/>
<text text-anchor="start" x="636.2" y="-555.2" font-family="Arial" font-size="14.00">from_date </text>
<text text-anchor="start" x="703.13" y="-555.2" font-family="Arial" font-size="14.00" fill="#666666">[timestamp with time zone]</text>
<polygon fill="none" stroke="black" points="629.2,-512.2 629.2,-543 943.12,-543 943.12,-512.2 629.2,-512.2"/>
<text text-anchor="start" x="636.2" y="-524.4" font-family="Arial" font-size="14.00">to_date </text>
<text text-anchor="start" x="686.8" y="-524.4" font-family="Arial" font-size="14.00" fill="#666666">[timestamp with time zone]</text>
<polygon fill="none" stroke="black" stroke-width="3" points="627.7,-510.7 627.7,-795.7 944.62,-795.7 944.62,-510.7 627.7,-510.7"/>
</g>
<!-- public.cable_instance -->
<g id="node2" class="node">
<title>public.cable_instance</title>
<polygon fill="#efefef" stroke="none" points="43.2,-305 43.2,-340.6 337.12,-340.6 337.12,-305 43.2,-305"/>
<polygon fill="none" stroke="black" points="43.2,-305 43.2,-340.6 337.12,-340.6 337.12,-305 43.2,-305"/>
<text text-anchor="start" x="50.2" y="-318.4" font-family="Arial Bold" font-size="18.00">public.cable_instance</text>
<text text-anchor="start" x="205.63" y="-318.4" font-family="Arial" font-size="14.00">    </text>
<text text-anchor="start" x="236.75" y="-318.4" font-family="Arial" font-size="14.00" fill="#666666">[BASE TABLE]</text>
<polygon fill="none" stroke="black" points="43.2,-274.2 43.2,-305 337.12,-305 337.12,-274.2 43.2,-274.2"/>
<text text-anchor="start" x="50.2" y="-286.4" font-family="Arial" font-size="14.00">id </text>
<text text-anchor="start" x="64.99" y="-286.4" font-family="Arial" font-size="14.00" fill="#666666">[integer]</text>
<polygon fill="none" stroke="black" points="43.2,-243.4 43.2,-274.2 337.12,-274.2 337.12,-243.4 43.2,-243.4"/>
<text text-anchor="start" x="50.2" y="-255.6" font-family="Arial" font-size="14.00">cable_catalog_id </text>
<text text-anchor="start" x="159.17" y="-255.6" font-family="Arial" font-size="14.00" fill="#666666">[integer]</text>
<polygon fill="none" stroke="black" points="43.2,-212.6 43.2,-243.4 337.12,-243.4 337.12,-212.6 43.2,-212.6"/>
<text text-anchor="start" x="50.2" y="-224.8" font-family="Arial" font-size="14.00">serial_number </text>
<text text-anchor="start" x="142.8" y="-224.8" font-family="Arial" font-size="14.00" fill="#666666">[varchar]</text>
<polygon fill="none" stroke="black" points="43.2,-181.8 43.2,-212.6 337.12,-212.6 337.12,-181.8 43.2,-181.8"/>
<text text-anchor="start" x="50.2" y="-194" font-family="Arial" font-size="14.00">asset_number </text>
<text text-anchor="start" x="142.81" y="-194" font-family="Arial" font-size="14.00" fill="#666666">[varchar]</text>
<polygon fill="none" stroke="black" points="43.2,-151 43.2,-181.8 337.12,-181.8 337.12,-151 43.2,-151"/>
<text text-anchor="start" x="50.2" y="-163.2" font-family="Arial" font-size="14.00">status </text>
<text text-anchor="start" x="91.44" y="-163.2" font-family="Arial" font-size="14.00" fill="#666666">[varchar]</text>
<polygon fill="none" stroke="black" points="43.2,-120.2 43.2,-151 337.12,-151 337.12,-120.2 43.2,-120.2"/>
<text text-anchor="start" x="50.2" y="-132.4" font-family="Arial" font-size="14.00">created_at </text>
<text text-anchor="start" x="120.25" y="-132.4" font-family="Arial" font-size="14.00" fill="#666666">[timestamp with time zone]</text>
<polygon fill="none" stroke="black" points="43.2,-89.4 43.2,-120.2 337.12,-120.2 337.12,-89.4 43.2,-89.4"/>
<text text-anchor="start" x="50.2" y="-101.6" font-family="Arial" font-size="14.00">updated_at </text>
<text text-anchor="start" x="124.16" y="-101.6" font-family="Arial" font-size="14.00" fill="#666666">[timestamp with time zone]</text>
</g>
<!-- public.cable_connection&#45;&gt;public.cable_instance -->
<g id="edge1" class="edge">
<title>public.cable_connection:cable_instance_id&#45;&gt;public.cable_instance:id</title>
<path fill="none" stroke="black" d="M617.84,-712.21C464.06,-706.38 469.89,-569.19 389.16,-430 355.85,-372.57 404.52,-289.6 338.12,-289.6"/>
<polygon fill="black" stroke="black" points="617.87,-712.21 627.78,-716.89 623.2,-712.31 627.53,-712.39 627.53,-712.39 627.53,-712.39 623.2,-712.31 627.95,-707.89 617.87,-712.21"/>
<text text-anchor="start" x="308.3" y="-722.4" font-family="Arial" font-size="10.00">FOREIGN KEY (cable_instance_id) REFERENCES cable_instance(id)</text>
</g>
<!-- public.cable_end_slot -->
<g id="node3" class="node">
<title>public.cable_end_slot</title>
<polygon fill="#efefef" stroke="none" points="441.19,-305 441.19,-340.6 737.13,-340.6 737.13,-305 441.19,-305"/>
<polygon fill="none" stroke="black" points="441.19,-305 441.19,-340.6 737.13,-340.6 737.13,-305 441.19,-305"/>
<text text-anchor="start" x="448.19" y="-318.4" font-family="Arial Bold" font-size="18.00">public.cable_end_slot</text>
<text text-anchor="start" x="605.65" y="-318.4" font-family="Arial" font-size="14.00">    </text>
<text text-anchor="start" x="636.76" y="-318.4" font-family="Arial" font-size="14.00" fill="#666666">[BASE TABLE]</text>
<polygon fill="none" stroke="black" points="441.19,-274.2 441.19,-305 737.13,-305 737.13,-274.2 441.19,-274.2"/>
<text text-anchor="start" x="448.19" y="-286.4" font-family="Arial" font-size="14.00">id </text>
<text text-anchor="start" x="462.98" y="-286.4" font-family="Arial" font-size="14.00" fill="#666666">[integer]</text>
<polygon fill="none" stroke="black" points="441.19,-243.4 441.19,-274.2 737.13,-274.2 737.13,-243.4 441.19,-243.4"/>
<text text-anchor="start" x="448.19" y="-255.6" font-family="Arial" font-size="14.00">cable_catalog_id </text>
<text text-anchor="start" x="557.16" y="-255.6" font-family="Arial" font-size="14.00" fill="#666666">[integer]</text>
<polygon fill="none" stroke="black" points="441.19,-212.6 441.19,-243.4 737.13,-243.4 737.13,-212.6 441.19,-212.6"/>
<text text-anchor="start" x="448.19" y="-224.8" font-family="Arial" font-size="14.00">end_label </text>
<text text-anchor="start" x="512.8" y="-224.8" font-family="Arial" font-size="14.00" fill="#666666">[varchar]</text>
<polygon fill="none" stroke="black" points="441.19,-181.8 441.19,-212.6 737.13,-212.6 737.13,-181.8 441.19,-181.8"/>
<text text-anchor="start" x="448.19" y="-194" font-family="Arial" font-size="14.00">connector_type </text>
<text text-anchor="start" x="547.81" y="-194" font-family="Arial" font-size="14.00" fill="#666666">[varchar]</text>
<polygon fill="none" stroke="black" points="441.19,-151 441.19,-181.8 737.13,-181.8 737.13,-151 441.19,-151"/>
<text text-anchor="start" x="448.19" y="-163.2" font-family="Arial" font-size="14.00">port_speed </text>
<text text-anchor="start" x="522.13" y="-163.2" font-family="Arial" font-size="14.00" fill="#666666">[varchar]</text>
<polygon fill="none" stroke="black" points="441.19,-120.2 441.19,-151 737.13,-151 737.13,-120.2 441.19,-120.2"/>
<text text-anchor="start" x="448.19" y="-132.4" font-family="Arial" font-size="14.00">created_at </text>
<text text-anchor="start" x="518.24" y="-132.4" font-family="Arial" font-size="14.00" fill="#666666">[timestamp with time zone]</text>
<polygon fill="none" stroke="black" points="441.19,-89.4 441.19,-120.2 737.13,-120.2 737.13,-89.4 441.19,-89.4"/>
<text text-anchor="start" x="448.19" y="-101.6" font-family="Arial" font-size="14.00">updated_at </text>
<text text-anchor="start" x="522.15" y="-101.6" font-family="Arial" font-size="14.00" fill="#666666">[timestamp with time zone]</text>
</g>
<!-- public.cable_connection&#45;&gt;public.cable_end_slot -->
<g id="edge2" class="edge">
<title>public.cable_connection:cable_end_slot_id&#45;&gt;public.cable_end_slot:id</title>
<path fill="none" stroke="black" d="M618.15,-681.07C536.38,-672.02 588.05,-548.58 629.2,-466 656.09,-412.03 710.08,-437.69 737.13,-383.8 755.92,-346.38 780,-289.6 738.13,-289.6"/>
<polygon fill="black" stroke="black" points="617.88,-681.06 627.63,-686.08 623.21,-681.34 627.53,-681.56 627.53,-681.56 627.53,-681.56 623.21,-681.34 628.1,-677.09 617.88,-681.06"/>
<text text-anchor="start" x="307.18" y="-691.6" font-family="Arial" font-size="10.00">FOREIGN KEY (cable_end_slot_id) REFERENCES cable_end_slot(id)</text>
</g>
<!-- public.part_instance -->
<g id="node4" class="node">
<title>public.part_instance</title>
<polygon fill="#efefef" stroke="none" points="841.19,-289.6 841.19,-325.2 1125.13,-325.2 1125.13,-289.6 841.19,-289.6"/>
<polygon fill="none" stroke="black" points="841.19,-289.6 841.19,-325.2 1125.13,-325.2 1125.13,-289.6 841.19,-289.6"/>
<text text-anchor="start" x="848.19" y="-303" font-family="Arial Bold" font-size="18.00">public.part_instance</text>
<text text-anchor="start" x="993.64" y="-303" font-family="Arial" font-size="14.00">    </text>
<text text-anchor="start" x="1024.76" y="-303" font-family="Arial" font-size="14.00" fill="#666666">[BASE TABLE]</text>
<polygon fill="none" stroke="black" points="841.19,-258.8 841.19,-289.6 1125.13,-289.6 1125.13,-258.8 841.19,-258.8"/>
<text text-anchor="start" x="848.19" y="-271" font-family="Arial" font-size="14.00">id </text>
<text text-anchor="start" x="862.98" y="-271" font-family="Arial" font-size="14.00" fill="#666666">[integer]</text>
<polygon fill="none" stroke="black" points="841.19,-228 841.19,-258.8 1125.13,-258.8 1125.13,-228 841.19,-228"/>
<text text-anchor="start" x="848.19" y="-240.2" font-family="Arial" font-size="14.00">part_catalog_id </text>
<text text-anchor="start" x="947.82" y="-240.2" font-family="Arial" font-size="14.00" fill="#666666">[integer]</text>
<polygon fill="none" stroke="black" points="841.19,-197.2 841.19,-228 1125.13,-228 1125.13,-197.2 841.19,-197.2"/>
<text text-anchor="start" x="848.19" y="-209.4" font-family="Arial" font-size="14.00">serial_number </text>
<text text-anchor="start" x="940.79" y="-209.4" font-family="Arial" font-size="14.00" fill="#666666">[varchar]</text>
<polygon fill="none" stroke="black" points="841.19,-166.4 841.19,-197.2 1125.13,-197.2 1125.13,-166.4 841.19,-166.4"/>
<text text-anchor="start" x="848.19" y="-178.6" font-family="Arial" font-size="14.00">status </text>
<text text-anchor="start" x="889.43" y="-178.6" font-family="Arial" font-size="14.00" fill="#666666">[varchar]</text>
<polygon fill="none" stroke="black" points="841.19,-135.6 841.19,-166.4 1125.13,-166.4 1125.13,-135.6 841.19,-135.6"/>
<text text-anchor="start" x="848.19" y="-147.8" font-family="Arial" font-size="14.00">created_at </text>
<text text-anchor="start" x="918.24" y="-147.8" font-family="Arial" font-size="14.00" fill="#666666">[timestamp with time zone]</text>
<polygon fill="none" stroke="black" points="841.19,-104.8 841.19,-135.6 1125.13,-135.6 1125.13,-104.8 841.19,-104.8"/>
<text text-anchor="start" x="848.19" y="-117" font-family="Arial" font-size="14.00">updated_at </text>
<text text-anchor="start" x="922.15" y="-117" font-family="Arial" font-size="14.00" fill="#666666">[timestamp with time zone]</text>
</g>
<!-- public.cable_connection&#45;&gt;public.part_instance -->
<g id="edge3" class="edge">
<title>public.cable_connection:part_instance_id&#45;&gt;public.part_instance:id</title>
<path fill="none" stroke="black" d="M954.4,-650.15C1021.74,-641.04 974.12,-538.06 943.12,-466 918.34,-408.38 866.13,-425.95 841.19,-368.4 824.55,-329.98 798.32,-274.2 840.19,-274.2"/>
<polygon fill="black" stroke="black" points="954.44,-650.15 944.17,-646.29 949.11,-650.48 944.79,-650.76 944.79,-650.76 944.79,-650.76 949.11,-650.48 944.74,-655.27 954.44,-650.15"/>
<text text-anchor="start" x="951.12" y="-660.8" font-family="Arial" font-size="10.00">FOREIGN KEY (part_instance_id) REFERENCES part_instance(id)</text>
</g>
<!-- public.part_port_slot -->
<g id="node5" class="node">
<title>public.part_port_slot</title>
<polygon fill="#efefef" stroke="none" points="1229.68,-351.2 1229.68,-386.8 1518.65,-386.8 1518.65,-351.2 1229.68,-351.2"/>
<polygon fill="none" stroke="black" points="1229.68,-351.2 1229.68,-386.8 1518.65,-386.8 1518.65,-351.2 1229.68,-351.2"/>
<text text-anchor="start" x="1236.68" y="-364.6" font-family="Arial Bold" font-size="18.00">public.part_port_slot</text>
<text text-anchor="start" x="1387.16" y="-364.6" font-family="Arial" font-size="14.00">    </text>
<text text-anchor="start" x="1418.27" y="-364.6" font-family="Arial" font-size="14.00" fill="#666666">[BASE TABLE]</text>
<polygon fill="none" stroke="black" points="1229.68,-320.4 1229.68,-351.2 1518.65,-351.2 1518.65,-320.4 1229.68,-320.4"/>
<text text-anchor="start" x="1236.68" y="-332.6" font-family="Arial" font-size="14.00">id </text>
<text text-anchor="start" x="1251.46" y="-332.6" font-family="Arial" font-size="14.00" fill="#666666">[integer]</text>
<polygon fill="none" stroke="black" points="1229.68,-289.6 1229.68,-320.4 1518.65,-320.4 1518.65,-289.6 1229.68,-289.6"/>
<text text-anchor="start" x="1236.68" y="-301.8" font-family="Arial" font-size="14.00">part_catalog_id </text>
<text text-anchor="start" x="1336.31" y="-301.8" font-family="Arial" font-size="14.00" fill="#666666">[integer]</text>
<polygon fill="none" stroke="black" points="1229.68,-258.8 1229.68,-289.6 1518.65,-289.6 1518.65,-258.8 1229.68,-258.8"/>
<text text-anchor="start" x="1236.68" y="-271" font-family="Arial" font-size="14.00">port_kind </text>
<text text-anchor="start" x="1298.16" y="-271" font-family="Arial" font-size="14.00" fill="#666666">[varchar]</text>
<polygon fill="none" stroke="black" points="1229.68,-228 1229.68,-258.8 1518.65,-258.8 1518.65,-228 1229.68,-228"/>
<text text-anchor="start" x="1236.68" y="-240.2" font-family="Arial" font-size="14.00">port_label </text>
<text text-anchor="start" x="1302.06" y="-240.2" font-family="Arial" font-size="14.00" fill="#666666">[varchar]</text>
<polygon fill="none" stroke="black" points="1229.68,-197.2 1229.68,-228 1518.65,-228 1518.65,-197.2 1229.68,-197.2"/>
<text text-anchor="start" x="1236.68" y="-209.4" font-family="Arial" font-size="14.00">connector_type </text>
<text text-anchor="start" x="1336.3" y="-209.4" font-family="Arial" font-size="14.00" fill="#666666">[varchar]</text>
<polygon fill="none" stroke="black" points="1229.68,-166.4 1229.68,-197.2 1518.65,-197.2 1518.65,-166.4 1229.68,-166.4"/>
<text text-anchor="start" x="1236.68" y="-178.6" font-family="Arial" font-size="14.00">port_speed </text>
<text text-anchor="start" x="1310.62" y="-178.6" font-family="Arial" font-size="14.00" fill="#666666">[varchar]</text>
<polygon fill="none" stroke="black" points="1229.68,-135.6 1229.68,-166.4 1518.65,-166.4 1518.65,-135.6 1229.68,-135.6"/>
<text text-anchor="start" x="1236.68" y="-147.8" font-family="Arial" font-size="14.00">created_at </text>
<text text-anchor="start" x="1306.73" y="-147.8" font-family="Arial" font-size="14.00" fill="#666666">[timestamp with time zone]</text>
<polygon fill="none" stroke="black" points="1229.68,-104.8 1229.68,-135.6 1518.65,-135.6 1518.65,-104.8 1229.68,-104.8"/>
<text text-anchor="start" x="1236.68" y="-117" font-family="Arial" font-size="14.00">updated_at </text>
<text text-anchor="start" x="1310.64" y="-117" font-family="Arial" font-size="14.00" fill="#666666">[timestamp with time zone]</text>
<polygon fill="none" stroke="black" points="1229.68,-74 1229.68,-104.8 1518.65,-104.8 1518.65,-74 1229.68,-74"/>
<text text-anchor="start" x="1236.68" y="-86.2" font-family="Arial" font-size="14.00">voltage_min </text>
<text text-anchor="start" x="1316.06" y="-86.2" font-family="Arial" font-size="14.00" fill="#666666">[integer]</text>
<polygon fill="none" stroke="black" points="1229.68,-43.2 1229.68,-74 1518.65,-74 1518.65,-43.2 1229.68,-43.2"/>
<text text-anchor="start" x="1236.68" y="-55.4" font-family="Arial" font-size="14.00">voltage_max </text>
<text text-anchor="start" x="1319.95" y="-55.4" font-family="Arial" font-size="14.00" fill="#666666">[integer]</text>
</g>
<!-- public.cable_connection&#45;&gt;public.part_port_slot -->
<g id="edge4" class="edge">
<title>public.cable_connection:port_slot_id&#45;&gt;public.part_port_slot:id</title>
<path fill="none" stroke="black" d="M954.45,-619.82C1078.54,-615.39 1093.98,-530.05 1177.16,-430 1207.67,-393.31 1180.96,-335.8 1228.68,-335.8"/>
<polygon fill="black" stroke="black" points="954.45,-619.82 944.38,-615.49 949.12,-619.91 944.79,-619.99 944.79,-619.99 944.79,-619.99 949.12,-619.91 944.53,-624.49 954.45,-619.82"/>
<text text-anchor="start" x="951.12" y="-630" font-family="Arial" font-size="10.00">FOREIGN KEY (port_slot_id) REFERENCES part_port_slot(id)</text>
</g>
</g>
</svg>
