<?xml version="1.0" encoding="UTF-8" standalone="no"?>
<!DOCTYPE svg PUBLIC "-//W3C//DTD SVG 1.1//EN"
 "http://www.w3.org/Graphics/SVG/1.1/DTD/svg11.dtd">
<!-- Generated by graphviz version 12.1.2 (20240928.0832)
 -->
<!-- Title: public.part_instance_location Pages: 1 -->
<svg width="977pt" height="725pt"
 viewBox="0.00 0.00 976.88 725.20" xmlns="http://www.w3.org/2000/svg" xmlns:xlink="http://www.w3.org/1999/xlink">
<g id="graph0" class="graph" transform="scale(1 1) rotate(0) translate(4 721.2)">
<title>public.part_instance_location</title>
<polygon fill="white" stroke="none" points="-4,4 -4,-721.2 972.88,-721.2 972.88,4 -4,4"/>
<!-- public.part_instance_location -->
<g id="node1" class="node">
<title>public.part_instance_location</title>
<polygon fill="#efefef" stroke="none" points="314.55,-635.4 314.55,-671 665.47,-671 665.47,-635.4 314.55,-635.4"/>
<polygon fill="none" stroke="black" points="314.55,-635.4 314.55,-671 665.47,-671 665.47,-635.4 314.55,-635.4"/>
<text text-anchor="start" x="321.55" y="-648.8" font-family="Arial Bold" font-size="18.00">public.part_instance_location</text>
<text text-anchor="start" x="533.98" y="-648.8" font-family="Arial" font-size="14.00">    </text>
<text text-anchor="start" x="565.1" y="-648.8" font-family="Arial" font-size="14.00" fill="#666666">[BASE TABLE]</text>
<polygon fill="none" stroke="black" points="314.55,-604.6 314.55,-635.4 665.47,-635.4 665.47,-604.6 314.55,-604.6"/>
<text text-anchor="start" x="321.55" y="-616.8" font-family="Arial" font-size="14.00">id </text>
<text text-anchor="start" x="336.34" y="-616.8" font-family="Arial" font-size="14.00" fill="#666666">[integer]</text>
<polygon fill="none" stroke="black" points="314.55,-573.8 314.55,-604.6 665.47,-604.6 665.47,-573.8 314.55,-573.8"/>
<text text-anchor="start" x="321.55" y="-586" font-family="Arial" font-size="14.00">part_instance_id </text>
<text text-anchor="start" x="428.18" y="-586" font-family="Arial" font-size="14.00" fill="#666666">[integer]</text>
<polygon fill="none" stroke="black" points="314.55,-543 314.55,-573.8 665.47,-573.8 665.47,-543 314.55,-543"/>
<text text-anchor="start" x="321.55" y="-555.2" font-family="Arial" font-size="14.00">location_type </text>
<text text-anchor="start" x="407.94" y="-555.2" font-family="Arial" font-size="14.00" fill="#666666">[varchar]</text>
<polygon fill="none" stroke="black" points="314.55,-512.2 314.55,-543 665.47,-543 665.47,-512.2 314.55,-512.2"/>
<text text-anchor="start" x="321.55" y="-524.4" font-family="Arial" font-size="14.00">location_id </text>
<text text-anchor="start" x="392.38" y="-524.4" font-family="Arial" font-size="14.00" fill="#666666">[integer]</text>
<polygon fill="none" stroke="black" points="314.55,-481.4 314.55,-512.2 665.47,-512.2 665.47,-481.4 314.55,-481.4"/>
<text text-anchor="start" x="321.55" y="-493.6" font-family="Arial" font-size="14.00">chassis_slot_id </text>
<text text-anchor="start" x="420.38" y="-493.6" font-family="Arial" font-size="14.00" fill="#666666">[integer]</text>
<polygon fill="none" stroke="black" points="314.55,-450.6 314.55,-481.4 665.47,-481.4 665.47,-450.6 314.55,-450.6"/>
<text text-anchor="start" x="321.55" y="-462.8" font-family="Arial" font-size="14.00">work_order_id </text>
<text text-anchor="start" x="414.15" y="-462.8" font-family="Arial" font-size="14.00" fill="#666666">[integer]</text>
<polygon fill="none" stroke="black" points="314.55,-419.8 314.55,-450.6 665.47,-450.6 665.47,-419.8 314.55,-419.8"/>
<text text-anchor="start" x="321.55" y="-432" font-family="Arial" font-size="14.00">from_date </text>
<text text-anchor="start" x="388.47" y="-432" font-family="Arial" font-size="14.00" fill="#666666">[timestamp with time zone]</text>
<polygon fill="none" stroke="black" points="314.55,-389 314.55,-419.8 665.47,-419.8 665.47,-389 314.55,-389"/>
<text text-anchor="start" x="321.55" y="-401.2" font-family="Arial" font-size="14.00">to_date </text>
<text text-anchor="start" x="372.15" y="-401.2" font-family="Arial" font-size="14.00" fill="#666666">[timestamp with time zone]</text>
<polygon fill="none" stroke="black" stroke-width="3" points="313.05,-387.5 313.05,-672.5 666.97,-672.5 666.97,-387.5 313.05,-387.5"/>
</g>
<!-- public.part_instance -->
<g id="node2" class="node">
<title>public.part_instance</title>
<polygon fill="#efefef" stroke="none" points="157.04,-228 157.04,-263.6 440.98,-263.6 440.98,-228 157.04,-228"/>
<polygon fill="none" stroke="black" points="157.04,-228 157.04,-263.6 440.98,-263.6 440.98,-228 157.04,-228"/>
<text text-anchor="start" x="164.04" y="-241.4" font-family="Arial Bold" font-size="18.00">public.part_instance</text>
<text text-anchor="start" x="309.49" y="-241.4" font-family="Arial" font-size="14.00">    </text>
<text text-anchor="start" x="340.61" y="-241.4" font-family="Arial" font-size="14.00" fill="#666666">[BASE TABLE]</text>
<polygon fill="none" stroke="black" points="157.04,-197.2 157.04,-228 440.98,-228 440.98,-197.2 157.04,-197.2"/>
<text text-anchor="start" x="164.04" y="-209.4" font-family="Arial" font-size="14.00">id </text>
<text text-anchor="start" x="178.83" y="-209.4" font-family="Arial" font-size="14.00" fill="#666666">[integer]</text>
<polygon fill="none" stroke="black" points="157.04,-166.4 157.04,-197.2 440.98,-197.2 440.98,-166.4 157.04,-166.4"/>
<text text-anchor="start" x="164.04" y="-178.6" font-family="Arial" font-size="14.00">part_catalog_id </text>
<text text-anchor="start" x="263.67" y="-178.6" font-family="Arial" font-size="14.00" fill="#666666">[integer]</text>
<polygon fill="none" stroke="black" points="157.04,-135.6 157.04,-166.4 440.98,-166.4 440.98,-135.6 157.04,-135.6"/>
<text text-anchor="start" x="164.04" y="-147.8" font-family="Arial" font-size="14.00">serial_number </text>
<text text-anchor="start" x="256.64" y="-147.8" font-family="Arial" font-size="14.00" fill="#666666">[varchar]</text>
<polygon fill="none" stroke="black" points="157.04,-104.8 157.04,-135.6 440.98,-135.6 440.98,-104.8 157.04,-104.8"/>
<text text-anchor="start" x="164.04" y="-117" font-family="Arial" font-size="14.00">status </text>
<text text-anchor="start" x="205.28" y="-117" font-family="Arial" font-size="14.00" fill="#666666">[varchar]</text>
<polygon fill="none" stroke="black" points="157.04,-74 157.04,-104.8 440.98,-104.8 440.98,-74 157.04,-74"/>
<text text-anchor="start" x="164.04" y="-86.2" font-family="Arial" font-size="14.00">created_at </text>
<text text-anchor="start" x="234.09" y="-86.2" font-family="Arial" font-size="14.00" fill="#666666">[timestamp with time zone]</text>
<polygon fill="none" stroke="black" points="157.04,-43.2 157.04,-74 440.98,-74 440.98,-43.2 157.04,-43.2"/>
<text text-anchor="start" x="164.04" y="-55.4" font-family="Arial" font-size="14.00">updated_at </text>
<text text-anchor="start" x="238" y="-55.4" font-family="Arial" font-size="14.00" fill="#666666">[timestamp with time zone]</text>
</g>
<!-- public.part_instance_location&#45;&gt;public.part_instance -->
<g id="edge1" class="edge">
<title>public.part_instance_location:part_instance_id&#45;&gt;public.part_instance:id</title>
<path fill="none" stroke="black" d="M303.15,-588.68C207.01,-578.71 250.58,-427.17 314.55,-342.8 349.85,-296.24 405.53,-353.24 440.98,-306.8 466.39,-273.52 483.85,-212.6 441.98,-212.6"/>
<polygon fill="black" stroke="black" points="303.23,-588.69 312.99,-593.68 308.56,-588.95 312.88,-589.17 312.88,-589.17 312.88,-589.17 308.56,-588.95 313.44,-584.69 303.23,-588.69"/>
<text text-anchor="start" x="7" y="-599.2" font-family="Arial" font-size="10.00">FOREIGN KEY (part_instance_id) REFERENCES part_instance(id)</text>
</g>
<!-- public.chassis_slot -->
<g id="node3" class="node">
<title>public.chassis_slot</title>
<polygon fill="#efefef" stroke="none" points="545.02,-228 545.02,-263.6 819,-263.6 819,-228 545.02,-228"/>
<polygon fill="none" stroke="black" points="545.02,-228 545.02,-263.6 819,-263.6 819,-228 545.02,-228"/>
<text text-anchor="start" x="552.02" y="-241.4" font-family="Arial Bold" font-size="18.00">public.chassis_slot</text>
<text text-anchor="start" x="687.51" y="-241.4" font-family="Arial" font-size="14.00">    </text>
<text text-anchor="start" x="718.63" y="-241.4" font-family="Arial" font-size="14.00" fill="#666666">[BASE TABLE]</text>
<polygon fill="none" stroke="black" points="545.02,-197.2 545.02,-228 819,-228 819,-197.2 545.02,-197.2"/>
<text text-anchor="start" x="552.02" y="-209.4" font-family="Arial" font-size="14.00">id </text>
<text text-anchor="start" x="566.81" y="-209.4" font-family="Arial" font-size="14.00" fill="#666666">[integer]</text>
<polygon fill="none" stroke="black" points="545.02,-166.4 545.02,-197.2 819,-197.2 819,-166.4 545.02,-166.4"/>
<text text-anchor="start" x="552.02" y="-178.6" font-family="Arial" font-size="14.00">chassis_model_id </text>
<text text-anchor="start" x="667.19" y="-178.6" font-family="Arial" font-size="14.00" fill="#666666">[integer]</text>
<polygon fill="none" stroke="black" points="545.02,-135.6 545.02,-166.4 819,-166.4 819,-135.6 545.02,-135.6"/>
<text text-anchor="start" x="552.02" y="-147.8" font-family="Arial" font-size="14.00">slot_type </text>
<text text-anchor="start" x="611.94" y="-147.8" font-family="Arial" font-size="14.00" fill="#666666">[varchar]</text>
<polygon fill="none" stroke="black" points="545.02,-104.8 545.02,-135.6 819,-135.6 819,-104.8 545.02,-104.8"/>
<text text-anchor="start" x="552.02" y="-117" font-family="Arial" font-size="14.00">slot_label </text>
<text text-anchor="start" x="615.06" y="-117" font-family="Arial" font-size="14.00" fill="#666666">[varchar]</text>
<polygon fill="none" stroke="black" points="545.02,-74 545.02,-104.8 819,-104.8 819,-74 545.02,-74"/>
<text text-anchor="start" x="552.02" y="-86.2" font-family="Arial" font-size="14.00">created_at </text>
<text text-anchor="start" x="622.07" y="-86.2" font-family="Arial" font-size="14.00" fill="#666666">[timestamp with time zone]</text>
<polygon fill="none" stroke="black" points="545.02,-43.2 545.02,-74 819,-74 819,-43.2 545.02,-43.2"/>
<text text-anchor="start" x="552.02" y="-55.4" font-family="Arial" font-size="14.00">updated_at </text>
<text text-anchor="start" x="625.98" y="-55.4" font-family="Arial" font-size="14.00" fill="#666666">[timestamp with time zone]</text>
</g>
<!-- public.part_instance_location&#45;&gt;public.chassis_slot -->
<g id="edge2" class="edge">
<title>public.part_instance_location:chassis_slot_id&#45;&gt;public.chassis_slot:id</title>
<path fill="none" stroke="black" d="M676.85,-495.93C731.78,-486.08 704.29,-394.56 665.47,-342.8 631.95,-298.1 578.63,-351.43 545.02,-306.8 519.83,-273.35 502.15,-212.6 544.02,-212.6"/>
<polygon fill="black" stroke="black" points="676.77,-495.94 666.43,-492.29 671.45,-496.38 667.14,-496.74 667.14,-496.74 667.14,-496.74 671.45,-496.38 667.18,-501.26 676.77,-495.94"/>
<text text-anchor="start" x="673.47" y="-506.8" font-family="Arial" font-size="10.00">FOREIGN KEY (chassis_slot_id) REFERENCES chassis_slot(id)</text>
</g>
</g>
</svg>
